<?xml version="1.0" encoding="utf-8" standalone="no"?>
<!DOCTYPE svg PUBLIC "-//W3C//DTD SVG 1.1//EN"
  "http://www.w3.org/Graphics/SVG/1.1/DTD/svg11.dtd">
<svg xmlns:xlink="http://www.w3.org/1999/xlink" width="460.8pt" height="345.6pt" viewBox="0 0 460.8 345.6" xmlns="http://www.w3.org/2000/svg" version="1.1">
 <metadata>
  <rdf:RDF xmlns:dc="http://purl.org/dc/elements/1.1/" xmlns:cc="http://creativecommons.org/ns#" xmlns:rdf="http://www.w3.org/1999/02/22-rdf-syntax-ns#">
   <cc:Work>
    <dc:type rdf:resource="http://purl.org/dc/dcmitype/StillImage"/>
    <dc:date>2023-02-28T14:24:06.293815</dc:date>
    <dc:format>image/svg+xml</dc:format>
    <dc:creator>
     <cc:Agent>
      <dc:title>Matplotlib v3.5.2, https://matplotlib.org/</dc:title>
     </cc:Agent>
    </dc:creator>
   </cc:Work>
  </rdf:RDF>
 </metadata>
 <defs>
  <style type="text/css">*{stroke-linejoin: round; stroke-linecap: butt}</style>
 </defs>
 <g id="figure_1">
  <g id="patch_1">
   <path d="M 0 345.6 
L 460.8 345.6 
L 460.8 0 
L 0 0 
z
" style="fill: #ffffff"/>
  </g>
  <g id="axes_1">
   <g id="patch_2">
    <path d="M 57.6 307.584 
L 414.72 307.584 
L 414.72 41.472 
L 57.6 41.472 
z
" style="fill: #ffffff"/>
   </g>
   <g id="matplotlib.axis_1">
    <g id="xtick_1">
     <g id="line2d_1">
      <defs>
       <path id="m3d127f46a2" d="M 0 0 
L 0 3.5 
" style="stroke: #000000; stroke-width: 0.8"/>
      </defs>
      <g>
       <use xlink:href="#m3d127f46a2" x="123.193469" y="307.584" style="stroke: #000000; stroke-width: 0.8"/>
      </g>
     </g>
     <g id="text_1">
      <!-- $\mathdefault{1}$ -->
      <g transform="translate(119.779225 324.269876)scale(0.14 -0.14)">
       <defs>
        <path id="CMR17-31" d="M 1702 4083 
C 1702 4217 1696 4224 1606 4224 
C 1357 3927 979 3833 621 3820 
C 602 3820 570 3820 563 3808 
C 557 3795 557 3782 557 3648 
C 755 3648 1088 3686 1344 3839 
L 1344 467 
C 1344 243 1331 166 781 166 
L 589 166 
L 589 0 
C 896 6 1216 12 1523 12 
C 1830 12 2150 6 2458 0 
L 2458 166 
L 2266 166 
C 1715 166 1702 236 1702 467 
L 1702 4083 
z
" transform="scale(0.015625)"/>
       </defs>
       <use xlink:href="#CMR17-31" transform="scale(0.996264)"/>
      </g>
     </g>
    </g>
    <g id="xtick_2">
     <g id="line2d_2">
      <g>
       <use xlink:href="#m3d127f46a2" x="196.075102" y="307.584" style="stroke: #000000; stroke-width: 0.8"/>
      </g>
     </g>
     <g id="text_2">
      <!-- $\mathdefault{2}$ -->
      <g transform="translate(192.660858 324.269876)scale(0.14 -0.14)">
       <defs>
        <path id="CMR17-32" d="M 2669 990 
L 2554 990 
C 2490 537 2438 460 2413 422 
C 2381 371 1920 371 1830 371 
L 602 371 
C 832 620 1280 1073 1824 1596 
C 2214 1966 2669 2400 2669 3033 
C 2669 3788 2067 4224 1395 4224 
C 691 4224 262 3603 262 3027 
C 262 2777 448 2745 525 2745 
C 589 2745 781 2783 781 3007 
C 781 3206 614 3264 525 3264 
C 486 3264 448 3257 422 3244 
C 544 3788 915 4057 1306 4057 
C 1862 4057 2227 3616 2227 3033 
C 2227 2477 1901 1998 1536 1583 
L 262 147 
L 262 0 
L 2515 0 
L 2669 990 
z
" transform="scale(0.015625)"/>
       </defs>
       <use xlink:href="#CMR17-32" transform="scale(0.996264)"/>
      </g>
     </g>
    </g>
    <g id="xtick_3">
     <g id="line2d_3">
      <g>
       <use xlink:href="#m3d127f46a2" x="268.956735" y="307.584" style="stroke: #000000; stroke-width: 0.8"/>
      </g>
     </g>
     <g id="text_3">
      <!-- $\mathdefault{3}$ -->
      <g transform="translate(265.54249 324.269876)scale(0.14 -0.14)">
       <defs>
        <path id="CMR17-33" d="M 1414 2176 
C 1984 2176 2234 1673 2234 1094 
C 2234 322 1824 25 1453 25 
C 1114 25 563 193 390 691 
C 422 678 454 678 486 678 
C 640 678 755 780 755 947 
C 755 1132 614 1216 486 1216 
C 378 1216 211 1164 211 927 
C 211 335 787 -128 1466 -128 
C 2176 -128 2720 432 2720 1087 
C 2720 1718 2208 2176 1600 2246 
C 2086 2347 2554 2776 2554 3353 
C 2554 3856 2048 4224 1472 4224 
C 890 4224 378 3862 378 3347 
C 378 3123 544 3084 627 3084 
C 762 3084 877 3167 877 3334 
C 877 3500 762 3584 627 3584 
C 602 3584 570 3584 544 3571 
C 730 3999 1235 4076 1459 4076 
C 1683 4076 2106 3966 2106 3347 
C 2106 3167 2080 2851 1862 2574 
C 1670 2329 1453 2316 1242 2297 
C 1210 2297 1062 2284 1037 2284 
C 992 2278 966 2272 966 2227 
C 966 2182 973 2176 1101 2176 
L 1414 2176 
z
" transform="scale(0.015625)"/>
       </defs>
       <use xlink:href="#CMR17-33" transform="scale(0.996264)"/>
      </g>
     </g>
    </g>
    <g id="xtick_4">
     <g id="line2d_4">
      <g>
       <use xlink:href="#m3d127f46a2" x="341.838367" y="307.584" style="stroke: #000000; stroke-width: 0.8"/>
      </g>
     </g>
     <g id="text_4">
      <!-- $\mathdefault{4}$ -->
      <g transform="translate(338.424123 324.269876)scale(0.14 -0.14)">
       <defs>
        <path id="CMR17-34" d="M 2150 4147 
C 2150 4281 2144 4288 2029 4288 
L 128 1254 
L 128 1088 
L 1779 1088 
L 1779 460 
C 1779 230 1766 166 1318 166 
L 1197 166 
L 1197 0 
C 1402 12 1747 12 1965 12 
C 2182 12 2528 12 2733 0 
L 2733 166 
L 2611 166 
C 2163 166 2150 230 2150 460 
L 2150 1088 
L 2803 1088 
L 2803 1254 
L 2150 1254 
L 2150 4147 
z
M 1798 3723 
L 1798 1254 
L 256 1254 
L 1798 3723 
z
" transform="scale(0.015625)"/>
       </defs>
       <use xlink:href="#CMR17-34" transform="scale(0.996264)"/>
      </g>
     </g>
    </g>
    <g id="xtick_5">
     <g id="line2d_5">
      <g>
       <use xlink:href="#m3d127f46a2" x="414.72" y="307.584" style="stroke: #000000; stroke-width: 0.8"/>
      </g>
     </g>
     <g id="text_5">
      <!-- $\mathdefault{5}$ -->
      <g transform="translate(411.305756 324.269876)scale(0.14 -0.14)">
       <defs>
        <path id="CMR17-35" d="M 730 3750 
C 794 3724 1056 3641 1325 3641 
C 1920 3641 2246 3961 2432 4140 
C 2432 4191 2432 4224 2394 4224 
C 2387 4224 2374 4224 2323 4198 
C 2099 4102 1837 4032 1517 4032 
C 1325 4032 1037 4055 723 4191 
C 653 4224 640 4224 634 4224 
C 602 4224 595 4217 595 4090 
L 595 2231 
C 595 2113 595 2080 659 2080 
C 691 2080 704 2093 736 2139 
C 941 2435 1222 2560 1542 2560 
C 1766 2560 2246 2415 2246 1293 
C 2246 1087 2246 716 2054 422 
C 1894 159 1645 25 1370 25 
C 947 25 518 319 403 812 
C 429 806 480 793 506 793 
C 589 793 749 838 749 1036 
C 749 1209 627 1280 506 1280 
C 358 1280 262 1190 262 1011 
C 262 454 704 -128 1382 -128 
C 2042 -128 2669 441 2669 1267 
C 2669 2054 2170 2662 1549 2662 
C 1222 2662 947 2540 730 2304 
L 730 3750 
z
" transform="scale(0.015625)"/>
       </defs>
       <use xlink:href="#CMR17-35" transform="scale(0.996264)"/>
      </g>
     </g>
    </g>
    <g id="text_6">
     <!-- x (cm) -->
     <g transform="translate(216.243575 341.442677)scale(0.14 -0.14)">
      <defs>
       <path id="CMR17-78" d="M 1664 1491 
C 1856 1740 2074 2022 2253 2233 
C 2464 2476 2707 2579 2989 2585 
L 2989 2752 
C 2880 2745 2656 2739 2541 2739 
C 2368 2739 2170 2739 2022 2752 
L 2022 2585 
C 2112 2572 2163 2508 2163 2419 
C 2163 2304 2099 2233 2067 2188 
L 1594 1587 
L 1030 2323 
C 973 2393 973 2406 973 2438 
C 973 2515 1037 2579 1146 2585 
L 1146 2752 
C 992 2739 717 2739 557 2739 
C 384 2739 179 2739 38 2752 
L 38 2585 
C 384 2585 461 2560 614 2368 
L 1350 1414 
C 1363 1401 1395 1363 1395 1344 
C 1395 1318 838 633 768 544 
C 480 198 179 172 6 166 
L 6 0 
C 115 6 339 12 454 12 
C 582 12 864 12 979 0 
L 979 166 
C 941 172 838 185 838 332 
C 838 448 890 518 947 595 
L 1478 1248 
L 2035 524 
C 2086 454 2163 358 2163 313 
C 2163 224 2086 172 1984 166 
L 1984 0 
C 2138 12 2413 12 2573 12 
C 2746 12 2950 12 3091 0 
L 3091 166 
C 2771 166 2675 179 2522 377 
L 1664 1491 
z
" transform="scale(0.015625)"/>
       <path id="CMR17-28" d="M 1958 -1562 
C 1958 -1556 1958 -1543 1939 -1524 
C 1645 -1223 858 -403 858 1596 
C 858 3595 1632 4408 1946 4729 
C 1946 4735 1958 4748 1958 4767 
C 1958 4787 1939 4800 1914 4800 
C 1843 4800 1299 4325 986 3620 
C 666 2909 576 2218 576 1603 
C 576 1141 621 360 1005 -467 
C 1312 -1133 1837 -1600 1914 -1600 
C 1946 -1600 1958 -1588 1958 -1562 
z
" transform="scale(0.015625)"/>
       <path id="CMR17-63" d="M 2234 2240 
C 2112 2240 1933 2240 1933 2015 
C 1933 1836 2080 1785 2163 1785 
C 2208 1785 2394 1804 2394 2028 
C 2394 2476 1958 2816 1466 2816 
C 787 2816 211 2201 211 1379 
C 211 521 813 -64 1466 -64 
C 2259 -64 2458 676 2458 747 
C 2458 773 2451 792 2406 792 
C 2362 792 2355 786 2330 702 
C 2163 180 1798 51 1523 51 
C 1114 51 621 431 621 1385 
C 621 2358 1094 2700 1472 2700 
C 1722 2700 2093 2582 2234 2240 
z
" transform="scale(0.015625)"/>
       <path id="CMR17-6d" d="M 4326 1954 
C 4326 2276 4269 2816 3507 2816 
C 3072 2816 2771 2520 2656 2173 
L 2650 2173 
C 2573 2700 2195 2816 1837 2816 
C 1331 2816 1069 2424 973 2166 
L 966 2166 
L 966 2816 
L 211 2745 
L 211 2578 
C 589 2578 646 2540 646 2231 
L 646 443 
C 646 198 621 166 211 166 
L 211 0 
C 365 12 646 12 813 12 
C 979 12 1267 12 1421 0 
L 1421 166 
C 1011 166 986 192 986 443 
L 986 1678 
C 986 2269 1344 2713 1792 2713 
C 2266 2713 2317 2289 2317 1980 
L 2317 443 
C 2317 198 2291 166 1882 166 
L 1882 0 
C 2035 12 2317 12 2483 12 
C 2650 12 2938 12 3091 0 
L 3091 166 
C 2682 166 2656 192 2656 443 
L 2656 1678 
C 2656 2269 3014 2713 3462 2713 
C 3936 2713 3987 2289 3987 1980 
L 3987 443 
C 3987 198 3962 166 3552 166 
L 3552 0 
C 3706 12 3987 12 4154 12 
C 4320 12 4608 12 4762 0 
L 4762 166 
C 4352 166 4326 192 4326 443 
L 4326 1954 
z
" transform="scale(0.015625)"/>
       <path id="CMR17-29" d="M 1683 1596 
C 1683 2057 1638 2839 1254 3665 
C 947 4332 422 4800 346 4800 
C 326 4800 301 4793 301 4761 
C 301 4748 307 4742 314 4729 
C 621 4408 1402 3595 1402 1603 
C 1402 -396 627 -1210 314 -1530 
C 307 -1543 301 -1549 301 -1562 
C 301 -1594 326 -1600 346 -1600 
C 416 -1600 960 -1127 1274 -422 
C 1594 289 1683 981 1683 1596 
z
" transform="scale(0.015625)"/>
      </defs>
      <use xlink:href="#CMR17-78" transform="scale(0.996264)"/>
      <use xlink:href="#CMR17-28" transform="translate(78.368882 0)scale(0.996264)"/>
      <use xlink:href="#CMR17-63" transform="translate(113.64965 0)scale(0.996264)"/>
      <use xlink:href="#CMR17-6d" transform="translate(154.13531 0)scale(0.996264)"/>
      <use xlink:href="#CMR17-29" transform="translate(231.0549 0)scale(0.996264)"/>
     </g>
    </g>
   </g>
   <g id="matplotlib.axis_2">
    <g id="ytick_1">
     <g id="line2d_6">
      <defs>
       <path id="mcdead9d3a2" d="M 0 0 
L -3.5 0 
" style="stroke: #000000; stroke-width: 0.8"/>
      </defs>
      <g>
       <use xlink:href="#mcdead9d3a2" x="57.6" y="307.584" style="stroke: #000000; stroke-width: 0.8"/>
      </g>
     </g>
     <g id="text_7">
      <!-- $\mathdefault{5}$ -->
      <g transform="translate(43.771511 312.426938)scale(0.14 -0.14)">
       <use xlink:href="#CMR17-35" transform="scale(0.996264)"/>
      </g>
     </g>
    </g>
    <g id="ytick_2">
     <g id="line2d_7">
      <g>
       <use xlink:href="#mcdead9d3a2" x="57.6" y="254.3616" style="stroke: #000000; stroke-width: 0.8"/>
      </g>
     </g>
     <g id="text_8">
      <!-- $\mathdefault{10}$ -->
      <g transform="translate(36.943023 259.204538)scale(0.14 -0.14)">
       <defs>
        <path id="CMR17-30" d="M 2688 2038 
C 2688 2430 2682 3099 2413 3613 
C 2176 4063 1798 4224 1466 4224 
C 1158 4224 768 4082 525 3620 
C 269 3137 243 2539 243 2038 
C 243 1671 250 1112 448 623 
C 723 -39 1216 -128 1466 -128 
C 1760 -128 2208 -7 2470 604 
C 2662 1048 2688 1568 2688 2038 
z
M 1466 -26 
C 1056 -26 813 328 723 816 
C 653 1196 653 1749 653 2109 
C 653 2604 653 3015 736 3407 
C 858 3954 1216 4121 1466 4121 
C 1728 4121 2067 3947 2189 3420 
C 2272 3054 2278 2623 2278 2109 
C 2278 1691 2278 1176 2202 797 
C 2067 96 1690 -26 1466 -26 
z
" transform="scale(0.015625)"/>
       </defs>
       <use xlink:href="#CMR17-31" transform="scale(0.996264)"/>
       <use xlink:href="#CMR17-30" transform="translate(45.690477 0)scale(0.996264)"/>
      </g>
     </g>
    </g>
    <g id="ytick_3">
     <g id="line2d_8">
      <g>
       <use xlink:href="#mcdead9d3a2" x="57.6" y="201.1392" style="stroke: #000000; stroke-width: 0.8"/>
      </g>
     </g>
     <g id="text_9">
      <!-- $\mathdefault{15}$ -->
      <g transform="translate(36.943023 205.982138)scale(0.14 -0.14)">
       <use xlink:href="#CMR17-31" transform="scale(0.996264)"/>
       <use xlink:href="#CMR17-35" transform="translate(45.690477 0)scale(0.996264)"/>
      </g>
     </g>
    </g>
    <g id="ytick_4">
     <g id="line2d_9">
      <g>
       <use xlink:href="#mcdead9d3a2" x="57.6" y="147.9168" style="stroke: #000000; stroke-width: 0.8"/>
      </g>
     </g>
     <g id="text_10">
      <!-- $\mathdefault{20}$ -->
      <g transform="translate(36.943023 152.759738)scale(0.14 -0.14)">
       <use xlink:href="#CMR17-32" transform="scale(0.996264)"/>
       <use xlink:href="#CMR17-30" transform="translate(45.690477 0)scale(0.996264)"/>
      </g>
     </g>
    </g>
    <g id="ytick_5">
     <g id="line2d_10">
      <g>
       <use xlink:href="#mcdead9d3a2" x="57.6" y="94.6944" style="stroke: #000000; stroke-width: 0.8"/>
      </g>
     </g>
     <g id="text_11">
      <!-- $\mathdefault{25}$ -->
      <g transform="translate(36.943023 99.537338)scale(0.14 -0.14)">
       <use xlink:href="#CMR17-32" transform="scale(0.996264)"/>
       <use xlink:href="#CMR17-35" transform="translate(45.690477 0)scale(0.996264)"/>
      </g>
     </g>
    </g>
    <g id="ytick_6">
     <g id="line2d_11">
      <g>
       <use xlink:href="#mcdead9d3a2" x="57.6" y="41.472" style="stroke: #000000; stroke-width: 0.8"/>
      </g>
     </g>
     <g id="text_12">
      <!-- $\mathdefault{30}$ -->
      <g transform="translate(36.943023 46.314938)scale(0.14 -0.14)">
       <use xlink:href="#CMR17-33" transform="scale(0.996264)"/>
       <use xlink:href="#CMR17-30" transform="translate(45.690477 0)scale(0.996264)"/>
      </g>
     </g>
    </g>
    <g id="text_13">
     <!-- Capture velocity $v_c$ (m/s) -->
     <g transform="translate(29.456099 251.418387)rotate(-90)scale(0.14 -0.14)">
      <defs>
       <path id="CMR17-43" d="M 3974 4351 
C 3974 4467 3968 4473 3930 4473 
C 3904 4473 3898 4467 3853 4390 
L 3571 3849 
C 3258 4249 2874 4480 2381 4480 
C 1286 4480 294 3507 294 2179 
C 294 837 1286 -128 2387 -128 
C 3366 -128 3974 741 3974 1482 
C 3974 1547 3974 1573 3917 1573 
C 3866 1573 3866 1553 3859 1495 
C 3808 592 3168 38 2477 38 
C 1824 38 781 502 781 2179 
C 781 3862 1843 4313 2464 4313 
C 3187 4313 3712 3681 3834 2785 
C 3846 2707 3846 2695 3904 2695 
C 3974 2695 3974 2707 3974 2824 
L 3974 4351 
z
" transform="scale(0.015625)"/>
       <path id="CMR17-61" d="M 2304 1656 
C 2304 2048 2304 2275 2035 2534 
C 1798 2751 1523 2816 1306 2816 
C 800 2816 435 2408 435 1977 
C 435 1740 627 1728 666 1728 
C 749 1728 896 1779 896 1958 
C 896 2118 774 2188 666 2188 
C 640 2188 608 2182 589 2176 
C 723 2594 1069 2713 1293 2713 
C 1613 2713 1965 2421 1965 1875 
L 1965 1632 
C 1587 1619 1133 1568 774 1373 
C 371 1147 256 822 256 576 
C 256 77 832 -64 1171 -64 
C 1523 -64 1850 135 1990 505 
C 2003 219 2182 -39 2464 -39 
C 2598 -39 2938 51 2938 563 
L 2938 926 
L 2822 926 
L 2822 557 
C 2822 161 2650 109 2566 109 
C 2304 109 2304 446 2304 732 
L 2304 1656 
z
M 1965 887 
C 1965 323 1568 38 1216 38 
C 896 38 646 278 646 576 
C 646 771 730 1114 1101 1322 
C 1408 1497 1760 1523 1965 1536 
L 1965 887 
z
" transform="scale(0.015625)"/>
       <path id="CMR17-70" d="M 1408 -1114 
C 998 -1114 973 -1088 973 -834 
L 973 380 
C 1158 109 1427 -64 1766 -64 
C 2406 -64 3053 503 3053 1382 
C 3053 2196 2496 2816 1837 2816 
C 1453 2816 1139 2603 960 2345 
L 960 2816 
L 198 2745 
L 198 2577 
C 576 2577 634 2539 634 2228 
L 634 -834 
C 634 -1081 608 -1114 198 -1114 
L 198 -1280 
C 352 -1268 634 -1268 800 -1268 
C 966 -1268 1254 -1268 1408 -1280 
L 1408 -1114 
z
M 973 2015 
C 973 2106 973 2241 1222 2481 
C 1254 2506 1472 2700 1792 2700 
C 2259 2700 2643 2112 2643 1376 
C 2643 639 2234 38 1728 38 
C 1498 38 1248 148 1056 451 
C 973 594 973 632 973 736 
L 973 2015 
z
" transform="scale(0.015625)"/>
       <path id="CMR17-74" d="M 966 2585 
L 1862 2585 
L 1862 2752 
L 966 2752 
L 966 3968 
L 851 3968 
C 838 3292 614 2700 70 2687 
L 70 2585 
L 627 2585 
L 627 778 
C 627 655 627 -64 1370 -64 
C 1747 -64 1965 308 1965 784 
L 1965 1151 
L 1850 1151 
L 1850 790 
C 1850 347 1677 51 1408 51 
C 1222 51 966 179 966 765 
L 966 2585 
z
" transform="scale(0.015625)"/>
       <path id="CMR17-75" d="M 1882 2745 
L 1882 2579 
C 2259 2579 2317 2540 2317 2229 
L 2317 1053 
C 2317 510 2029 38 1555 38 
C 1030 38 986 355 986 691 
L 986 2816 
L 211 2745 
L 211 2579 
C 467 2579 640 2579 646 2320 
L 646 1079 
C 646 646 646 368 813 187 
C 896 103 1056 -64 1517 -64 
C 2061 -64 2272 400 2323 536 
L 2330 536 
L 2330 -64 
L 3091 -13 
L 3091 154 
C 2714 154 2656 193 2656 503 
L 2656 2816 
L 1882 2745 
z
" transform="scale(0.015625)"/>
       <path id="CMR17-72" d="M 960 1517 
C 960 2134 1222 2713 1702 2713 
C 1747 2713 1792 2707 1837 2687 
C 1837 2687 1696 2642 1696 2475 
C 1696 2321 1818 2257 1914 2257 
C 1990 2257 2131 2302 2131 2482 
C 2131 2687 1926 2816 1709 2816 
C 1222 2816 1011 2340 947 2115 
L 941 2115 
L 941 2816 
L 198 2745 
L 198 2578 
C 576 2578 634 2540 634 2231 
L 634 443 
C 634 198 608 166 198 166 
L 198 0 
C 352 12 646 12 813 12 
C 998 12 1325 12 1498 0 
L 1498 166 
C 1037 166 960 166 960 455 
L 960 1517 
z
" transform="scale(0.015625)"/>
       <path id="CMR17-65" d="M 2438 1503 
C 2464 1529 2464 1542 2464 1606 
C 2464 2251 2118 2816 1389 2816 
C 710 2816 173 2175 173 1394 
C 173 554 781 -64 1459 -64 
C 2176 -64 2458 619 2458 755 
C 2458 800 2419 800 2406 800 
C 2362 800 2355 787 2330 709 
C 2189 270 1837 51 1504 51 
C 1229 51 954 206 781 490 
C 582 819 582 1200 582 1503 
L 2438 1503 
z
M 589 1600 
C 634 2511 1126 2713 1382 2713 
C 1818 2713 2112 2308 2118 1600 
L 589 1600 
z
" transform="scale(0.015625)"/>
       <path id="CMR17-76" d="M 2502 2173 
C 2560 2315 2662 2572 3034 2585 
L 3034 2752 
C 2912 2745 2752 2739 2630 2739 
C 2496 2739 2285 2739 2157 2752 
L 2157 2585 
C 2317 2572 2406 2495 2406 2328 
C 2406 2270 2406 2257 2368 2167 
L 1664 379 
L 902 2308 
C 864 2392 864 2405 864 2431 
C 864 2585 1075 2585 1171 2585 
L 1171 2752 
C 1018 2739 736 2739 576 2739 
C 403 2739 205 2739 64 2752 
L 64 2585 
C 307 2585 442 2585 518 2386 
L 1446 44 
C 1485 -52 1491 -64 1549 -64 
C 1606 -64 1613 -52 1651 44 
L 2502 2173 
z
" transform="scale(0.015625)"/>
       <path id="CMR17-6c" d="M 979 4416 
L 218 4345 
L 218 4179 
C 595 4179 653 4141 653 3835 
L 653 439 
C 653 198 627 166 218 166 
L 218 0 
C 371 12 653 12 813 12 
C 979 12 1261 12 1414 0 
L 1414 166 
C 1005 166 979 191 979 439 
L 979 4416 
z
" transform="scale(0.015625)"/>
       <path id="CMR17-6f" d="M 2758 1356 
C 2758 2176 2163 2816 1466 2816 
C 768 2816 173 2176 173 1356 
C 173 550 768 -64 1466 -64 
C 2163 -64 2758 550 2758 1356 
z
M 1466 51 
C 1165 51 909 230 762 480 
C 602 768 582 1126 582 1408 
C 582 1676 595 2009 762 2297 
C 890 2508 1139 2713 1466 2713 
C 1754 2713 1997 2553 2150 2329 
C 2349 2028 2349 1606 2349 1408 
C 2349 1158 2336 774 2163 467 
C 1984 172 1709 51 1466 51 
z
" transform="scale(0.015625)"/>
       <path id="CMR17-69" d="M 992 3961 
C 992 4102 877 4224 730 4224 
C 589 4224 467 4108 467 3961 
C 467 3820 582 3699 730 3699 
C 870 3699 992 3814 992 3961 
z
M 243 2745 
L 243 2579 
C 602 2579 653 2540 653 2231 
L 653 443 
C 653 198 627 166 218 166 
L 218 0 
C 371 12 646 12 806 12 
C 960 12 1222 12 1370 0 
L 1370 166 
C 992 166 979 205 979 436 
L 979 2816 
L 243 2745 
z
" transform="scale(0.015625)"/>
       <path id="CMR17-79" d="M 2496 2183 
C 2656 2579 2944 2585 3034 2585 
L 3034 2752 
C 2912 2745 2752 2739 2630 2739 
C 2496 2739 2285 2739 2157 2752 
L 2157 2585 
C 2400 2566 2406 2384 2406 2332 
C 2406 2268 2394 2235 2362 2158 
L 1664 409 
L 902 2300 
C 870 2378 870 2423 870 2430 
C 870 2572 1018 2585 1171 2585 
L 1171 2752 
C 1018 2739 742 2739 582 2739 
C 410 2739 205 2739 64 2752 
L 64 2585 
C 410 2585 448 2553 531 2345 
L 1485 -31 
C 1197 -795 1030 -1242 627 -1242 
C 557 -1242 397 -1223 282 -1106 
C 429 -1093 493 -1002 493 -892 
C 493 -782 416 -685 288 -685 
C 147 -685 77 -782 77 -899 
C 77 -1158 339 -1344 627 -1344 
C 998 -1344 1229 -983 1357 -659 
L 2496 2183 
z
" transform="scale(0.015625)"/>
       <path id="CMMI12-76" d="M 2925 2388 
C 2925 2790 2720 2816 2669 2816 
C 2515 2816 2374 2662 2374 2534 
C 2374 2458 2419 2413 2445 2388 
C 2509 2330 2675 2158 2675 1826 
C 2675 1558 2291 64 1523 64 
C 1133 64 1056 389 1056 625 
C 1056 945 1203 1392 1376 1851 
C 1478 2113 1504 2177 1504 2305 
C 1504 2573 1312 2816 998 2816 
C 410 2816 173 1890 173 1838 
C 173 1813 198 1781 243 1781 
C 301 1781 307 1807 333 1896 
C 486 2445 736 2687 979 2687 
C 1037 2687 1146 2687 1146 2477 
C 1146 2311 1075 2126 979 1883 
C 672 1066 672 868 672 715 
C 672 574 691 313 890 134 
C 1120 -64 1440 -64 1498 -64 
C 2560 -64 2925 2024 2925 2388 
z
" transform="scale(0.015625)"/>
       <path id="CMMI12-63" d="M 2502 2432 
C 2381 2432 2323 2432 2234 2355 
C 2195 2323 2125 2227 2125 2124 
C 2125 1996 2221 1919 2342 1919 
C 2496 1919 2669 2047 2669 2303 
C 2669 2591 2374 2816 1933 2816 
C 1094 2816 256 1932 256 1011 
C 256 446 602 -64 1254 -64 
C 2125 -64 2675 622 2675 706 
C 2675 745 2637 777 2611 777 
C 2592 777 2586 771 2528 712 
C 2118 161 1510 64 1267 64 
C 826 64 685 453 685 777 
C 685 1004 794 1634 1024 2073 
C 1190 2374 1536 2687 1939 2687 
C 2022 2687 2374 2676 2502 2432 
z
" transform="scale(0.015625)"/>
       <path id="CMR17-2f" d="M 2605 4575 
C 2637 4658 2637 4671 2637 4684 
C 2637 4761 2579 4800 2528 4800 
C 2451 4800 2426 4748 2400 4671 
L 326 -1376 
C 294 -1460 294 -1472 294 -1485 
C 294 -1562 352 -1600 403 -1600 
C 480 -1600 506 -1549 531 -1472 
L 2605 4575 
z
" transform="scale(0.015625)"/>
       <path id="CMR17-73" d="M 1978 2688 
C 1978 2803 1971 2809 1933 2809 
C 1907 2809 1901 2803 1824 2707 
C 1805 2681 1747 2617 1728 2592 
C 1523 2809 1235 2816 1126 2816 
C 416 2816 160 2444 160 2073 
C 160 1497 813 1363 998 1324 
C 1402 1241 1542 1216 1677 1100 
C 1760 1024 1901 883 1901 652 
C 1901 384 1747 38 1158 38 
C 602 38 403 460 288 1024 
C 269 1113 269 1120 218 1120 
C 166 1120 160 1113 160 985 
L 160 64 
C 160 -52 166 -58 205 -58 
C 237 -58 243 -52 275 0 
C 314 57 410 211 448 275 
C 576 102 800 -64 1158 -64 
C 1792 -64 2131 281 2131 780 
C 2131 1107 1958 1280 1875 1356 
C 1683 1555 1459 1600 1190 1651 
C 838 1728 390 1817 390 2208 
C 390 2374 480 2726 1126 2726 
C 1811 2726 1850 2086 1862 1881 
C 1869 1849 1901 1843 1920 1843 
C 1978 1843 1978 1862 1978 1971 
L 1978 2688 
z
" transform="scale(0.015625)"/>
      </defs>
      <use xlink:href="#CMR17-43" transform="scale(0.996264)"/>
      <use xlink:href="#CMR17-61" transform="translate(66.509881 0)scale(0.996264)"/>
      <use xlink:href="#CMR17-70" transform="translate(112.200358 0)scale(0.996264)"/>
      <use xlink:href="#CMR17-74" transform="translate(163.095727 0)scale(0.996264)"/>
      <use xlink:href="#CMR17-75" transform="translate(198.376495 0)scale(0.996264)"/>
      <use xlink:href="#CMR17-72" transform="translate(249.271865 0)scale(0.996264)"/>
      <use xlink:href="#CMR17-65" transform="translate(284.552633 0)scale(0.996264)"/>
      <use xlink:href="#CMR17-76" transform="translate(355.11426 0)scale(0.996264)"/>
      <use xlink:href="#CMR17-65" transform="translate(400.804722 0)scale(0.996264)"/>
      <use xlink:href="#CMR17-6c" transform="translate(441.290382 0)scale(0.996264)"/>
      <use xlink:href="#CMR17-6f" transform="translate(466.16144 0)scale(0.996264)"/>
      <use xlink:href="#CMR17-63" transform="translate(514.454356 0)scale(0.996264)"/>
      <use xlink:href="#CMR17-69" transform="translate(554.940017 0)scale(0.996264)"/>
      <use xlink:href="#CMR17-74" transform="translate(579.811075 0)scale(0.996264)"/>
      <use xlink:href="#CMR17-79" transform="translate(612.489389 0)scale(0.996264)"/>
      <use xlink:href="#CMMI12-76" transform="translate(690.858271 0)scale(0.996264)"/>
      <use xlink:href="#CMMI12-63" transform="translate(738.018852 -14.943915)scale(0.697382)"/>
      <use xlink:href="#CMR17-28" transform="translate(797.981082 0)scale(0.996264)"/>
      <use xlink:href="#CMR17-6d" transform="translate(833.261849 0)scale(0.996264)"/>
      <use xlink:href="#CMR17-2f" transform="translate(910.181439 0)scale(0.996264)"/>
      <use xlink:href="#CMR17-73" transform="translate(955.871916 0)scale(0.996264)"/>
      <use xlink:href="#CMR17-29" transform="translate(991.673254 0)scale(0.996264)"/>
     </g>
    </g>
   </g>
   <g id="line2d_12">
    <path d="M 57.6 310.787801 
L 64.888163 271.834629 
L 72.176327 251.042327 
L 79.46449 237.993825 
L 86.752653 228.483209 
L 94.040816 220.960605 
L 101.32898 214.692949 
L 108.617143 209.31146 
L 115.905306 204.583441 
L 123.193469 200.346452 
L 130.481633 196.50634 
L 137.769796 192.992012 
L 145.057959 189.748886 
L 152.346122 186.730967 
L 159.634286 183.902901 
L 166.922449 181.24336 
L 174.210612 178.733371 
L 181.498776 176.355151 
L 188.786939 174.094908 
L 196.075102 171.940166 
L 203.363265 169.879173 
L 210.651429 167.901039 
L 217.939592 165.999464 
L 225.227755 164.169316 
L 232.515918 162.405667 
L 239.804082 160.703099 
L 247.092245 159.057399 
L 254.380408 157.464603 
L 261.668571 155.92123 
L 268.956735 154.423856 
L 276.244898 152.969344 
L 283.533061 151.554735 
L 290.821224 150.176473 
L 298.109388 148.832458 
L 305.397551 147.52116 
L 312.685714 146.241205 
L 319.973878 144.991341 
L 327.262041 143.770244 
L 334.550204 142.57631 
L 341.838367 141.408349 
L 349.126531 140.265158 
L 356.414694 139.145648 
L 363.702857 138.048849 
L 370.99102 136.9737 
L 378.279184 135.919363 
L 385.567347 134.884862 
L 392.85551 133.869443 
L 400.143673 132.8722 
L 407.431837 131.89236 
L 414.72 130.929141 
L 422.008163 129.981406 
L 429.296327 129.048533 
L 436.58449 128.130096 
L 443.872653 127.225716 
L 451.160816 126.335003 
L 458.44898 125.457607 
L 461.8 125.060163 
" clip-path="url(#pb18e0a186d)" style="fill: none; stroke: #1f77b4; stroke-width: 1.5; stroke-linecap: square"/>
   </g>
   <g id="line2d_13">
    <path d="M 57.6 306.303963 
L 64.888163 264.953895 
L 72.176327 244.099661 
L 79.46449 231.280403 
L 86.752653 221.95914 
L 94.040816 214.579472 
L 101.32898 208.363165 
L 108.617143 202.949012 
L 115.905306 198.095308 
L 123.193469 193.597036 
L 130.481633 189.571162 
L 137.769796 185.706625 
L 145.057959 181.994173 
L 152.346122 178.452152 
L 159.634286 175.133321 
L 166.922449 171.875359 
L 174.210612 168.712655 
L 181.498776 165.618871 
L 188.786939 162.583224 
L 196.075102 159.640256 
L 203.363265 156.682937 
L 210.651429 153.814433 
L 217.939592 150.917183 
L 225.227755 148.06074 
L 232.515918 145.206585 
L 239.804082 142.356397 
L 247.092245 139.492537 
L 254.380408 136.703204 
L 261.668571 133.903412 
L 268.956735 131.09552 
L 276.244898 128.285819 
L 283.533061 125.460331 
L 290.821224 122.652811 
L 298.109388 119.849256 
L 305.397551 117.033275 
L 312.685714 114.20534 
L 319.973878 111.423103 
L 327.262041 108.630668 
L 334.550204 105.834108 
L 341.838367 103.028428 
L 349.126531 100.206468 
L 356.414694 97.373623 
L 363.702857 94.552747 
L 370.99102 91.715019 
L 378.279184 88.87172 
L 385.567347 86.022839 
L 392.85551 83.168256 
L 400.143673 80.307671 
L 407.431837 77.440759 
L 414.72 74.567 
L 422.008163 71.672075 
L 429.296327 68.777256 
L 436.58449 65.873587 
L 443.872653 62.960669 
L 451.160816 60.042046 
L 458.44898 57.121866 
L 461.8 55.778488 
" clip-path="url(#pb18e0a186d)" style="fill: none; stroke: #ff7f0e; stroke-width: 1.5; stroke-linecap: square"/>
   </g>
   <g id="line2d_14">
    <path d="M 57.6 303.586596 
L 64.888163 260.972451 
L 72.176327 240.317139 
L 79.46449 227.572795 
L 86.752653 218.099667 
L 94.040816 210.327044 
L 101.32898 203.433947 
L 108.617143 197.115918 
L 115.905306 191.188286 
L 123.193469 185.429695 
L 130.481633 179.818332 
L 137.769796 174.299242 
L 145.057959 168.889007 
L 152.346122 163.475262 
L 159.634286 158.121775 
L 166.922449 152.75776 
L 174.210612 147.392808 
L 181.498776 142.039783 
L 188.786939 136.691714 
L 196.075102 131.348994 
L 203.363265 126.01493 
L 210.651429 120.695178 
L 217.939592 115.392122 
L 225.227755 110.111597 
L 232.515918 104.859689 
L 239.804082 99.675646 
L 247.092245 94.462596 
L 254.380408 89.279831 
L 261.668571 84.14567 
L 268.956735 79.074495 
L 276.244898 74.075028 
L 283.533061 69.117446 
L 290.821224 64.21428 
L 298.109388 59.495478 
L 305.397551 54.916849 
L 312.685714 50.413769 
L 319.973878 46.063108 
L 327.262041 41.910235 
L 334.550204 37.971975 
L 341.838367 34.265347 
L 349.126531 30.768724 
L 356.414694 27.520388 
L 363.702857 24.702992 
L 370.99102 22.235321 
L 378.279184 20.086612 
L 385.567347 18.301038 
L 392.85551 16.913735 
L 400.143673 15.966742 
L 407.431837 15.395085 
L 414.72 15.265043 
L 422.008163 15.79915 
L 429.296327 16.96157 
L 436.58449 18.749882 
L 443.872653 21.25451 
L 451.160816 24.5776 
L 458.44898 27.850475 
L 461.8 29.640486 
" clip-path="url(#pb18e0a186d)" style="fill: none; stroke: #2ca02c; stroke-width: 1.5; stroke-linecap: square"/>
   </g>
   <g id="line2d_15">
    <path d="M 57.6 301.455433 
L 64.888163 258.147198 
L 72.176327 237.692559 
L 79.46449 224.930377 
L 86.752653 214.91647 
L 94.040816 206.081194 
L 101.32898 197.890606 
L 108.617143 190.018205 
L 115.905306 182.366661 
L 123.193469 174.937431 
L 130.481633 167.576876 
L 137.769796 160.338493 
L 145.057959 153.352993 
L 152.346122 146.540902 
L 159.634286 139.971611 
L 166.922449 133.72369 
L 174.210612 127.820769 
L 181.498776 122.393336 
L 188.786939 117.524899 
L 196.075102 113.292949 
L 203.363265 109.735582 
L 210.651429 107.026505 
L 217.939592 105.119969 
L 225.227755 104.10344 
L 232.515918 104.003901 
L 239.804082 104.795971 
L 247.092245 107.596308 
L 254.380408 110.669592 
L 261.668571 115.337819 
L 268.956735 121.057734 
L 276.244898 126.555017 
L 283.533061 131.305178 
L 290.821224 133.858319 
L 298.109388 136.818383 
L 305.397551 139.850739 
L 312.685714 141.600663 
L 319.973878 142.907673 
L 327.262041 144.06587 
L 334.550204 145.01236 
L 341.838367 145.099778 
L 349.126531 146.511074 
L 356.414694 147.106962 
L 363.702857 147.62207 
L 370.99102 147.987963 
L 378.279184 148.381812 
L 385.567347 148.826937 
L 392.85551 148.705958 
L 400.143673 149.307343 
L 407.431837 149.560326 
L 414.72 149.777822 
L 422.008163 149.9919 
L 429.296327 150.14375 
L 436.58449 150.345726 
L 443.872653 150.225858 
L 451.160816 149.871222 
L 458.44898 150.659485 
L 461.8 150.71503 
" clip-path="url(#pb18e0a186d)" style="fill: none; stroke: #d62728; stroke-width: 1.5; stroke-linecap: square"/>
   </g>
   <g id="line2d_16">
    <path d="M 57.6 299.667314 
L 64.888163 256.178327 
L 72.176327 236.128702 
L 79.46449 222.91809 
L 86.752653 212.08917 
L 94.040816 202.282573 
L 101.32898 193.11733 
L 108.617143 184.518601 
L 115.905306 176.557622 
L 123.193469 169.390033 
L 130.481633 163.180637 
L 137.769796 158.084059 
L 145.057959 154.26587 
L 152.346122 151.844765 
L 159.634286 150.885359 
L 166.922449 151.551249 
L 174.210612 153.93841 
L 181.498776 158.765509 
L 188.786939 165.390236 
L 196.075102 172.217551 
L 203.363265 177.748666 
L 210.651429 181.74017 
L 217.939592 184.619439 
L 225.227755 186.656652 
L 232.515918 188.256873 
L 239.804082 189.507927 
L 247.092245 190.256245 
L 254.380408 191.288944 
L 261.668571 191.90389 
L 268.956735 192.425771 
L 276.244898 192.896457 
L 283.533061 192.653402 
L 290.821224 193.614546 
L 298.109388 193.86829 
L 305.397551 194.108386 
L 312.685714 194.335695 
L 319.973878 194.576772 
L 327.262041 194.712118 
L 334.550204 194.802225 
L 341.838367 194.9666 
L 349.126531 195.069457 
L 356.414694 195.20441 
L 363.702857 194.830961 
L 370.99102 195.395392 
L 378.279184 195.446405 
L 385.567347 195.518383 
L 392.85551 195.573588 
L 400.143673 195.652726 
L 407.431837 195.756864 
L 414.72 195.762581 
L 422.008163 195.805893 
L 429.296327 195.822809 
L 436.58449 195.864233 
L 443.872653 195.902696 
L 451.160816 195.943534 
L 458.44898 195.997331 
L 461.8 196.03649 
" clip-path="url(#pb18e0a186d)" style="fill: none; stroke: #9467bd; stroke-width: 1.5; stroke-linecap: square"/>
   </g>
   <g id="line2d_17">
    <path d="M 57.6 298.143964 
L 64.888163 255.053258 
L 72.176327 235.300526 
L 79.46449 221.967793 
L 86.752653 210.914071 
L 94.040816 201.366271 
L 101.32898 193.390016 
L 108.617143 187.197237 
L 115.905306 182.990323 
L 123.193469 180.906063 
L 130.481633 181.153037 
L 137.769796 183.94596 
L 145.057959 189.948734 
L 152.346122 198.02441 
L 159.634286 205.040247 
L 166.922449 209.253614 
L 174.210612 213.130329 
L 181.498776 215.288726 
L 188.786939 216.524659 
L 196.075102 218.098084 
L 203.363265 218.982121 
L 210.651429 219.741157 
L 217.939592 219.777843 
L 225.227755 220.739629 
L 232.515918 221.081052 
L 239.804082 221.449955 
L 247.092245 221.126254 
L 254.380408 221.900429 
L 261.668571 222.069019 
L 268.956735 222.282214 
L 276.244898 221.854549 
L 283.533061 222.520762 
L 290.821224 222.622299 
L 298.109388 222.693857 
L 305.397551 222.678522 
L 312.685714 222.89294 
L 319.973878 222.954751 
L 327.262041 223.001051 
L 334.550204 223.024328 
L 341.838367 223.153136 
L 349.126531 222.747718 
L 356.414694 223.210564 
L 363.702857 223.257975 
L 370.99102 223.266761 
L 378.279184 223.290841 
L 385.567347 223.350589 
L 392.85551 223.274054 
L 400.143673 222.875194 
L 407.431837 223.418073 
L 414.72 223.441236 
L 422.008163 223.452021 
L 429.296327 223.454732 
L 436.58449 223.452201 
L 443.872653 223.534015 
L 451.160816 223.367895 
L 458.44898 223.031698 
L 461.8 223.269853 
" clip-path="url(#pb18e0a186d)" style="fill: none; stroke: #8c564b; stroke-width: 1.5; stroke-linecap: square"/>
   </g>
   <g id="patch_3">
    <path d="M 57.6 307.584 
L 57.6 41.472 
" style="fill: none; stroke: #000000; stroke-width: 0.8; stroke-linejoin: miter; stroke-linecap: square"/>
   </g>
   <g id="patch_4">
    <path d="M 414.72 307.584 
L 414.72 41.472 
" style="fill: none; stroke: #000000; stroke-width: 0.8; stroke-linejoin: miter; stroke-linecap: square"/>
   </g>
   <g id="patch_5">
    <path d="M 57.6 307.584 
L 414.72 307.584 
" style="fill: none; stroke: #000000; stroke-width: 0.8; stroke-linejoin: miter; stroke-linecap: square"/>
   </g>
   <g id="patch_6">
    <path d="M 57.6 41.472 
L 414.72 41.472 
" style="fill: none; stroke: #000000; stroke-width: 0.8; stroke-linejoin: miter; stroke-linecap: square"/>
   </g>
   <g id="legend_1">
    <g id="patch_7">
     <path d="M 264.619606 300.584 
L 404.92 300.584 
Q 407.72 300.584 407.72 297.784 
L 407.72 173.497823 
Q 407.72 170.697823 404.92 170.697823 
L 264.619606 170.697823 
Q 261.819606 170.697823 261.819606 173.497823 
L 261.819606 297.784 
Q 261.819606 300.584 264.619606 300.584 
z
" style="fill: #ffffff; opacity: 0.8; stroke: #cccccc; stroke-linejoin: miter"/>
    </g>
    <g id="line2d_18">
     <path d="M 267.419606 181.858595 
L 281.419606 181.858595 
L 295.419606 181.858595 
" style="fill: none; stroke: #1f77b4; stroke-width: 1.5; stroke-linecap: square"/>
    </g>
    <g id="text_14">
     <!-- B = 0.00G/cm -->
     <g transform="translate(306.619606 186.758595)scale(0.14 -0.14)">
      <defs>
       <path id="CMR17-42" d="M 333 4352 
L 333 4185 
C 774 4185 845 4185 845 3897 
L 845 451 
C 845 166 774 166 333 166 
L 333 0 
L 2534 0 
C 3354 0 3885 578 3885 1155 
C 3885 1726 3360 2214 2675 2259 
C 3290 2380 3718 2790 3718 3276 
C 3718 3808 3194 4352 2368 4352 
L 333 4352 
z
M 1248 2304 
L 1248 3936 
C 1248 4153 1261 4185 1517 4185 
L 2336 4185 
C 2970 4185 3251 3673 3251 3276 
C 3251 2790 2861 2304 2170 2304 
L 1248 2304 
z
M 1517 166 
C 1261 166 1248 198 1248 413 
L 1248 2201 
L 2432 2201 
C 3091 2201 3411 1624 3411 1161 
C 3411 698 3046 166 2349 166 
L 1517 166 
z
" transform="scale(0.015625)"/>
       <path id="CMR17-3d" d="M 4115 2048 
C 4211 2048 4307 2048 4307 2156 
C 4307 2272 4198 2272 4090 2272 
L 512 2272 
C 403 2272 294 2272 294 2156 
C 294 2048 390 2048 486 2048 
L 4115 2048 
z
M 4090 927 
C 4198 927 4307 927 4307 1043 
C 4307 1152 4211 1152 4115 1152 
L 486 1152 
C 390 1152 294 1152 294 1043 
C 294 927 403 927 512 927 
L 4090 927 
z
" transform="scale(0.015625)"/>
       <path id="CMR17-2e" d="M 1062 262 
C 1062 422 934 524 800 524 
C 672 524 538 422 538 262 
C 538 102 666 0 800 0 
C 928 0 1062 102 1062 262 
z
" transform="scale(0.015625)"/>
       <path id="CMR17-47" d="M 3974 1258 
C 3974 1503 3994 1536 4390 1536 
L 4390 1702 
C 4237 1689 3891 1689 3718 1689 
C 3539 1689 3040 1696 2797 1702 
L 2797 1536 
L 2989 1536 
C 3539 1536 3552 1464 3552 1232 
L 3552 806 
C 3552 96 2720 38 2522 38 
C 1862 38 781 496 781 2179 
C 781 3862 1843 4313 2464 4313 
C 3187 4313 3712 3681 3834 2785 
C 3846 2708 3846 2695 3904 2695 
C 3974 2695 3974 2708 3974 2824 
L 3974 4351 
C 3974 4467 3968 4473 3930 4473 
C 3904 4473 3898 4467 3853 4390 
L 3571 3849 
C 3258 4249 2874 4480 2381 4480 
C 1286 4480 294 3507 294 2179 
C 294 858 1267 -128 2394 -128 
C 2912 -128 3418 57 3616 425 
C 3725 161 3904 -20 3936 -20 
C 3968 -20 3974 -13 3974 102 
L 3974 1258 
z
" transform="scale(0.015625)"/>
      </defs>
      <use xlink:href="#CMR17-42" transform="scale(0.996264)"/>
      <use xlink:href="#CMR17-3d" transform="translate(95.264721 0)scale(0.996264)"/>
      <use xlink:href="#CMR17-30" transform="translate(197.055476 0)scale(0.996264)"/>
      <use xlink:href="#CMR17-2e" transform="translate(242.745953 0)scale(0.996264)"/>
      <use xlink:href="#CMR17-30" transform="translate(267.617011 0)scale(0.996264)"/>
      <use xlink:href="#CMR17-30" transform="translate(313.307488 0)scale(0.996264)"/>
      <use xlink:href="#CMR17-47" transform="translate(358.997965 0)scale(0.996264)"/>
      <use xlink:href="#CMR17-2f" transform="translate(431.353311 0)scale(0.996264)"/>
      <use xlink:href="#CMR17-63" transform="translate(477.043788 0)scale(0.996264)"/>
      <use xlink:href="#CMR17-6d" transform="translate(517.529449 0)scale(0.996264)"/>
     </g>
    </g>
    <g id="line2d_19">
     <path d="M 267.419606 202.806291 
L 281.419606 202.806291 
L 295.419606 202.806291 
" style="fill: none; stroke: #ff7f0e; stroke-width: 1.5; stroke-linecap: square"/>
    </g>
    <g id="text_15">
     <!-- B = 3.00G/cm -->
     <g transform="translate(306.619606 207.706291)scale(0.14 -0.14)">
      <use xlink:href="#CMR17-42" transform="scale(0.996264)"/>
      <use xlink:href="#CMR17-3d" transform="translate(95.264721 0)scale(0.996264)"/>
      <use xlink:href="#CMR17-33" transform="translate(197.055476 0)scale(0.996264)"/>
      <use xlink:href="#CMR17-2e" transform="translate(242.745953 0)scale(0.996264)"/>
      <use xlink:href="#CMR17-30" transform="translate(267.617011 0)scale(0.996264)"/>
      <use xlink:href="#CMR17-30" transform="translate(313.307488 0)scale(0.996264)"/>
      <use xlink:href="#CMR17-47" transform="translate(358.997965 0)scale(0.996264)"/>
      <use xlink:href="#CMR17-2f" transform="translate(431.353311 0)scale(0.996264)"/>
      <use xlink:href="#CMR17-63" transform="translate(477.043788 0)scale(0.996264)"/>
      <use xlink:href="#CMR17-6d" transform="translate(517.529449 0)scale(0.996264)"/>
     </g>
    </g>
    <g id="line2d_20">
     <path d="M 267.419606 223.753988 
L 281.419606 223.753988 
L 295.419606 223.753988 
" style="fill: none; stroke: #2ca02c; stroke-width: 1.5; stroke-linecap: square"/>
    </g>
    <g id="text_16">
     <!-- B = 6.00G/cm -->
     <g transform="translate(306.619606 228.653988)scale(0.14 -0.14)">
      <defs>
       <path id="CMR17-36" d="M 678 2198 
C 678 3712 1395 4076 1811 4076 
C 1946 4076 2272 4049 2400 3782 
C 2298 3782 2106 3782 2106 3558 
C 2106 3385 2246 3328 2336 3328 
C 2394 3328 2566 3353 2566 3571 
C 2566 3987 2246 4224 1805 4224 
C 1043 4224 243 3411 243 2011 
C 243 257 966 -128 1478 -128 
C 2099 -128 2688 431 2688 1295 
C 2688 2101 2170 2688 1517 2688 
C 1126 2688 838 2430 678 1979 
L 678 2198 
z
M 1478 25 
C 691 25 691 1212 691 1450 
C 691 1914 909 2585 1504 2585 
C 1613 2585 1926 2585 2138 2140 
C 2253 1889 2253 1624 2253 1302 
C 2253 954 2253 696 2118 438 
C 1978 173 1773 25 1478 25 
z
" transform="scale(0.015625)"/>
      </defs>
      <use xlink:href="#CMR17-42" transform="scale(0.996264)"/>
      <use xlink:href="#CMR17-3d" transform="translate(95.264721 0)scale(0.996264)"/>
      <use xlink:href="#CMR17-36" transform="translate(197.055476 0)scale(0.996264)"/>
      <use xlink:href="#CMR17-2e" transform="translate(242.745953 0)scale(0.996264)"/>
      <use xlink:href="#CMR17-30" transform="translate(267.617011 0)scale(0.996264)"/>
      <use xlink:href="#CMR17-30" transform="translate(313.307488 0)scale(0.996264)"/>
      <use xlink:href="#CMR17-47" transform="translate(358.997965 0)scale(0.996264)"/>
      <use xlink:href="#CMR17-2f" transform="translate(431.353311 0)scale(0.996264)"/>
      <use xlink:href="#CMR17-63" transform="translate(477.043788 0)scale(0.996264)"/>
      <use xlink:href="#CMR17-6d" transform="translate(517.529449 0)scale(0.996264)"/>
     </g>
    </g>
    <g id="line2d_21">
     <path d="M 267.419606 244.701684 
L 281.419606 244.701684 
L 295.419606 244.701684 
" style="fill: none; stroke: #d62728; stroke-width: 1.5; stroke-linecap: square"/>
    </g>
    <g id="text_17">
     <!-- B = 9.00G/cm -->
     <g transform="translate(306.619606 249.601684)scale(0.14 -0.14)">
      <defs>
       <path id="CMR17-39" d="M 2253 1871 
C 2253 448 1670 25 1190 25 
C 1043 25 685 43 538 281 
C 704 256 826 345 826 505 
C 826 678 685 736 595 736 
C 538 736 365 710 365 492 
C 365 68 742 -128 1203 -128 
C 1939 -128 2688 665 2688 2090 
C 2688 3857 1971 4224 1485 4224 
C 851 4224 243 3664 243 2800 
C 243 2000 762 1408 1414 1408 
C 1952 1408 2189 1910 2253 2122 
L 2253 1871 
z
M 1427 1510 
C 1254 1510 1011 1542 813 1929 
C 678 2181 678 2477 678 2793 
C 678 3174 678 3438 858 3722 
C 947 3857 1114 4076 1485 4076 
C 2240 4076 2240 2909 2240 2651 
C 2240 2193 2035 1510 1427 1510 
z
" transform="scale(0.015625)"/>
      </defs>
      <use xlink:href="#CMR17-42" transform="scale(0.996264)"/>
      <use xlink:href="#CMR17-3d" transform="translate(95.264721 0)scale(0.996264)"/>
      <use xlink:href="#CMR17-39" transform="translate(197.055476 0)scale(0.996264)"/>
      <use xlink:href="#CMR17-2e" transform="translate(242.745953 0)scale(0.996264)"/>
      <use xlink:href="#CMR17-30" transform="translate(267.617011 0)scale(0.996264)"/>
      <use xlink:href="#CMR17-30" transform="translate(313.307488 0)scale(0.996264)"/>
      <use xlink:href="#CMR17-47" transform="translate(358.997965 0)scale(0.996264)"/>
      <use xlink:href="#CMR17-2f" transform="translate(431.353311 0)scale(0.996264)"/>
      <use xlink:href="#CMR17-63" transform="translate(477.043788 0)scale(0.996264)"/>
      <use xlink:href="#CMR17-6d" transform="translate(517.529449 0)scale(0.996264)"/>
     </g>
    </g>
    <g id="line2d_22">
     <path d="M 267.419606 265.64938 
L 281.419606 265.64938 
L 295.419606 265.64938 
" style="fill: none; stroke: #9467bd; stroke-width: 1.5; stroke-linecap: square"/>
    </g>
    <g id="text_18">
     <!-- B = 12.00G/cm -->
     <g transform="translate(306.619606 270.54938)scale(0.14 -0.14)">
      <use xlink:href="#CMR17-42" transform="scale(0.996264)"/>
      <use xlink:href="#CMR17-3d" transform="translate(95.264721 0)scale(0.996264)"/>
      <use xlink:href="#CMR17-31" transform="translate(197.055476 0)scale(0.996264)"/>
      <use xlink:href="#CMR17-32" transform="translate(242.745953 0)scale(0.996264)"/>
      <use xlink:href="#CMR17-2e" transform="translate(288.43643 0)scale(0.996264)"/>
      <use xlink:href="#CMR17-30" transform="translate(313.307488 0)scale(0.996264)"/>
      <use xlink:href="#CMR17-30" transform="translate(358.997965 0)scale(0.996264)"/>
      <use xlink:href="#CMR17-47" transform="translate(404.688443 0)scale(0.996264)"/>
      <use xlink:href="#CMR17-2f" transform="translate(477.043788 0)scale(0.996264)"/>
      <use xlink:href="#CMR17-63" transform="translate(522.734266 0)scale(0.996264)"/>
      <use xlink:href="#CMR17-6d" transform="translate(563.219926 0)scale(0.996264)"/>
     </g>
    </g>
    <g id="line2d_23">
     <path d="M 267.419606 286.597076 
L 281.419606 286.597076 
L 295.419606 286.597076 
" style="fill: none; stroke: #8c564b; stroke-width: 1.5; stroke-linecap: square"/>
    </g>
    <g id="text_19">
     <!-- B = 15.00G/cm -->
     <g transform="translate(306.619606 291.497076)scale(0.14 -0.14)">
      <use xlink:href="#CMR17-42" transform="scale(0.996264)"/>
      <use xlink:href="#CMR17-3d" transform="translate(95.264721 0)scale(0.996264)"/>
      <use xlink:href="#CMR17-31" transform="translate(197.055476 0)scale(0.996264)"/>
      <use xlink:href="#CMR17-35" transform="translate(242.745953 0)scale(0.996264)"/>
      <use xlink:href="#CMR17-2e" transform="translate(288.43643 0)scale(0.996264)"/>
      <use xlink:href="#CMR17-30" transform="translate(313.307488 0)scale(0.996264)"/>
      <use xlink:href="#CMR17-30" transform="translate(358.997965 0)scale(0.996264)"/>
      <use xlink:href="#CMR17-47" transform="translate(404.688443 0)scale(0.996264)"/>
      <use xlink:href="#CMR17-2f" transform="translate(477.043788 0)scale(0.996264)"/>
      <use xlink:href="#CMR17-63" transform="translate(522.734266 0)scale(0.996264)"/>
      <use xlink:href="#CMR17-6d" transform="translate(563.219926 0)scale(0.996264)"/>
     </g>
    </g>
   </g>
  </g>
 </g>
 <defs>
  <clipPath id="pb18e0a186d">
   <rect x="57.6" y="41.472" width="357.12" height="266.112"/>
  </clipPath>
 </defs>
</svg>
