<?xml version="1.0" encoding="utf-8" standalone="no"?>
<!DOCTYPE svg PUBLIC "-//W3C//DTD SVG 1.1//EN"
  "http://www.w3.org/Graphics/SVG/1.1/DTD/svg11.dtd">
<svg xmlns:xlink="http://www.w3.org/1999/xlink" width="460.8pt" height="345.6pt" viewBox="0 0 460.8 345.6" xmlns="http://www.w3.org/2000/svg" version="1.1">
 <metadata>
  <rdf:RDF xmlns:dc="http://purl.org/dc/elements/1.1/" xmlns:cc="http://creativecommons.org/ns#" xmlns:rdf="http://www.w3.org/1999/02/22-rdf-syntax-ns#">
   <cc:Work>
    <dc:type rdf:resource="http://purl.org/dc/dcmitype/StillImage"/>
    <dc:date>2023-02-28T14:23:52.237784</dc:date>
    <dc:format>image/svg+xml</dc:format>
    <dc:creator>
     <cc:Agent>
      <dc:title>Matplotlib v3.5.2, https://matplotlib.org/</dc:title>
     </cc:Agent>
    </dc:creator>
   </cc:Work>
  </rdf:RDF>
 </metadata>
 <defs>
  <style type="text/css">*{stroke-linejoin: round; stroke-linecap: butt}</style>
 </defs>
 <g id="figure_1">
  <g id="patch_1">
   <path d="M 0 345.6 
L 460.8 345.6 
L 460.8 0 
L 0 0 
z
" style="fill: #ffffff"/>
  </g>
  <g id="axes_1">
   <g id="patch_2">
    <path d="M 57.6 307.584 
L 414.72 307.584 
L 414.72 41.472 
L 57.6 41.472 
z
" style="fill: #ffffff"/>
   </g>
   <g id="matplotlib.axis_1">
    <g id="xtick_1">
     <g id="line2d_1">
      <defs>
       <path id="m7136edf4db" d="M 0 0 
L 0 3.5 
" style="stroke: #000000; stroke-width: 0.8"/>
      </defs>
      <g>
       <use xlink:href="#m7136edf4db" x="73.832727" y="307.584" style="stroke: #000000; stroke-width: 0.8"/>
      </g>
     </g>
     <g id="text_1">
      <!-- $\mathdefault{−10}$ -->
      <g transform="translate(61.580121 324.269876)scale(0.14 -0.14)">
       <defs>
        <path id="CMSY10-0" d="M 4218 1472 
C 4326 1472 4442 1472 4442 1600 
C 4442 1728 4326 1728 4218 1728 
L 755 1728 
C 646 1728 531 1728 531 1600 
C 531 1472 646 1472 755 1472 
L 4218 1472 
z
" transform="scale(0.015625)"/>
        <path id="CMR17-31" d="M 1702 4083 
C 1702 4217 1696 4224 1606 4224 
C 1357 3927 979 3833 621 3820 
C 602 3820 570 3820 563 3808 
C 557 3795 557 3782 557 3648 
C 755 3648 1088 3686 1344 3839 
L 1344 467 
C 1344 243 1331 166 781 166 
L 589 166 
L 589 0 
C 896 6 1216 12 1523 12 
C 1830 12 2150 6 2458 0 
L 2458 166 
L 2266 166 
C 1715 166 1702 236 1702 467 
L 1702 4083 
z
" transform="scale(0.015625)"/>
        <path id="CMR17-30" d="M 2688 2038 
C 2688 2430 2682 3099 2413 3613 
C 2176 4063 1798 4224 1466 4224 
C 1158 4224 768 4082 525 3620 
C 269 3137 243 2539 243 2038 
C 243 1671 250 1112 448 623 
C 723 -39 1216 -128 1466 -128 
C 1760 -128 2208 -7 2470 604 
C 2662 1048 2688 1568 2688 2038 
z
M 1466 -26 
C 1056 -26 813 328 723 816 
C 653 1196 653 1749 653 2109 
C 653 2604 653 3015 736 3407 
C 858 3954 1216 4121 1466 4121 
C 1728 4121 2067 3947 2189 3420 
C 2272 3054 2278 2623 2278 2109 
C 2278 1691 2278 1176 2202 797 
C 2067 96 1690 -26 1466 -26 
z
" transform="scale(0.015625)"/>
       </defs>
       <use xlink:href="#CMSY10-0" transform="scale(0.996264)"/>
       <use xlink:href="#CMR17-31" transform="translate(77.487468 0)scale(0.996264)"/>
       <use xlink:href="#CMR17-30" transform="translate(123.177945 0)scale(0.996264)"/>
      </g>
     </g>
    </g>
    <g id="xtick_2">
     <g id="line2d_2">
      <g>
       <use xlink:href="#m7136edf4db" x="154.996364" y="307.584" style="stroke: #000000; stroke-width: 0.8"/>
      </g>
     </g>
     <g id="text_2">
      <!-- $\mathdefault{−5}$ -->
      <g transform="translate(146.158002 324.269876)scale(0.14 -0.14)">
       <defs>
        <path id="CMR17-35" d="M 730 3750 
C 794 3724 1056 3641 1325 3641 
C 1920 3641 2246 3961 2432 4140 
C 2432 4191 2432 4224 2394 4224 
C 2387 4224 2374 4224 2323 4198 
C 2099 4102 1837 4032 1517 4032 
C 1325 4032 1037 4055 723 4191 
C 653 4224 640 4224 634 4224 
C 602 4224 595 4217 595 4090 
L 595 2231 
C 595 2113 595 2080 659 2080 
C 691 2080 704 2093 736 2139 
C 941 2435 1222 2560 1542 2560 
C 1766 2560 2246 2415 2246 1293 
C 2246 1087 2246 716 2054 422 
C 1894 159 1645 25 1370 25 
C 947 25 518 319 403 812 
C 429 806 480 793 506 793 
C 589 793 749 838 749 1036 
C 749 1209 627 1280 506 1280 
C 358 1280 262 1190 262 1011 
C 262 454 704 -128 1382 -128 
C 2042 -128 2669 441 2669 1267 
C 2669 2054 2170 2662 1549 2662 
C 1222 2662 947 2540 730 2304 
L 730 3750 
z
" transform="scale(0.015625)"/>
       </defs>
       <use xlink:href="#CMSY10-0" transform="scale(0.996264)"/>
       <use xlink:href="#CMR17-35" transform="translate(77.487468 0)scale(0.996264)"/>
      </g>
     </g>
    </g>
    <g id="xtick_3">
     <g id="line2d_3">
      <g>
       <use xlink:href="#m7136edf4db" x="236.16" y="307.584" style="stroke: #000000; stroke-width: 0.8"/>
      </g>
     </g>
     <g id="text_3">
      <!-- $\mathdefault{0}$ -->
      <g transform="translate(232.745756 324.269876)scale(0.14 -0.14)">
       <use xlink:href="#CMR17-30" transform="scale(0.996264)"/>
      </g>
     </g>
    </g>
    <g id="xtick_4">
     <g id="line2d_4">
      <g>
       <use xlink:href="#m7136edf4db" x="317.323636" y="307.584" style="stroke: #000000; stroke-width: 0.8"/>
      </g>
     </g>
     <g id="text_4">
      <!-- $\mathdefault{5}$ -->
      <g transform="translate(313.909392 324.269876)scale(0.14 -0.14)">
       <use xlink:href="#CMR17-35" transform="scale(0.996264)"/>
      </g>
     </g>
    </g>
    <g id="xtick_5">
     <g id="line2d_5">
      <g>
       <use xlink:href="#m7136edf4db" x="398.487273" y="307.584" style="stroke: #000000; stroke-width: 0.8"/>
      </g>
     </g>
     <g id="text_5">
      <!-- $\mathdefault{10}$ -->
      <g transform="translate(391.658784 324.269876)scale(0.14 -0.14)">
       <use xlink:href="#CMR17-31" transform="scale(0.996264)"/>
       <use xlink:href="#CMR17-30" transform="translate(45.690477 0)scale(0.996264)"/>
      </g>
     </g>
    </g>
    <g id="text_6">
     <!-- Velocity (m/s) -->
     <g transform="translate(192.687706 341.442677)scale(0.14 -0.14)">
      <defs>
       <path id="CMR17-56" d="M 3776 3762 
C 3834 3903 3936 4179 4365 4185 
L 4365 4352 
C 4218 4339 4051 4339 3891 4339 
C 3738 4339 3475 4339 3328 4352 
L 3328 4185 
C 3648 4166 3661 3942 3661 3903 
C 3661 3833 3642 3788 3622 3737 
L 2362 448 
L 1043 3903 
C 1024 3948 1011 3980 1011 4012 
C 1011 4185 1267 4185 1402 4185 
L 1402 4352 
C 1197 4339 896 4339 685 4339 
C 518 4339 218 4339 64 4352 
L 64 4185 
C 435 4185 506 4160 582 3955 
L 2106 -26 
C 2138 -116 2144 -128 2214 -128 
C 2285 -128 2291 -116 2323 -26 
L 3776 3762 
z
" transform="scale(0.015625)"/>
       <path id="CMR17-65" d="M 2438 1503 
C 2464 1529 2464 1542 2464 1606 
C 2464 2251 2118 2816 1389 2816 
C 710 2816 173 2175 173 1394 
C 173 554 781 -64 1459 -64 
C 2176 -64 2458 619 2458 755 
C 2458 800 2419 800 2406 800 
C 2362 800 2355 787 2330 709 
C 2189 270 1837 51 1504 51 
C 1229 51 954 206 781 490 
C 582 819 582 1200 582 1503 
L 2438 1503 
z
M 589 1600 
C 634 2511 1126 2713 1382 2713 
C 1818 2713 2112 2308 2118 1600 
L 589 1600 
z
" transform="scale(0.015625)"/>
       <path id="CMR17-6c" d="M 979 4416 
L 218 4345 
L 218 4179 
C 595 4179 653 4141 653 3835 
L 653 439 
C 653 198 627 166 218 166 
L 218 0 
C 371 12 653 12 813 12 
C 979 12 1261 12 1414 0 
L 1414 166 
C 1005 166 979 191 979 439 
L 979 4416 
z
" transform="scale(0.015625)"/>
       <path id="CMR17-6f" d="M 2758 1356 
C 2758 2176 2163 2816 1466 2816 
C 768 2816 173 2176 173 1356 
C 173 550 768 -64 1466 -64 
C 2163 -64 2758 550 2758 1356 
z
M 1466 51 
C 1165 51 909 230 762 480 
C 602 768 582 1126 582 1408 
C 582 1676 595 2009 762 2297 
C 890 2508 1139 2713 1466 2713 
C 1754 2713 1997 2553 2150 2329 
C 2349 2028 2349 1606 2349 1408 
C 2349 1158 2336 774 2163 467 
C 1984 172 1709 51 1466 51 
z
" transform="scale(0.015625)"/>
       <path id="CMR17-63" d="M 2234 2240 
C 2112 2240 1933 2240 1933 2015 
C 1933 1836 2080 1785 2163 1785 
C 2208 1785 2394 1804 2394 2028 
C 2394 2476 1958 2816 1466 2816 
C 787 2816 211 2201 211 1379 
C 211 521 813 -64 1466 -64 
C 2259 -64 2458 676 2458 747 
C 2458 773 2451 792 2406 792 
C 2362 792 2355 786 2330 702 
C 2163 180 1798 51 1523 51 
C 1114 51 621 431 621 1385 
C 621 2358 1094 2700 1472 2700 
C 1722 2700 2093 2582 2234 2240 
z
" transform="scale(0.015625)"/>
       <path id="CMR17-69" d="M 992 3961 
C 992 4102 877 4224 730 4224 
C 589 4224 467 4108 467 3961 
C 467 3820 582 3699 730 3699 
C 870 3699 992 3814 992 3961 
z
M 243 2745 
L 243 2579 
C 602 2579 653 2540 653 2231 
L 653 443 
C 653 198 627 166 218 166 
L 218 0 
C 371 12 646 12 806 12 
C 960 12 1222 12 1370 0 
L 1370 166 
C 992 166 979 205 979 436 
L 979 2816 
L 243 2745 
z
" transform="scale(0.015625)"/>
       <path id="CMR17-74" d="M 966 2585 
L 1862 2585 
L 1862 2752 
L 966 2752 
L 966 3968 
L 851 3968 
C 838 3292 614 2700 70 2687 
L 70 2585 
L 627 2585 
L 627 778 
C 627 655 627 -64 1370 -64 
C 1747 -64 1965 308 1965 784 
L 1965 1151 
L 1850 1151 
L 1850 790 
C 1850 347 1677 51 1408 51 
C 1222 51 966 179 966 765 
L 966 2585 
z
" transform="scale(0.015625)"/>
       <path id="CMR17-79" d="M 2496 2183 
C 2656 2579 2944 2585 3034 2585 
L 3034 2752 
C 2912 2745 2752 2739 2630 2739 
C 2496 2739 2285 2739 2157 2752 
L 2157 2585 
C 2400 2566 2406 2384 2406 2332 
C 2406 2268 2394 2235 2362 2158 
L 1664 409 
L 902 2300 
C 870 2378 870 2423 870 2430 
C 870 2572 1018 2585 1171 2585 
L 1171 2752 
C 1018 2739 742 2739 582 2739 
C 410 2739 205 2739 64 2752 
L 64 2585 
C 410 2585 448 2553 531 2345 
L 1485 -31 
C 1197 -795 1030 -1242 627 -1242 
C 557 -1242 397 -1223 282 -1106 
C 429 -1093 493 -1002 493 -892 
C 493 -782 416 -685 288 -685 
C 147 -685 77 -782 77 -899 
C 77 -1158 339 -1344 627 -1344 
C 998 -1344 1229 -983 1357 -659 
L 2496 2183 
z
" transform="scale(0.015625)"/>
       <path id="CMR17-28" d="M 1958 -1562 
C 1958 -1556 1958 -1543 1939 -1524 
C 1645 -1223 858 -403 858 1596 
C 858 3595 1632 4408 1946 4729 
C 1946 4735 1958 4748 1958 4767 
C 1958 4787 1939 4800 1914 4800 
C 1843 4800 1299 4325 986 3620 
C 666 2909 576 2218 576 1603 
C 576 1141 621 360 1005 -467 
C 1312 -1133 1837 -1600 1914 -1600 
C 1946 -1600 1958 -1588 1958 -1562 
z
" transform="scale(0.015625)"/>
       <path id="CMR17-6d" d="M 4326 1954 
C 4326 2276 4269 2816 3507 2816 
C 3072 2816 2771 2520 2656 2173 
L 2650 2173 
C 2573 2700 2195 2816 1837 2816 
C 1331 2816 1069 2424 973 2166 
L 966 2166 
L 966 2816 
L 211 2745 
L 211 2578 
C 589 2578 646 2540 646 2231 
L 646 443 
C 646 198 621 166 211 166 
L 211 0 
C 365 12 646 12 813 12 
C 979 12 1267 12 1421 0 
L 1421 166 
C 1011 166 986 192 986 443 
L 986 1678 
C 986 2269 1344 2713 1792 2713 
C 2266 2713 2317 2289 2317 1980 
L 2317 443 
C 2317 198 2291 166 1882 166 
L 1882 0 
C 2035 12 2317 12 2483 12 
C 2650 12 2938 12 3091 0 
L 3091 166 
C 2682 166 2656 192 2656 443 
L 2656 1678 
C 2656 2269 3014 2713 3462 2713 
C 3936 2713 3987 2289 3987 1980 
L 3987 443 
C 3987 198 3962 166 3552 166 
L 3552 0 
C 3706 12 3987 12 4154 12 
C 4320 12 4608 12 4762 0 
L 4762 166 
C 4352 166 4326 192 4326 443 
L 4326 1954 
z
" transform="scale(0.015625)"/>
       <path id="CMR17-2f" d="M 2605 4575 
C 2637 4658 2637 4671 2637 4684 
C 2637 4761 2579 4800 2528 4800 
C 2451 4800 2426 4748 2400 4671 
L 326 -1376 
C 294 -1460 294 -1472 294 -1485 
C 294 -1562 352 -1600 403 -1600 
C 480 -1600 506 -1549 531 -1472 
L 2605 4575 
z
" transform="scale(0.015625)"/>
       <path id="CMR17-73" d="M 1978 2688 
C 1978 2803 1971 2809 1933 2809 
C 1907 2809 1901 2803 1824 2707 
C 1805 2681 1747 2617 1728 2592 
C 1523 2809 1235 2816 1126 2816 
C 416 2816 160 2444 160 2073 
C 160 1497 813 1363 998 1324 
C 1402 1241 1542 1216 1677 1100 
C 1760 1024 1901 883 1901 652 
C 1901 384 1747 38 1158 38 
C 602 38 403 460 288 1024 
C 269 1113 269 1120 218 1120 
C 166 1120 160 1113 160 985 
L 160 64 
C 160 -52 166 -58 205 -58 
C 237 -58 243 -52 275 0 
C 314 57 410 211 448 275 
C 576 102 800 -64 1158 -64 
C 1792 -64 2131 281 2131 780 
C 2131 1107 1958 1280 1875 1356 
C 1683 1555 1459 1600 1190 1651 
C 838 1728 390 1817 390 2208 
C 390 2374 480 2726 1126 2726 
C 1811 2726 1850 2086 1862 1881 
C 1869 1849 1901 1843 1920 1843 
C 1978 1843 1978 1862 1978 1971 
L 1978 2688 
z
" transform="scale(0.015625)"/>
       <path id="CMR17-29" d="M 1683 1596 
C 1683 2057 1638 2839 1254 3665 
C 947 4332 422 4800 346 4800 
C 326 4800 301 4793 301 4761 
C 301 4748 307 4742 314 4729 
C 621 4408 1402 3595 1402 1603 
C 1402 -396 627 -1210 314 -1530 
C 307 -1543 301 -1549 301 -1562 
C 301 -1594 326 -1600 346 -1600 
C 416 -1600 960 -1127 1274 -422 
C 1594 289 1683 981 1683 1596 
z
" transform="scale(0.015625)"/>
      </defs>
      <use xlink:href="#CMR17-56" transform="scale(0.996264)"/>
      <use xlink:href="#CMR17-65" transform="translate(61.265174 0)scale(0.996264)"/>
      <use xlink:href="#CMR17-6c" transform="translate(101.750835 0)scale(0.996264)"/>
      <use xlink:href="#CMR17-6f" transform="translate(126.621893 0)scale(0.996264)"/>
      <use xlink:href="#CMR17-63" transform="translate(174.914809 0)scale(0.996264)"/>
      <use xlink:href="#CMR17-69" transform="translate(215.40047 0)scale(0.996264)"/>
      <use xlink:href="#CMR17-74" transform="translate(240.271528 0)scale(0.996264)"/>
      <use xlink:href="#CMR17-79" transform="translate(272.949842 0)scale(0.996264)"/>
      <use xlink:href="#CMR17-28" transform="translate(351.318724 0)scale(0.996264)"/>
      <use xlink:href="#CMR17-6d" transform="translate(386.599492 0)scale(0.996264)"/>
      <use xlink:href="#CMR17-2f" transform="translate(463.519082 0)scale(0.996264)"/>
      <use xlink:href="#CMR17-73" transform="translate(509.209559 0)scale(0.996264)"/>
      <use xlink:href="#CMR17-29" transform="translate(545.010897 0)scale(0.996264)"/>
     </g>
    </g>
   </g>
   <g id="matplotlib.axis_2">
    <g id="ytick_1">
     <g id="line2d_6">
      <defs>
       <path id="m681efc16aa" d="M 0 0 
L -3.5 0 
" style="stroke: #000000; stroke-width: 0.8"/>
      </defs>
      <g>
       <use xlink:href="#m681efc16aa" x="57.6" y="298.622659" style="stroke: #000000; stroke-width: 0.8"/>
      </g>
     </g>
     <g id="text_7">
      <!-- $\mathdefault{−1.5}$ -->
      <g transform="translate(22.301183 303.465597)scale(0.14 -0.14)">
       <defs>
        <path id="CMMI12-3a" d="M 1178 307 
C 1178 492 1024 620 870 620 
C 685 620 557 467 557 313 
C 557 128 710 0 864 0 
C 1050 0 1178 153 1178 307 
z
" transform="scale(0.015625)"/>
       </defs>
       <use xlink:href="#CMSY10-0" transform="scale(0.996264)"/>
       <use xlink:href="#CMR17-31" transform="translate(77.487468 0)scale(0.996264)"/>
       <use xlink:href="#CMMI12-3a" transform="translate(123.177945 0)scale(0.996264)"/>
       <use xlink:href="#CMR17-35" transform="translate(150.275122 0)scale(0.996264)"/>
      </g>
     </g>
    </g>
    <g id="ytick_2">
     <g id="line2d_7">
      <g>
       <use xlink:href="#m681efc16aa" x="57.6" y="257.257773" style="stroke: #000000; stroke-width: 0.8"/>
      </g>
     </g>
     <g id="text_8">
      <!-- $\mathdefault{−1.0}$ -->
      <g transform="translate(22.301183 262.100711)scale(0.14 -0.14)">
       <use xlink:href="#CMSY10-0" transform="scale(0.996264)"/>
       <use xlink:href="#CMR17-31" transform="translate(77.487468 0)scale(0.996264)"/>
       <use xlink:href="#CMMI12-3a" transform="translate(123.177945 0)scale(0.996264)"/>
       <use xlink:href="#CMR17-30" transform="translate(150.275122 0)scale(0.996264)"/>
      </g>
     </g>
    </g>
    <g id="ytick_3">
     <g id="line2d_8">
      <g>
       <use xlink:href="#m681efc16aa" x="57.6" y="215.892886" style="stroke: #000000; stroke-width: 0.8"/>
      </g>
     </g>
     <g id="text_9">
      <!-- $\mathdefault{−0.5}$ -->
      <g transform="translate(22.301183 220.735825)scale(0.14 -0.14)">
       <use xlink:href="#CMSY10-0" transform="scale(0.996264)"/>
       <use xlink:href="#CMR17-30" transform="translate(77.487468 0)scale(0.996264)"/>
       <use xlink:href="#CMMI12-3a" transform="translate(123.177945 0)scale(0.996264)"/>
       <use xlink:href="#CMR17-35" transform="translate(150.275122 0)scale(0.996264)"/>
      </g>
     </g>
    </g>
    <g id="ytick_4">
     <g id="line2d_9">
      <g>
       <use xlink:href="#m681efc16aa" x="57.6" y="174.528" style="stroke: #000000; stroke-width: 0.8"/>
      </g>
     </g>
     <g id="text_10">
      <!-- $\mathdefault{0.0}$ -->
      <g transform="translate(33.149418 179.370938)scale(0.14 -0.14)">
       <use xlink:href="#CMR17-30" transform="scale(0.996264)"/>
       <use xlink:href="#CMMI12-3a" transform="translate(45.690477 0)scale(0.996264)"/>
       <use xlink:href="#CMR17-30" transform="translate(72.787654 0)scale(0.996264)"/>
      </g>
     </g>
    </g>
    <g id="ytick_5">
     <g id="line2d_10">
      <g>
       <use xlink:href="#m681efc16aa" x="57.6" y="133.163114" style="stroke: #000000; stroke-width: 0.8"/>
      </g>
     </g>
     <g id="text_11">
      <!-- $\mathdefault{0.5}$ -->
      <g transform="translate(33.149418 138.006052)scale(0.14 -0.14)">
       <use xlink:href="#CMR17-30" transform="scale(0.996264)"/>
       <use xlink:href="#CMMI12-3a" transform="translate(45.690477 0)scale(0.996264)"/>
       <use xlink:href="#CMR17-35" transform="translate(72.787654 0)scale(0.996264)"/>
      </g>
     </g>
    </g>
    <g id="ytick_6">
     <g id="line2d_11">
      <g>
       <use xlink:href="#m681efc16aa" x="57.6" y="91.798227" style="stroke: #000000; stroke-width: 0.8"/>
      </g>
     </g>
     <g id="text_12">
      <!-- $\mathdefault{1.0}$ -->
      <g transform="translate(33.149418 96.641165)scale(0.14 -0.14)">
       <use xlink:href="#CMR17-31" transform="scale(0.996264)"/>
       <use xlink:href="#CMMI12-3a" transform="translate(45.690477 0)scale(0.996264)"/>
       <use xlink:href="#CMR17-30" transform="translate(72.787654 0)scale(0.996264)"/>
      </g>
     </g>
    </g>
    <g id="ytick_7">
     <g id="line2d_12">
      <g>
       <use xlink:href="#m681efc16aa" x="57.6" y="50.433341" style="stroke: #000000; stroke-width: 0.8"/>
      </g>
     </g>
     <g id="text_13">
      <!-- $\mathdefault{1.5}$ -->
      <g transform="translate(33.149418 55.276279)scale(0.14 -0.14)">
       <use xlink:href="#CMR17-31" transform="scale(0.996264)"/>
       <use xlink:href="#CMMI12-3a" transform="translate(45.690477 0)scale(0.996264)"/>
       <use xlink:href="#CMR17-35" transform="translate(72.787654 0)scale(0.996264)"/>
      </g>
     </g>
    </g>
    <g id="text_14">
     <!-- Acceleration $( \times 10^4 m/s^2)$ -->
     <g transform="translate(14.814259 249.47205)rotate(-90)scale(0.14 -0.14)">
      <defs>
       <path id="CMR17-41" d="M 2323 4441 
C 2291 4524 2278 4544 2214 4544 
C 2150 4544 2138 4524 2106 4441 
L 749 580 
C 627 236 371 166 147 166 
L 147 0 
C 262 12 518 12 640 12 
C 800 12 1056 12 1210 0 
L 1210 166 
C 909 179 864 382 864 459 
C 864 516 877 548 890 586 
L 1229 1536 
L 2906 1536 
L 3290 453 
C 3322 376 3322 363 3322 338 
C 3322 166 3046 166 2925 166 
L 2925 0 
C 3110 12 3443 12 3642 12 
C 3808 12 4128 12 4282 0 
L 4282 166 
C 3942 166 3827 166 3744 402 
L 2323 4441 
z
M 2067 3924 
L 2848 1702 
L 1286 1702 
L 2067 3924 
z
" transform="scale(0.015625)"/>
       <path id="CMR17-72" d="M 960 1517 
C 960 2134 1222 2713 1702 2713 
C 1747 2713 1792 2707 1837 2687 
C 1837 2687 1696 2642 1696 2475 
C 1696 2321 1818 2257 1914 2257 
C 1990 2257 2131 2302 2131 2482 
C 2131 2687 1926 2816 1709 2816 
C 1222 2816 1011 2340 947 2115 
L 941 2115 
L 941 2816 
L 198 2745 
L 198 2578 
C 576 2578 634 2540 634 2231 
L 634 443 
C 634 198 608 166 198 166 
L 198 0 
C 352 12 646 12 813 12 
C 998 12 1325 12 1498 0 
L 1498 166 
C 1037 166 960 166 960 455 
L 960 1517 
z
" transform="scale(0.015625)"/>
       <path id="CMR17-61" d="M 2304 1656 
C 2304 2048 2304 2275 2035 2534 
C 1798 2751 1523 2816 1306 2816 
C 800 2816 435 2408 435 1977 
C 435 1740 627 1728 666 1728 
C 749 1728 896 1779 896 1958 
C 896 2118 774 2188 666 2188 
C 640 2188 608 2182 589 2176 
C 723 2594 1069 2713 1293 2713 
C 1613 2713 1965 2421 1965 1875 
L 1965 1632 
C 1587 1619 1133 1568 774 1373 
C 371 1147 256 822 256 576 
C 256 77 832 -64 1171 -64 
C 1523 -64 1850 135 1990 505 
C 2003 219 2182 -39 2464 -39 
C 2598 -39 2938 51 2938 563 
L 2938 926 
L 2822 926 
L 2822 557 
C 2822 161 2650 109 2566 109 
C 2304 109 2304 446 2304 732 
L 2304 1656 
z
M 1965 887 
C 1965 323 1568 38 1216 38 
C 896 38 646 278 646 576 
C 646 771 730 1114 1101 1322 
C 1408 1497 1760 1523 1965 1536 
L 1965 887 
z
" transform="scale(0.015625)"/>
       <path id="CMR17-6e" d="M 2656 1954 
C 2656 2282 2592 2816 1837 2816 
C 1331 2816 1069 2424 973 2166 
L 966 2166 
L 966 2816 
L 211 2745 
L 211 2578 
C 589 2578 646 2540 646 2231 
L 646 443 
C 646 198 621 166 211 166 
L 211 0 
C 365 12 646 12 813 12 
C 979 12 1267 12 1421 0 
L 1421 166 
C 1011 166 986 192 986 443 
L 986 1678 
C 986 2269 1344 2713 1792 2713 
C 2266 2713 2317 2289 2317 1980 
L 2317 443 
C 2317 198 2291 166 1882 166 
L 1882 0 
C 2035 12 2317 12 2483 12 
C 2650 12 2938 12 3091 0 
L 3091 166 
C 2682 166 2656 192 2656 443 
L 2656 1954 
z
" transform="scale(0.015625)"/>
       <path id="CMSY10-2" d="M 2490 1775 
L 1210 3046 
C 1133 3123 1120 3136 1069 3136 
C 1005 3136 941 3078 941 3008 
C 941 2963 954 2950 1024 2880 
L 2304 1596 
L 1024 313 
C 954 243 941 230 941 185 
C 941 115 1005 57 1069 57 
C 1120 57 1133 70 1210 147 
L 2483 1418 
L 3808 95 
C 3821 89 3866 57 3904 57 
C 3981 57 4032 115 4032 185 
C 4032 198 4032 223 4013 255 
C 4006 268 2989 1271 2669 1596 
L 3840 2765 
C 3872 2803 3968 2886 4000 2925 
C 4006 2937 4032 2963 4032 3008 
C 4032 3078 3981 3136 3904 3136 
C 3853 3136 3827 3110 3757 3040 
L 2490 1775 
z
" transform="scale(0.015625)"/>
       <path id="CMR17-34" d="M 2150 4147 
C 2150 4281 2144 4288 2029 4288 
L 128 1254 
L 128 1088 
L 1779 1088 
L 1779 460 
C 1779 230 1766 166 1318 166 
L 1197 166 
L 1197 0 
C 1402 12 1747 12 1965 12 
C 2182 12 2528 12 2733 0 
L 2733 166 
L 2611 166 
C 2163 166 2150 230 2150 460 
L 2150 1088 
L 2803 1088 
L 2803 1254 
L 2150 1254 
L 2150 4147 
z
M 1798 3723 
L 1798 1254 
L 256 1254 
L 1798 3723 
z
" transform="scale(0.015625)"/>
       <path id="CMMI12-6d" d="M 1318 1870 
C 1331 1909 1491 2228 1728 2432 
C 1894 2585 2112 2687 2362 2687 
C 2618 2687 2707 2496 2707 2241 
C 2707 2202 2707 2075 2630 1775 
L 2470 1117 
C 2419 925 2298 453 2285 383 
C 2259 287 2221 121 2221 95 
C 2221 6 2291 -64 2387 -64 
C 2579 -64 2611 83 2669 313 
L 3053 1838 
C 3066 1890 3398 2687 4102 2687 
C 4358 2687 4448 2496 4448 2241 
C 4448 1883 4198 1187 4058 804 
C 4000 651 3968 568 3968 453 
C 3968 166 4166 -64 4474 -64 
C 5069 -64 5293 874 5293 913 
C 5293 945 5267 970 5229 970 
C 5171 970 5165 951 5133 842 
C 4986 332 4749 64 4493 64 
C 4429 64 4326 70 4326 274 
C 4326 440 4403 645 4429 715 
C 4544 1021 4832 1775 4832 2145 
C 4832 2528 4608 2816 4122 2816 
C 3693 2816 3347 2573 3091 2196 
C 3072 2541 2861 2816 2381 2816 
C 1811 2816 1510 2413 1395 2253 
C 1376 2617 1114 2816 832 2816 
C 646 2816 499 2726 378 2483 
C 262 2253 173 1864 173 1838 
C 173 1813 198 1781 243 1781 
C 294 1781 301 1787 339 1934 
C 435 2311 557 2687 813 2687 
C 960 2687 1011 2585 1011 2394 
C 1011 2253 947 2004 902 1807 
L 723 1117 
C 698 996 627 708 595 593 
C 550 427 480 127 480 95 
C 480 6 550 -64 646 -64 
C 723 -64 813 -26 864 70 
C 877 102 934 325 966 453 
L 1107 1028 
L 1318 1870 
z
" transform="scale(0.015625)"/>
       <path id="CMMI12-3d" d="M 2746 4563 
C 2746 4569 2784 4665 2784 4678 
C 2784 4755 2720 4800 2669 4800 
C 2637 4800 2579 4800 2528 4659 
L 384 -1364 
C 384 -1370 346 -1466 346 -1479 
C 346 -1556 410 -1600 461 -1600 
C 499 -1600 557 -1594 602 -1460 
L 2746 4563 
z
" transform="scale(0.015625)"/>
       <path id="CMMI12-73" d="M 1459 1290 
C 1568 1271 1741 1233 1779 1227 
C 1862 1201 2150 1099 2150 793 
C 2150 595 1971 64 1229 64 
C 1094 64 614 83 486 447 
C 742 414 870 614 870 755 
C 870 889 781 960 653 960 
C 512 960 326 851 326 563 
C 326 176 710 -64 1222 -64 
C 2195 -64 2483 665 2483 998 
C 2483 1093 2483 1271 2278 1475 
C 2118 1627 1965 1659 1619 1729 
C 1446 1767 1171 1824 1171 2111 
C 1171 2239 1286 2687 1894 2687 
C 2163 2687 2426 2589 2490 2368 
C 2208 2368 2195 2124 2195 2118 
C 2195 1983 2317 1945 2374 1945 
C 2464 1945 2643 2015 2643 2284 
C 2643 2546 2400 2816 1901 2816 
C 1062 2816 838 2169 838 1907 
C 838 1424 1312 1322 1459 1290 
z
" transform="scale(0.015625)"/>
       <path id="CMR17-32" d="M 2669 990 
L 2554 990 
C 2490 537 2438 460 2413 422 
C 2381 371 1920 371 1830 371 
L 602 371 
C 832 620 1280 1073 1824 1596 
C 2214 1966 2669 2400 2669 3033 
C 2669 3788 2067 4224 1395 4224 
C 691 4224 262 3603 262 3027 
C 262 2777 448 2745 525 2745 
C 589 2745 781 2783 781 3007 
C 781 3206 614 3264 525 3264 
C 486 3264 448 3257 422 3244 
C 544 3788 915 4057 1306 4057 
C 1862 4057 2227 3616 2227 3033 
C 2227 2477 1901 1998 1536 1583 
L 262 147 
L 262 0 
L 2515 0 
L 2669 990 
z
" transform="scale(0.015625)"/>
      </defs>
      <use xlink:href="#CMR17-41" transform="scale(0.996264)"/>
      <use xlink:href="#CMR17-63" transform="translate(69.07243 0)scale(0.996264)"/>
      <use xlink:href="#CMR17-63" transform="translate(109.55809 0)scale(0.996264)"/>
      <use xlink:href="#CMR17-65" transform="translate(150.043751 0)scale(0.996264)"/>
      <use xlink:href="#CMR17-6c" transform="translate(190.529411 0)scale(0.996264)"/>
      <use xlink:href="#CMR17-65" transform="translate(215.40047 0)scale(0.996264)"/>
      <use xlink:href="#CMR17-72" transform="translate(255.88613 0)scale(0.996264)"/>
      <use xlink:href="#CMR17-61" transform="translate(291.166898 0)scale(0.996264)"/>
      <use xlink:href="#CMR17-74" transform="translate(336.857375 0)scale(0.996264)"/>
      <use xlink:href="#CMR17-69" transform="translate(372.138143 0)scale(0.996264)"/>
      <use xlink:href="#CMR17-6f" transform="translate(397.009201 0)scale(0.996264)"/>
      <use xlink:href="#CMR17-6e" transform="translate(442.699678 0)scale(0.996264)"/>
      <use xlink:href="#CMR17-28" transform="translate(523.671015 0)scale(0.996264)"/>
      <use xlink:href="#CMSY10-2" transform="translate(558.951782 0)scale(0.996264)"/>
      <use xlink:href="#CMR17-31" transform="translate(636.43925 0)scale(0.996264)"/>
      <use xlink:href="#CMR17-30" transform="translate(682.129727 0)scale(0.996264)"/>
      <use xlink:href="#CMR17-34" transform="translate(727.820204 36.153639)scale(0.697382)"/>
      <use xlink:href="#CMMI12-6d" transform="translate(760.301518 0)scale(0.996264)"/>
      <use xlink:href="#CMMI12-3d" transform="translate(845.628743 0)scale(0.996264)"/>
      <use xlink:href="#CMMI12-73" transform="translate(894.403661 0)scale(0.996264)"/>
      <use xlink:href="#CMR17-32" transform="translate(940.353709 36.153639)scale(0.697382)"/>
      <use xlink:href="#CMR17-29" transform="translate(972.835023 0)scale(0.996264)"/>
     </g>
    </g>
   </g>
   <g id="line2d_13">
    <path d="M 73.832727 107.184932 
L 81.957215 100.268238 
L 97.881212 86.624864 
L 103.080885 82.516139 
L 107.305618 79.453295 
L 110.880393 77.115481 
L 114.130188 75.233885 
L 117.379984 73.619785 
L 120.304799 72.422524 
L 122.904636 71.579508 
L 125.504472 70.958548 
L 128.104308 70.570852 
L 130.704144 70.425291 
L 133.30398 70.528163 
L 135.903817 70.883019 
L 138.503653 71.490571 
L 141.103489 72.348692 
L 143.703325 73.452485 
L 146.303161 74.79445 
L 149.227977 76.576466 
L 152.152793 78.630168 
L 155.402588 81.206406 
L 158.652383 84.063163 
L 162.227158 87.491073 
L 166.451892 91.869251 
L 171.326585 97.27211 
L 177.176216 104.113122 
L 185.300704 113.988511 
L 208.69923 142.602004 
L 219.423554 155.259928 
L 233.072695 170.995827 
L 255.171302 196.45415 
L 265.895627 209.182925 
L 277.26991 223.042146 
L 296.443702 246.489165 
L 302.293333 253.255874 
L 307.168026 258.567643 
L 311.39276 262.843421 
L 314.967535 266.167169 
L 318.21733 268.915503 
L 321.467125 271.37091 
L 324.391941 273.306175 
L 327.316757 274.961739 
L 329.916593 276.18571 
L 332.516429 277.167447 
L 335.116265 277.900725 
L 337.716102 278.382019 
L 340.315938 278.610615 
L 342.915774 278.588652 
L 345.51561 278.32107 
L 348.115446 277.815481 
L 350.715283 277.081957 
L 353.315119 276.132765 
L 356.239934 274.824797 
L 359.16475 273.284193 
L 362.414545 271.328965 
L 365.98932 268.922278 
L 370.214054 265.79445 
L 375.088747 261.897425 
L 381.588337 256.3998 
L 398.487273 241.871068 
L 398.487273 241.871068 
" clip-path="url(#p16faee8c21)" style="fill: none; stroke: #1f77b4; stroke-width: 1.5; stroke-linecap: square"/>
   </g>
   <g id="line2d_14">
    <path d="M 73.832727 96.436468 
L 81.307256 89.504828 
L 101.131007 70.928997 
L 106.0057 66.779196 
L 109.905455 63.726748 
L 113.480229 61.192787 
L 116.730025 59.147664 
L 119.65484 57.545078 
L 122.579656 56.190252 
L 125.179492 55.209238 
L 127.779328 54.449995 
L 130.379165 53.921303 
L 132.979001 53.629376 
L 135.578837 53.577681 
L 138.178673 53.766834 
L 140.778509 54.194583 
L 143.378346 54.855875 
L 145.978182 55.743003 
L 148.902998 56.998258 
L 151.827813 58.508788 
L 155.077609 60.46154 
L 158.327404 62.672858 
L 161.902179 65.36404 
L 166.126912 68.833012 
L 171.001605 73.130624 
L 177.501196 79.171955 
L 196.999967 97.484563 
L 203.499558 103.184291 
L 209.349189 108.029853 
L 215.198821 112.580998 
L 220.723473 116.600314 
L 226.248124 120.349236 
L 231.772776 123.834442 
L 237.297428 127.066639 
L 243.14706 130.227939 
L 248.996691 133.137875 
L 255.171302 135.956802 
L 261.345913 138.537097 
L 267.845504 141.017959 
L 274.670074 143.387523 
L 281.819623 145.637338 
L 289.294152 147.76208 
L 297.41864 149.837926 
L 305.868108 151.769536 
L 314.967535 153.62344 
L 324.716921 155.383985 
L 335.441245 157.088934 
L 346.815528 158.671453 
L 359.48973 160.204243 
L 373.13887 161.628107 
L 388.412907 162.991589 
L 398.487273 163.779536 
L 398.487273 163.779536 
" clip-path="url(#p16faee8c21)" style="fill: none; stroke-dasharray: 5.55,2.4; stroke-dashoffset: 0; stroke: #ff7f0e; stroke-width: 1.5"/>
   </g>
   <g id="line2d_15">
    <path d="M 73.832727 185.276464 
L 90.406683 186.617884 
L 105.355741 188.045583 
L 119.004881 189.57072 
L 131.354103 191.171695 
L 142.728387 192.86916 
L 153.127731 194.642934 
L 162.877117 196.531904 
L 171.976544 198.524735 
L 180.426011 200.604572 
L 188.22552 202.748617 
L 195.700049 205.032364 
L 202.849599 207.452898 
L 209.674169 210.004144 
L 216.173759 212.676456 
L 222.34837 215.456304 
L 228.198002 218.326101 
L 234.047633 221.444267 
L 239.572285 224.633137 
L 245.096937 228.072827 
L 250.621589 231.774589 
L 256.146241 235.745937 
L 261.670893 239.988809 
L 267.520524 244.770431 
L 273.695135 250.11795 
L 280.519705 256.332233 
L 290.269091 265.555473 
L 300.668436 275.334106 
L 306.193088 280.222988 
L 310.742801 283.946667 
L 314.642555 286.84451 
L 318.21733 289.208908 
L 321.467125 291.077872 
L 324.391941 292.50546 
L 327.316757 293.671542 
L 329.916593 294.475045 
L 332.516429 295.049523 
L 335.116265 295.388242 
L 337.716102 295.487188 
L 340.315938 295.345179 
L 342.915774 294.963908 
L 345.51561 294.347889 
L 348.115446 293.504322 
L 350.715283 292.44289 
L 353.640098 291.003245 
L 356.564914 289.322721 
L 359.814709 287.199937 
L 363.389484 284.59215 
L 367.289238 281.473463 
L 371.838952 277.551226 
L 377.688583 272.199188 
L 389.062867 261.397159 
L 398.162293 252.914728 
L 398.487273 252.619532 
L 398.487273 252.619532 
" clip-path="url(#p16faee8c21)" style="fill: none; stroke-dasharray: 5.55,2.4; stroke-dashoffset: 0; stroke: #2ca02c; stroke-width: 1.5"/>
   </g>
   <g id="patch_3">
    <path d="M 57.6 307.584 
L 57.6 41.472 
" style="fill: none; stroke: #000000; stroke-width: 0.8; stroke-linejoin: miter; stroke-linecap: square"/>
   </g>
   <g id="patch_4">
    <path d="M 414.72 307.584 
L 414.72 41.472 
" style="fill: none; stroke: #000000; stroke-width: 0.8; stroke-linejoin: miter; stroke-linecap: square"/>
   </g>
   <g id="patch_5">
    <path d="M 57.6 307.584 
L 414.72 307.584 
" style="fill: none; stroke: #000000; stroke-width: 0.8; stroke-linejoin: miter; stroke-linecap: square"/>
   </g>
   <g id="patch_6">
    <path d="M 57.6 41.472 
L 414.72 41.472 
" style="fill: none; stroke: #000000; stroke-width: 0.8; stroke-linejoin: miter; stroke-linecap: square"/>
   </g>
  </g>
 </g>
 <defs>
  <clipPath id="p16faee8c21">
   <rect x="57.6" y="41.472" width="357.12" height="266.112"/>
  </clipPath>
 </defs>
</svg>
