<?xml version="1.0" encoding="utf-8" standalone="no"?>
<!DOCTYPE svg PUBLIC "-//W3C//DTD SVG 1.1//EN"
  "http://www.w3.org/Graphics/SVG/1.1/DTD/svg11.dtd">
<svg xmlns:xlink="http://www.w3.org/1999/xlink" width="460.8pt" height="345.6pt" viewBox="0 0 460.8 345.6" xmlns="http://www.w3.org/2000/svg" version="1.1">
 <metadata>
  <rdf:RDF xmlns:dc="http://purl.org/dc/elements/1.1/" xmlns:cc="http://creativecommons.org/ns#" xmlns:rdf="http://www.w3.org/1999/02/22-rdf-syntax-ns#">
   <cc:Work>
    <dc:type rdf:resource="http://purl.org/dc/dcmitype/StillImage"/>
    <dc:date>2023-02-28T14:25:08.669926</dc:date>
    <dc:format>image/svg+xml</dc:format>
    <dc:creator>
     <cc:Agent>
      <dc:title>Matplotlib v3.5.2, https://matplotlib.org/</dc:title>
     </cc:Agent>
    </dc:creator>
   </cc:Work>
  </rdf:RDF>
 </metadata>
 <defs>
  <style type="text/css">*{stroke-linejoin: round; stroke-linecap: butt}</style>
 </defs>
 <g id="figure_1">
  <g id="patch_1">
   <path d="M 0 345.6 
L 460.8 345.6 
L 460.8 0 
L 0 0 
z
" style="fill: #ffffff"/>
  </g>
  <g id="axes_1">
   <g id="patch_2">
    <path d="M 57.6 307.584 
L 414.72 307.584 
L 414.72 41.472 
L 57.6 41.472 
z
" style="fill: #ffffff"/>
   </g>
   <g id="matplotlib.axis_1">
    <g id="xtick_1">
     <g id="line2d_1">
      <defs>
       <path id="m9e8ed7857d" d="M 0 0 
L 0 3.5 
" style="stroke: #000000; stroke-width: 0.8"/>
      </defs>
      <g>
       <use xlink:href="#m9e8ed7857d" x="70.553388" y="307.584" style="stroke: #000000; stroke-width: 0.8"/>
      </g>
     </g>
     <g id="text_1">
      <!-- $\mathdefault{0}$ -->
      <g transform="translate(67.139144 324.269876)scale(0.14 -0.14)">
       <defs>
        <path id="CMR17-30" d="M 2688 2038 
C 2688 2430 2682 3099 2413 3613 
C 2176 4063 1798 4224 1466 4224 
C 1158 4224 768 4082 525 3620 
C 269 3137 243 2539 243 2038 
C 243 1671 250 1112 448 623 
C 723 -39 1216 -128 1466 -128 
C 1760 -128 2208 -7 2470 604 
C 2662 1048 2688 1568 2688 2038 
z
M 1466 -26 
C 1056 -26 813 328 723 816 
C 653 1196 653 1749 653 2109 
C 653 2604 653 3015 736 3407 
C 858 3954 1216 4121 1466 4121 
C 1728 4121 2067 3947 2189 3420 
C 2272 3054 2278 2623 2278 2109 
C 2278 1691 2278 1176 2202 797 
C 2067 96 1690 -26 1466 -26 
z
" transform="scale(0.015625)"/>
       </defs>
       <use xlink:href="#CMR17-30" transform="scale(0.996264)"/>
      </g>
     </g>
    </g>
    <g id="xtick_2">
     <g id="line2d_2">
      <g>
       <use xlink:href="#m9e8ed7857d" x="136.140165" y="307.584" style="stroke: #000000; stroke-width: 0.8"/>
      </g>
     </g>
     <g id="text_2">
      <!-- $\mathdefault{2}$ -->
      <g transform="translate(132.725921 324.269876)scale(0.14 -0.14)">
       <defs>
        <path id="CMR17-32" d="M 2669 990 
L 2554 990 
C 2490 537 2438 460 2413 422 
C 2381 371 1920 371 1830 371 
L 602 371 
C 832 620 1280 1073 1824 1596 
C 2214 1966 2669 2400 2669 3033 
C 2669 3788 2067 4224 1395 4224 
C 691 4224 262 3603 262 3027 
C 262 2777 448 2745 525 2745 
C 589 2745 781 2783 781 3007 
C 781 3206 614 3264 525 3264 
C 486 3264 448 3257 422 3244 
C 544 3788 915 4057 1306 4057 
C 1862 4057 2227 3616 2227 3033 
C 2227 2477 1901 1998 1536 1583 
L 262 147 
L 262 0 
L 2515 0 
L 2669 990 
z
" transform="scale(0.015625)"/>
       </defs>
       <use xlink:href="#CMR17-32" transform="scale(0.996264)"/>
      </g>
     </g>
    </g>
    <g id="xtick_3">
     <g id="line2d_3">
      <g>
       <use xlink:href="#m9e8ed7857d" x="201.726942" y="307.584" style="stroke: #000000; stroke-width: 0.8"/>
      </g>
     </g>
     <g id="text_3">
      <!-- $\mathdefault{4}$ -->
      <g transform="translate(198.312698 324.269876)scale(0.14 -0.14)">
       <defs>
        <path id="CMR17-34" d="M 2150 4147 
C 2150 4281 2144 4288 2029 4288 
L 128 1254 
L 128 1088 
L 1779 1088 
L 1779 460 
C 1779 230 1766 166 1318 166 
L 1197 166 
L 1197 0 
C 1402 12 1747 12 1965 12 
C 2182 12 2528 12 2733 0 
L 2733 166 
L 2611 166 
C 2163 166 2150 230 2150 460 
L 2150 1088 
L 2803 1088 
L 2803 1254 
L 2150 1254 
L 2150 4147 
z
M 1798 3723 
L 1798 1254 
L 256 1254 
L 1798 3723 
z
" transform="scale(0.015625)"/>
       </defs>
       <use xlink:href="#CMR17-34" transform="scale(0.996264)"/>
      </g>
     </g>
    </g>
    <g id="xtick_4">
     <g id="line2d_4">
      <g>
       <use xlink:href="#m9e8ed7857d" x="267.313719" y="307.584" style="stroke: #000000; stroke-width: 0.8"/>
      </g>
     </g>
     <g id="text_4">
      <!-- $\mathdefault{6}$ -->
      <g transform="translate(263.899475 324.269876)scale(0.14 -0.14)">
       <defs>
        <path id="CMR17-36" d="M 678 2198 
C 678 3712 1395 4076 1811 4076 
C 1946 4076 2272 4049 2400 3782 
C 2298 3782 2106 3782 2106 3558 
C 2106 3385 2246 3328 2336 3328 
C 2394 3328 2566 3353 2566 3571 
C 2566 3987 2246 4224 1805 4224 
C 1043 4224 243 3411 243 2011 
C 243 257 966 -128 1478 -128 
C 2099 -128 2688 431 2688 1295 
C 2688 2101 2170 2688 1517 2688 
C 1126 2688 838 2430 678 1979 
L 678 2198 
z
M 1478 25 
C 691 25 691 1212 691 1450 
C 691 1914 909 2585 1504 2585 
C 1613 2585 1926 2585 2138 2140 
C 2253 1889 2253 1624 2253 1302 
C 2253 954 2253 696 2118 438 
C 1978 173 1773 25 1478 25 
z
" transform="scale(0.015625)"/>
       </defs>
       <use xlink:href="#CMR17-36" transform="scale(0.996264)"/>
      </g>
     </g>
    </g>
    <g id="xtick_5">
     <g id="line2d_5">
      <g>
       <use xlink:href="#m9e8ed7857d" x="332.900496" y="307.584" style="stroke: #000000; stroke-width: 0.8"/>
      </g>
     </g>
     <g id="text_5">
      <!-- $\mathdefault{8}$ -->
      <g transform="translate(329.486252 324.269876)scale(0.14 -0.14)">
       <defs>
        <path id="CMR17-38" d="M 1741 2289 
C 2144 2494 2554 2803 2554 3298 
C 2554 3884 1990 4224 1472 4224 
C 890 4224 378 3800 378 3215 
C 378 3054 416 2777 666 2533 
C 730 2469 998 2276 1171 2154 
C 883 2006 211 1652 211 945 
C 211 282 838 -128 1459 -128 
C 2144 -128 2720 366 2720 1022 
C 2720 1607 2330 1877 2074 2051 
L 1741 2289 
z
M 902 2855 
C 851 2887 595 3086 595 3388 
C 595 3781 998 4076 1459 4076 
C 1965 4076 2336 3716 2336 3298 
C 2336 2700 1670 2359 1638 2359 
C 1632 2359 1626 2359 1574 2398 
L 902 2855 
z
M 2080 1536 
C 2176 1466 2483 1253 2483 861 
C 2483 385 2010 25 1472 25 
C 890 25 448 443 448 951 
C 448 1459 838 1884 1280 2083 
L 2080 1536 
z
" transform="scale(0.015625)"/>
       </defs>
       <use xlink:href="#CMR17-38" transform="scale(0.996264)"/>
      </g>
     </g>
    </g>
    <g id="xtick_6">
     <g id="line2d_6">
      <g>
       <use xlink:href="#m9e8ed7857d" x="398.487273" y="307.584" style="stroke: #000000; stroke-width: 0.8"/>
      </g>
     </g>
     <g id="text_6">
      <!-- $\mathdefault{10}$ -->
      <g transform="translate(391.658784 324.269876)scale(0.14 -0.14)">
       <defs>
        <path id="CMR17-31" d="M 1702 4083 
C 1702 4217 1696 4224 1606 4224 
C 1357 3927 979 3833 621 3820 
C 602 3820 570 3820 563 3808 
C 557 3795 557 3782 557 3648 
C 755 3648 1088 3686 1344 3839 
L 1344 467 
C 1344 243 1331 166 781 166 
L 589 166 
L 589 0 
C 896 6 1216 12 1523 12 
C 1830 12 2150 6 2458 0 
L 2458 166 
L 2266 166 
C 1715 166 1702 236 1702 467 
L 1702 4083 
z
" transform="scale(0.015625)"/>
       </defs>
       <use xlink:href="#CMR17-31" transform="scale(0.996264)"/>
       <use xlink:href="#CMR17-30" transform="translate(45.690477 0)scale(0.996264)"/>
      </g>
     </g>
    </g>
    <g id="text_7">
     <!-- $x$ (cm) -->
     <g transform="translate(215.967115 341.442677)scale(0.14 -0.14)">
      <defs>
       <path id="CMMI12-78" d="M 3034 2624 
C 2829 2585 2752 2431 2752 2310 
C 2752 2156 2874 2105 2963 2105 
C 3155 2105 3290 2271 3290 2444 
C 3290 2694 2982 2816 2714 2816 
C 2323 2816 2106 2451 2048 2329 
C 1901 2790 1504 2816 1389 2816 
C 736 2816 390 1993 390 1849 
C 390 1823 416 1790 461 1790 
C 512 1790 525 1829 538 1855 
C 755 2572 1184 2687 1370 2687 
C 1658 2687 1715 2438 1715 2284 
C 1715 2143 1677 1993 1600 1678 
L 1382 778 
C 1286 390 1101 64 762 64 
C 730 64 570 64 435 126 
C 666 166 717 358 717 435 
C 717 563 621 640 499 640 
C 346 640 179 505 179 300 
C 179 57 480 -64 755 -64 
C 1062 -64 1280 153 1414 415 
C 1517 64 1837 -64 2074 -64 
C 2726 -64 3072 751 3072 896 
C 3072 929 3046 955 3008 955 
C 2950 955 2944 922 2925 870 
C 2752 300 2381 64 2093 64 
C 1869 64 1747 204 1747 467 
C 1747 607 1773 712 1875 1146 
L 2099 2039 
C 2195 2425 2413 2687 2707 2687 
C 2720 2687 2899 2687 3034 2624 
z
" transform="scale(0.015625)"/>
       <path id="CMR17-28" d="M 1958 -1562 
C 1958 -1556 1958 -1543 1939 -1524 
C 1645 -1223 858 -403 858 1596 
C 858 3595 1632 4408 1946 4729 
C 1946 4735 1958 4748 1958 4767 
C 1958 4787 1939 4800 1914 4800 
C 1843 4800 1299 4325 986 3620 
C 666 2909 576 2218 576 1603 
C 576 1141 621 360 1005 -467 
C 1312 -1133 1837 -1600 1914 -1600 
C 1946 -1600 1958 -1588 1958 -1562 
z
" transform="scale(0.015625)"/>
       <path id="CMR17-63" d="M 2234 2240 
C 2112 2240 1933 2240 1933 2015 
C 1933 1836 2080 1785 2163 1785 
C 2208 1785 2394 1804 2394 2028 
C 2394 2476 1958 2816 1466 2816 
C 787 2816 211 2201 211 1379 
C 211 521 813 -64 1466 -64 
C 2259 -64 2458 676 2458 747 
C 2458 773 2451 792 2406 792 
C 2362 792 2355 786 2330 702 
C 2163 180 1798 51 1523 51 
C 1114 51 621 431 621 1385 
C 621 2358 1094 2700 1472 2700 
C 1722 2700 2093 2582 2234 2240 
z
" transform="scale(0.015625)"/>
       <path id="CMR17-6d" d="M 4326 1954 
C 4326 2276 4269 2816 3507 2816 
C 3072 2816 2771 2520 2656 2173 
L 2650 2173 
C 2573 2700 2195 2816 1837 2816 
C 1331 2816 1069 2424 973 2166 
L 966 2166 
L 966 2816 
L 211 2745 
L 211 2578 
C 589 2578 646 2540 646 2231 
L 646 443 
C 646 198 621 166 211 166 
L 211 0 
C 365 12 646 12 813 12 
C 979 12 1267 12 1421 0 
L 1421 166 
C 1011 166 986 192 986 443 
L 986 1678 
C 986 2269 1344 2713 1792 2713 
C 2266 2713 2317 2289 2317 1980 
L 2317 443 
C 2317 198 2291 166 1882 166 
L 1882 0 
C 2035 12 2317 12 2483 12 
C 2650 12 2938 12 3091 0 
L 3091 166 
C 2682 166 2656 192 2656 443 
L 2656 1678 
C 2656 2269 3014 2713 3462 2713 
C 3936 2713 3987 2289 3987 1980 
L 3987 443 
C 3987 198 3962 166 3552 166 
L 3552 0 
C 3706 12 3987 12 4154 12 
C 4320 12 4608 12 4762 0 
L 4762 166 
C 4352 166 4326 192 4326 443 
L 4326 1954 
z
" transform="scale(0.015625)"/>
       <path id="CMR17-29" d="M 1683 1596 
C 1683 2057 1638 2839 1254 3665 
C 947 4332 422 4800 346 4800 
C 326 4800 301 4793 301 4761 
C 301 4748 307 4742 314 4729 
C 621 4408 1402 3595 1402 1603 
C 1402 -396 627 -1210 314 -1530 
C 307 -1543 301 -1549 301 -1562 
C 301 -1594 326 -1600 346 -1600 
C 416 -1600 960 -1127 1274 -422 
C 1594 289 1683 981 1683 1596 
z
" transform="scale(0.015625)"/>
      </defs>
      <use xlink:href="#CMMI12-78" transform="scale(0.996264)"/>
      <use xlink:href="#CMR17-28" transform="translate(85.510026 0)scale(0.996264)"/>
      <use xlink:href="#CMR17-63" transform="translate(120.790794 0)scale(0.996264)"/>
      <use xlink:href="#CMR17-6d" transform="translate(161.276454 0)scale(0.996264)"/>
      <use xlink:href="#CMR17-29" transform="translate(238.196044 0)scale(0.996264)"/>
     </g>
    </g>
   </g>
   <g id="matplotlib.axis_2">
    <g id="ytick_1">
     <g id="line2d_7">
      <defs>
       <path id="m1112fd3a23" d="M 0 0 
L -3.5 0 
" style="stroke: #000000; stroke-width: 0.8"/>
      </defs>
      <g>
       <use xlink:href="#m1112fd3a23" x="57.6" y="295.488004" style="stroke: #000000; stroke-width: 0.8"/>
      </g>
     </g>
     <g id="text_8">
      <!-- $\mathdefault{0}$ -->
      <g transform="translate(43.771511 300.330942)scale(0.14 -0.14)">
       <use xlink:href="#CMR17-30" transform="scale(0.996264)"/>
      </g>
     </g>
    </g>
    <g id="ytick_2">
     <g id="line2d_8">
      <g>
       <use xlink:href="#m1112fd3a23" x="57.6" y="260.53603" style="stroke: #000000; stroke-width: 0.8"/>
      </g>
     </g>
     <g id="text_9">
      <!-- $\mathdefault{1}$ -->
      <g transform="translate(43.771511 265.378969)scale(0.14 -0.14)">
       <use xlink:href="#CMR17-31" transform="scale(0.996264)"/>
      </g>
     </g>
    </g>
    <g id="ytick_3">
     <g id="line2d_9">
      <g>
       <use xlink:href="#m1112fd3a23" x="57.6" y="225.584057" style="stroke: #000000; stroke-width: 0.8"/>
      </g>
     </g>
     <g id="text_10">
      <!-- $\mathdefault{2}$ -->
      <g transform="translate(43.771511 230.426995)scale(0.14 -0.14)">
       <use xlink:href="#CMR17-32" transform="scale(0.996264)"/>
      </g>
     </g>
    </g>
    <g id="ytick_4">
     <g id="line2d_10">
      <g>
       <use xlink:href="#m1112fd3a23" x="57.6" y="190.632083" style="stroke: #000000; stroke-width: 0.8"/>
      </g>
     </g>
     <g id="text_11">
      <!-- $\mathdefault{3}$ -->
      <g transform="translate(43.771511 195.475021)scale(0.14 -0.14)">
       <defs>
        <path id="CMR17-33" d="M 1414 2176 
C 1984 2176 2234 1673 2234 1094 
C 2234 322 1824 25 1453 25 
C 1114 25 563 193 390 691 
C 422 678 454 678 486 678 
C 640 678 755 780 755 947 
C 755 1132 614 1216 486 1216 
C 378 1216 211 1164 211 927 
C 211 335 787 -128 1466 -128 
C 2176 -128 2720 432 2720 1087 
C 2720 1718 2208 2176 1600 2246 
C 2086 2347 2554 2776 2554 3353 
C 2554 3856 2048 4224 1472 4224 
C 890 4224 378 3862 378 3347 
C 378 3123 544 3084 627 3084 
C 762 3084 877 3167 877 3334 
C 877 3500 762 3584 627 3584 
C 602 3584 570 3584 544 3571 
C 730 3999 1235 4076 1459 4076 
C 1683 4076 2106 3966 2106 3347 
C 2106 3167 2080 2851 1862 2574 
C 1670 2329 1453 2316 1242 2297 
C 1210 2297 1062 2284 1037 2284 
C 992 2278 966 2272 966 2227 
C 966 2182 973 2176 1101 2176 
L 1414 2176 
z
" transform="scale(0.015625)"/>
       </defs>
       <use xlink:href="#CMR17-33" transform="scale(0.996264)"/>
      </g>
     </g>
    </g>
    <g id="ytick_5">
     <g id="line2d_11">
      <g>
       <use xlink:href="#m1112fd3a23" x="57.6" y="155.680109" style="stroke: #000000; stroke-width: 0.8"/>
      </g>
     </g>
     <g id="text_12">
      <!-- $\mathdefault{4}$ -->
      <g transform="translate(43.771511 160.523047)scale(0.14 -0.14)">
       <use xlink:href="#CMR17-34" transform="scale(0.996264)"/>
      </g>
     </g>
    </g>
    <g id="ytick_6">
     <g id="line2d_12">
      <g>
       <use xlink:href="#m1112fd3a23" x="57.6" y="120.728135" style="stroke: #000000; stroke-width: 0.8"/>
      </g>
     </g>
     <g id="text_13">
      <!-- $\mathdefault{5}$ -->
      <g transform="translate(43.771511 125.571073)scale(0.14 -0.14)">
       <defs>
        <path id="CMR17-35" d="M 730 3750 
C 794 3724 1056 3641 1325 3641 
C 1920 3641 2246 3961 2432 4140 
C 2432 4191 2432 4224 2394 4224 
C 2387 4224 2374 4224 2323 4198 
C 2099 4102 1837 4032 1517 4032 
C 1325 4032 1037 4055 723 4191 
C 653 4224 640 4224 634 4224 
C 602 4224 595 4217 595 4090 
L 595 2231 
C 595 2113 595 2080 659 2080 
C 691 2080 704 2093 736 2139 
C 941 2435 1222 2560 1542 2560 
C 1766 2560 2246 2415 2246 1293 
C 2246 1087 2246 716 2054 422 
C 1894 159 1645 25 1370 25 
C 947 25 518 319 403 812 
C 429 806 480 793 506 793 
C 589 793 749 838 749 1036 
C 749 1209 627 1280 506 1280 
C 358 1280 262 1190 262 1011 
C 262 454 704 -128 1382 -128 
C 2042 -128 2669 441 2669 1267 
C 2669 2054 2170 2662 1549 2662 
C 1222 2662 947 2540 730 2304 
L 730 3750 
z
" transform="scale(0.015625)"/>
       </defs>
       <use xlink:href="#CMR17-35" transform="scale(0.996264)"/>
      </g>
     </g>
    </g>
    <g id="ytick_7">
     <g id="line2d_13">
      <g>
       <use xlink:href="#m1112fd3a23" x="57.6" y="85.776161" style="stroke: #000000; stroke-width: 0.8"/>
      </g>
     </g>
     <g id="text_14">
      <!-- $\mathdefault{6}$ -->
      <g transform="translate(43.771511 90.6191)scale(0.14 -0.14)">
       <use xlink:href="#CMR17-36" transform="scale(0.996264)"/>
      </g>
     </g>
    </g>
    <g id="ytick_8">
     <g id="line2d_14">
      <g>
       <use xlink:href="#m1112fd3a23" x="57.6" y="50.824187" style="stroke: #000000; stroke-width: 0.8"/>
      </g>
     </g>
     <g id="text_15">
      <!-- $\mathdefault{7}$ -->
      <g transform="translate(43.771511 55.667126)scale(0.14 -0.14)">
       <defs>
        <path id="CMR17-37" d="M 2886 3955 
L 2886 4096 
L 1382 4096 
C 634 4096 621 4166 595 4288 
L 480 4288 
L 294 3104 
L 410 3104 
C 429 3226 474 3552 550 3673 
C 589 3724 1062 3724 1171 3724 
L 2579 3724 
L 1869 2670 
C 1395 1961 1069 1003 1069 166 
C 1069 89 1069 -128 1299 -128 
C 1530 -128 1530 89 1530 172 
L 1530 466 
C 1530 1514 1709 2204 2003 2644 
L 2886 3955 
z
" transform="scale(0.015625)"/>
       </defs>
       <use xlink:href="#CMR17-37" transform="scale(0.996264)"/>
      </g>
     </g>
    </g>
    <g id="text_16">
     <!-- Number of atoms $N_A$ -->
     <g transform="translate(37.059483 238.042301)rotate(-90)scale(0.14 -0.14)">
      <defs>
       <path id="CMR17-4e" d="M 1312 4275 
C 1267 4345 1261 4352 1139 4352 
L 326 4352 
L 326 4185 
L 448 4185 
C 704 4185 819 4153 838 4147 
L 838 624 
C 838 465 838 166 326 166 
L 326 0 
C 474 12 742 12 902 12 
C 1062 12 1331 12 1478 0 
L 1478 166 
C 966 166 966 465 966 624 
L 966 4057 
C 1011 4019 1011 4007 1056 3943 
L 3430 76 
C 3475 0 3494 0 3526 0 
C 3590 0 3590 19 3590 140 
L 3590 3726 
C 3590 3885 3590 4185 4102 4185 
L 4102 4352 
C 3955 4339 3686 4339 3526 4339 
C 3366 4339 3098 4339 2950 4352 
L 2950 4185 
C 3462 4185 3462 3885 3462 3726 
L 3462 777 
L 1312 4275 
z
" transform="scale(0.015625)"/>
       <path id="CMR17-75" d="M 1882 2745 
L 1882 2579 
C 2259 2579 2317 2540 2317 2229 
L 2317 1053 
C 2317 510 2029 38 1555 38 
C 1030 38 986 355 986 691 
L 986 2816 
L 211 2745 
L 211 2579 
C 467 2579 640 2579 646 2320 
L 646 1079 
C 646 646 646 368 813 187 
C 896 103 1056 -64 1517 -64 
C 2061 -64 2272 400 2323 536 
L 2330 536 
L 2330 -64 
L 3091 -13 
L 3091 154 
C 2714 154 2656 193 2656 503 
L 2656 2816 
L 1882 2745 
z
" transform="scale(0.015625)"/>
       <path id="CMR17-62" d="M 960 4416 
L 198 4345 
L 198 4179 
C 576 4179 634 4141 634 3843 
L 634 -13 
L 749 -13 
L 934 445 
C 1120 141 1395 -64 1766 -64 
C 2406 -64 3053 503 3053 1382 
C 3053 2209 2477 2816 1830 2816 
C 1434 2816 1152 2603 960 2351 
L 960 4416 
z
M 973 2022 
C 973 2138 973 2157 1062 2293 
C 1312 2681 1670 2713 1792 2713 
C 1984 2713 2643 2610 2643 1388 
C 2643 109 1888 38 1734 38 
C 1536 38 1248 115 1043 490 
C 973 613 973 626 973 742 
L 973 2022 
z
" transform="scale(0.015625)"/>
       <path id="CMR17-65" d="M 2438 1503 
C 2464 1529 2464 1542 2464 1606 
C 2464 2251 2118 2816 1389 2816 
C 710 2816 173 2175 173 1394 
C 173 554 781 -64 1459 -64 
C 2176 -64 2458 619 2458 755 
C 2458 800 2419 800 2406 800 
C 2362 800 2355 787 2330 709 
C 2189 270 1837 51 1504 51 
C 1229 51 954 206 781 490 
C 582 819 582 1200 582 1503 
L 2438 1503 
z
M 589 1600 
C 634 2511 1126 2713 1382 2713 
C 1818 2713 2112 2308 2118 1600 
L 589 1600 
z
" transform="scale(0.015625)"/>
       <path id="CMR17-72" d="M 960 1517 
C 960 2134 1222 2713 1702 2713 
C 1747 2713 1792 2707 1837 2687 
C 1837 2687 1696 2642 1696 2475 
C 1696 2321 1818 2257 1914 2257 
C 1990 2257 2131 2302 2131 2482 
C 2131 2687 1926 2816 1709 2816 
C 1222 2816 1011 2340 947 2115 
L 941 2115 
L 941 2816 
L 198 2745 
L 198 2578 
C 576 2578 634 2540 634 2231 
L 634 443 
C 634 198 608 166 198 166 
L 198 0 
C 352 12 646 12 813 12 
C 998 12 1325 12 1498 0 
L 1498 166 
C 1037 166 960 166 960 455 
L 960 1517 
z
" transform="scale(0.015625)"/>
       <path id="CMR17-6f" d="M 2758 1356 
C 2758 2176 2163 2816 1466 2816 
C 768 2816 173 2176 173 1356 
C 173 550 768 -64 1466 -64 
C 2163 -64 2758 550 2758 1356 
z
M 1466 51 
C 1165 51 909 230 762 480 
C 602 768 582 1126 582 1408 
C 582 1676 595 2009 762 2297 
C 890 2508 1139 2713 1466 2713 
C 1754 2713 1997 2553 2150 2329 
C 2349 2028 2349 1606 2349 1408 
C 2349 1158 2336 774 2163 467 
C 1984 172 1709 51 1466 51 
z
" transform="scale(0.015625)"/>
       <path id="CMR17-66" d="M 979 2585 
L 1709 2585 
L 1709 2752 
L 966 2752 
L 966 3539 
C 966 4076 1235 4377 1510 4377 
C 1594 4377 1690 4363 1754 4339 
C 1702 4326 1568 4281 1568 4121 
C 1568 3955 1696 3904 1786 3904 
C 1875 3904 2003 3955 2003 4121 
C 2003 4353 1773 4480 1517 4480 
C 1152 4480 653 4211 653 3526 
L 653 2752 
L 141 2752 
L 141 2585 
L 653 2585 
L 653 441 
C 653 198 627 166 218 166 
L 218 0 
C 371 12 666 12 832 12 
C 1018 12 1344 12 1517 0 
L 1517 166 
C 1056 166 979 166 979 454 
L 979 2585 
z
" transform="scale(0.015625)"/>
       <path id="CMR17-61" d="M 2304 1656 
C 2304 2048 2304 2275 2035 2534 
C 1798 2751 1523 2816 1306 2816 
C 800 2816 435 2408 435 1977 
C 435 1740 627 1728 666 1728 
C 749 1728 896 1779 896 1958 
C 896 2118 774 2188 666 2188 
C 640 2188 608 2182 589 2176 
C 723 2594 1069 2713 1293 2713 
C 1613 2713 1965 2421 1965 1875 
L 1965 1632 
C 1587 1619 1133 1568 774 1373 
C 371 1147 256 822 256 576 
C 256 77 832 -64 1171 -64 
C 1523 -64 1850 135 1990 505 
C 2003 219 2182 -39 2464 -39 
C 2598 -39 2938 51 2938 563 
L 2938 926 
L 2822 926 
L 2822 557 
C 2822 161 2650 109 2566 109 
C 2304 109 2304 446 2304 732 
L 2304 1656 
z
M 1965 887 
C 1965 323 1568 38 1216 38 
C 896 38 646 278 646 576 
C 646 771 730 1114 1101 1322 
C 1408 1497 1760 1523 1965 1536 
L 1965 887 
z
" transform="scale(0.015625)"/>
       <path id="CMR17-74" d="M 966 2585 
L 1862 2585 
L 1862 2752 
L 966 2752 
L 966 3968 
L 851 3968 
C 838 3292 614 2700 70 2687 
L 70 2585 
L 627 2585 
L 627 778 
C 627 655 627 -64 1370 -64 
C 1747 -64 1965 308 1965 784 
L 1965 1151 
L 1850 1151 
L 1850 790 
C 1850 347 1677 51 1408 51 
C 1222 51 966 179 966 765 
L 966 2585 
z
" transform="scale(0.015625)"/>
       <path id="CMR17-73" d="M 1978 2688 
C 1978 2803 1971 2809 1933 2809 
C 1907 2809 1901 2803 1824 2707 
C 1805 2681 1747 2617 1728 2592 
C 1523 2809 1235 2816 1126 2816 
C 416 2816 160 2444 160 2073 
C 160 1497 813 1363 998 1324 
C 1402 1241 1542 1216 1677 1100 
C 1760 1024 1901 883 1901 652 
C 1901 384 1747 38 1158 38 
C 602 38 403 460 288 1024 
C 269 1113 269 1120 218 1120 
C 166 1120 160 1113 160 985 
L 160 64 
C 160 -52 166 -58 205 -58 
C 237 -58 243 -52 275 0 
C 314 57 410 211 448 275 
C 576 102 800 -64 1158 -64 
C 1792 -64 2131 281 2131 780 
C 2131 1107 1958 1280 1875 1356 
C 1683 1555 1459 1600 1190 1651 
C 838 1728 390 1817 390 2208 
C 390 2374 480 2726 1126 2726 
C 1811 2726 1850 2086 1862 1881 
C 1869 1849 1901 1843 1920 1843 
C 1978 1843 1978 1862 1978 1971 
L 1978 2688 
z
" transform="scale(0.015625)"/>
       <path id="CMMI12-4e" d="M 4736 3682 
C 4806 3956 4909 4147 5395 4166 
C 5414 4166 5491 4172 5491 4281 
C 5491 4352 5434 4352 5408 4352 
C 5280 4352 4954 4339 4826 4339 
L 4518 4339 
C 4429 4339 4314 4352 4224 4352 
C 4186 4352 4109 4352 4109 4230 
C 4109 4166 4160 4166 4205 4166 
C 4589 4153 4614 4007 4614 3892 
C 4614 3835 4608 3816 4589 3726 
L 3866 854 
L 2496 4243 
C 2451 4345 2445 4352 2304 4352 
L 1523 4352 
C 1395 4352 1338 4352 1338 4230 
C 1338 4166 1382 4166 1504 4166 
C 1536 4166 1914 4166 1914 4109 
C 1914 4096 1901 4045 1894 4026 
L 1043 650 
C 966 338 813 204 390 185 
C 358 185 294 179 294 64 
C 294 0 358 0 378 0 
C 506 0 832 12 960 12 
L 1267 12 
C 1357 12 1466 0 1555 0 
C 1600 0 1670 0 1670 121 
C 1670 179 1606 185 1581 185 
C 1370 191 1165 230 1165 459 
C 1165 510 1178 567 1190 618 
L 2054 4026 
C 2093 3962 2093 3949 2118 3892 
L 3642 115 
C 3674 38 3686 0 3744 0 
C 3808 0 3814 19 3840 128 
L 4736 3682 
z
" transform="scale(0.015625)"/>
       <path id="CMMI12-41" d="M 1088 720 
C 864 335 646 205 339 185 
C 269 179 218 179 218 64 
C 218 25 250 0 294 0 
C 410 0 698 12 813 12 
C 998 12 1203 0 1382 0 
C 1421 0 1498 0 1498 121 
C 1498 179 1446 185 1408 185 
C 1261 198 1139 250 1139 407 
C 1139 498 1178 570 1261 714 
L 1747 1536 
L 3379 1536 
C 3386 1477 3386 1425 3392 1366 
C 3411 1196 3488 518 3488 394 
C 3488 198 3162 185 3059 185 
C 2989 185 2918 185 2918 70 
C 2918 0 2976 0 3014 0 
C 3123 0 3251 12 3360 12 
L 3725 12 
C 4115 12 4397 0 4403 0 
C 4448 0 4518 0 4518 121 
C 4518 185 4461 185 4365 185 
C 4013 185 4006 244 3987 440 
L 3597 4403 
C 3584 4531 3558 4544 3488 4544 
C 3424 4544 3386 4531 3328 4435 
L 1088 720 
z
M 1856 1721 
L 3142 3831 
L 3360 1721 
L 1856 1721 
z
" transform="scale(0.015625)"/>
      </defs>
      <use xlink:href="#CMR17-4e" transform="scale(0.996264)"/>
      <use xlink:href="#CMR17-75" transform="translate(69.07243 0)scale(0.996264)"/>
      <use xlink:href="#CMR17-6d" transform="translate(119.9678 0)scale(0.996264)"/>
      <use xlink:href="#CMR17-62" transform="translate(194.284936 0)scale(0.996264)"/>
      <use xlink:href="#CMR17-65" transform="translate(247.782744 0)scale(0.996264)"/>
      <use xlink:href="#CMR17-72" transform="translate(288.268404 0)scale(0.996264)"/>
      <use xlink:href="#CMR17-6f" transform="translate(353.625139 0)scale(0.996264)"/>
      <use xlink:href="#CMR17-66" transform="translate(399.315616 0)scale(0.996264)"/>
      <use xlink:href="#CMR17-61" transform="translate(456.865095 0)scale(0.996264)"/>
      <use xlink:href="#CMR17-74" transform="translate(502.555572 0)scale(0.996264)"/>
      <use xlink:href="#CMR17-6f" transform="translate(537.836339 0)scale(0.996264)"/>
      <use xlink:href="#CMR17-6d" transform="translate(583.526817 0)scale(0.996264)"/>
      <use xlink:href="#CMR17-73" transform="translate(660.446406 0)scale(0.996264)"/>
      <use xlink:href="#CMMI12-4e" transform="translate(726.32371 0)scale(0.996264)"/>
      <use xlink:href="#CMMI12-41" transform="translate(804.438829 -14.943915)scale(0.697382)"/>
     </g>
    </g>
    <g id="text_17">
     <!-- $\times\mathdefault{10^{11}}\mathdefault{}$ -->
     <g transform="translate(57.6 38.472)scale(0.14 -0.14)">
      <defs>
       <path id="CMSY10-2" d="M 2490 1775 
L 1210 3046 
C 1133 3123 1120 3136 1069 3136 
C 1005 3136 941 3078 941 3008 
C 941 2963 954 2950 1024 2880 
L 2304 1596 
L 1024 313 
C 954 243 941 230 941 185 
C 941 115 1005 57 1069 57 
C 1120 57 1133 70 1210 147 
L 2483 1418 
L 3808 95 
C 3821 89 3866 57 3904 57 
C 3981 57 4032 115 4032 185 
C 4032 198 4032 223 4013 255 
C 4006 268 2989 1271 2669 1596 
L 3840 2765 
C 3872 2803 3968 2886 4000 2925 
C 4006 2937 4032 2963 4032 3008 
C 4032 3078 3981 3136 3904 3136 
C 3853 3136 3827 3110 3757 3040 
L 2490 1775 
z
" transform="scale(0.015625)"/>
      </defs>
      <use xlink:href="#CMSY10-2" transform="scale(0.996264)"/>
      <use xlink:href="#CMR17-31" transform="translate(77.487468 0)scale(0.996264)"/>
      <use xlink:href="#CMR17-30" transform="translate(123.177945 0)scale(0.996264)"/>
      <use xlink:href="#CMR17-31" transform="translate(168.868422 36.153639)scale(0.697382)"/>
      <use xlink:href="#CMR17-31" transform="translate(200.851604 36.153639)scale(0.697382)"/>
     </g>
    </g>
   </g>
   <g id="line2d_15">
    <path d="M 73.832727 295.488 
L 77.112066 295.487834 
L 80.391405 295.487117 
L 83.670744 295.485528 
L 86.950083 295.482793 
L 90.229421 295.478641 
L 93.50876 295.472815 
L 96.788099 295.465074 
L 100.067438 295.455182 
L 103.346777 295.442907 
L 106.626116 295.428024 
L 109.905455 295.410307 
L 113.184793 295.389571 
L 116.464132 295.365562 
L 119.743471 295.338096 
L 123.02281 295.306947 
L 126.302149 295.271932 
L 129.581488 295.232865 
L 132.860826 295.189531 
L 136.140165 295.141741 
L 139.419504 295.089322 
L 142.698843 295.032034 
L 145.978182 294.969694 
L 149.257521 294.902126 
L 152.53686 294.829159 
L 155.816198 294.75063 
L 159.095537 294.66634 
L 162.374876 294.576114 
L 165.654215 294.479778 
L 168.933554 294.377156 
L 172.212893 294.26807 
L 175.492231 294.152337 
L 178.77157 294.029756 
L 182.050909 293.900147 
L 185.330248 293.763345 
L 188.609587 293.61919 
L 191.888926 293.467524 
L 195.168264 293.30819 
L 198.447603 293.141011 
L 201.726942 292.965828 
L 205.006281 292.782479 
L 208.28562 292.590802 
L 211.564959 292.390636 
L 214.844298 292.181823 
L 218.123636 291.9642 
L 221.402975 291.737613 
L 224.682314 291.501932 
L 227.961653 291.25696 
L 231.240992 291.002531 
L 234.520331 290.738473 
L 237.799669 290.464589 
L 241.079008 290.180707 
L 244.358347 289.886679 
L 247.637686 289.58241 
L 250.917025 289.267692 
L 254.196364 288.942379 
L 257.475702 288.606324 
L 260.755041 288.259385 
L 264.03438 287.901482 
L 267.313719 287.532407 
L 270.593058 287.151987 
L 273.872397 286.76007 
L 277.151736 286.356531 
L 280.431074 285.941296 
L 283.710413 285.514121 
L 286.989752 285.074858 
L 290.269091 284.623372 
L 293.54843 284.159631 
L 296.827769 283.683362 
L 300.107107 283.194415 
L 303.386446 282.692698 
L 306.665785 282.178118 
L 309.945124 281.65042 
L 313.224463 281.109452 
L 316.503802 280.555213 
L 319.78314 279.98744 
L 323.062479 279.405946 
L 326.341818 278.810672 
L 329.621157 278.201459 
L 332.900496 277.578008 
L 336.179835 276.940225 
L 339.459174 276.288048 
L 342.738512 275.621193 
L 346.017851 274.939576 
L 349.29719 274.243172 
L 352.576529 273.531673 
L 355.855868 272.80502 
L 359.135207 272.063175 
L 362.414545 271.305832 
L 365.693884 270.532986 
L 368.973223 269.744527 
L 372.252562 268.940169 
L 375.531901 268.11996 
L 378.81124 267.283645 
L 382.090579 266.430997 
L 385.369917 265.562184 
L 388.649256 264.676761 
L 391.928595 263.774712 
L 395.207934 262.855983 
L 398.487273 261.920229 
" clip-path="url(#pe9a11dbaa3)" style="fill: none; stroke: #1f77b4; stroke-width: 1.5; stroke-linecap: square"/>
   </g>
   <g id="line2d_16">
    <path d="M 73.832727 295.487998 
L 77.112066 295.487775 
L 80.391405 295.48687 
L 83.670744 295.484942 
L 86.950083 295.481685 
L 90.229421 295.47681 
L 93.50876 295.470001 
L 96.788099 295.460971 
L 100.067438 295.449381 
L 103.346777 295.434822 
L 106.626116 295.417231 
L 109.905455 295.395913 
L 113.184793 295.370464 
L 116.464132 295.34056 
L 119.743471 295.306075 
L 123.02281 295.266091 
L 126.302149 295.220285 
L 129.581488 295.168055 
L 132.860826 295.108816 
L 136.140165 295.042337 
L 139.419504 294.967119 
L 142.698843 294.883512 
L 145.978182 294.789532 
L 149.257521 294.685219 
L 152.53686 294.569238 
L 155.816198 294.440658 
L 159.095537 294.298135 
L 162.374876 294.142627 
L 165.654215 293.971328 
L 168.933554 293.783083 
L 172.212893 293.576808 
L 175.492231 293.350703 
L 178.77157 293.104603 
L 182.050909 292.836706 
L 185.330248 292.54483 
L 188.609587 292.227261 
L 191.888926 291.88541 
L 195.168264 291.515024 
L 198.447603 291.114367 
L 201.726942 290.681394 
L 205.006281 290.213206 
L 208.28562 289.708201 
L 211.564959 289.165974 
L 214.844298 288.581684 
L 218.123636 287.954003 
L 221.402975 287.280344 
L 224.682314 286.557992 
L 227.961653 285.784105 
L 231.240992 284.955712 
L 234.520331 284.069713 
L 237.799669 283.120504 
L 241.079008 282.108298 
L 244.358347 281.027468 
L 247.637686 279.874775 
L 250.917025 278.647246 
L 254.196364 277.341268 
L 257.475702 275.953384 
L 260.755041 274.479461 
L 264.03438 272.915402 
L 267.313719 271.256977 
L 270.593058 269.499708 
L 273.872397 267.641464 
L 277.151736 265.67463 
L 280.431074 263.595076 
L 283.710413 261.39762 
L 286.989752 259.076886 
L 290.269091 256.62652 
L 293.54843 254.040988 
L 296.827769 251.333172 
L 300.107107 248.449977 
L 303.386446 245.401191 
L 306.665785 242.178359 
L 309.945124 238.781362 
L 313.224463 235.211381 
L 316.503802 231.465789 
L 319.78314 227.541252 
L 323.062479 223.433556 
L 326.341818 219.187515 
L 329.621157 214.678783 
L 332.900496 209.948216 
L 336.179835 204.973356 
L 339.459174 199.757251 
L 342.738512 194.288361 
L 346.017851 188.5528 
L 349.29719 182.541374 
L 352.576529 176.244362 
L 355.855868 169.654085 
L 359.135207 162.765524 
L 362.414545 155.571757 
L 365.693884 148.058192 
L 368.973223 140.287957 
L 372.252562 132.211226 
L 375.531901 123.811988 
L 378.81124 115.065563 
L 382.090579 105.934633 
L 385.369917 96.366646 
L 388.649256 86.104144 
L 391.928595 75.835837 
L 395.207934 64.931622 
L 398.487273 53.568 
" clip-path="url(#pe9a11dbaa3)" style="fill: none; stroke: #ff7f0e; stroke-width: 1.5; stroke-linecap: square"/>
   </g>
   <g id="line2d_17">
    <path d="M 73.832727 295.487997 
L 77.112066 295.487734 
L 80.391405 295.486715 
L 83.670744 295.484575 
L 86.950083 295.480952 
L 90.229421 295.475447 
L 93.50876 295.467557 
L 96.788099 295.456745 
L 100.067438 295.44239 
L 103.346777 295.423644 
L 106.626116 295.399671 
L 109.905455 295.369461 
L 113.184793 295.332018 
L 116.464132 295.285805 
L 119.743471 295.229653 
L 123.02281 295.16168 
L 126.302149 295.080129 
L 129.581488 294.983107 
L 132.860826 294.86839 
L 136.140165 294.733612 
L 139.419504 294.576227 
L 142.698843 294.393506 
L 145.978182 294.182497 
L 149.257521 293.940222 
L 152.53686 293.663339 
L 155.816198 293.349579 
L 159.095537 292.992282 
L 162.374876 292.58908 
L 165.654215 292.136052 
L 168.933554 291.631189 
L 172.212893 291.069588 
L 175.492231 290.445827 
L 178.77157 289.756454 
L 182.050909 289.006903 
L 185.330248 288.194092 
L 188.609587 287.3049 
L 191.888926 286.347905 
L 195.168264 285.330293 
L 198.447603 284.256451 
L 201.726942 283.116043 
L 205.006281 281.932451 
L 208.28562 280.69607 
L 211.564959 279.454631 
L 214.844298 278.199195 
L 218.123636 276.931484 
L 221.402975 275.699184 
L 224.682314 274.502452 
L 227.961653 273.360604 
L 231.240992 272.262197 
L 234.520331 271.268962 
L 237.799669 270.449189 
L 241.079008 269.828685 
L 244.358347 269.384137 
L 247.637686 269.155168 
L 250.917025 269.21747 
L 254.196364 269.306644 
L 257.475702 269.545939 
L 260.755041 269.946787 
L 264.03438 270.383168 
L 267.313719 270.566117 
L 270.593058 270.709032 
L 273.872397 270.70732 
L 277.151736 270.576725 
L 280.431074 270.232202 
L 283.710413 270.042103 
L 286.989752 269.571946 
L 290.269091 269.106177 
L 293.54843 268.507122 
L 296.827769 268.056247 
L 300.107107 267.846307 
L 303.386446 267.295823 
L 306.665785 266.664075 
L 309.945124 266.073602 
L 313.224463 265.482555 
L 316.503802 264.848016 
L 319.78314 264.026537 
L 323.062479 263.354833 
L 326.341818 262.740593 
L 329.621157 261.938887 
L 332.900496 261.112021 
L 336.179835 260.178534 
L 339.459174 259.477454 
L 342.738512 259.019167 
L 346.017851 258.312361 
L 349.29719 257.45546 
L 352.576529 256.642794 
L 355.855868 255.849489 
L 359.135207 254.836132 
L 362.414545 254.15119 
L 365.693884 253.10122 
L 368.973223 252.406808 
L 372.252562 251.344378 
L 375.531901 250.351575 
L 378.81124 249.185607 
L 382.090579 248.310642 
L 385.369917 247.90922 
L 388.649256 246.982425 
L 391.928595 245.941543 
L 395.207934 245.002365 
L 398.487273 244.005629 
" clip-path="url(#pe9a11dbaa3)" style="fill: none; stroke: #2ca02c; stroke-width: 1.5; stroke-linecap: square"/>
   </g>
   <g id="line2d_18">
    <path d="M 73.832727 295.487996 
L 77.112066 295.487702 
L 80.391405 295.486598 
L 83.670744 295.484294 
L 86.950083 295.480301 
L 90.229421 295.473969 
L 93.50876 295.46452 
L 96.788099 295.450959 
L 100.067438 295.432139 
L 103.346777 295.406809 
L 106.626116 295.373258 
L 109.905455 295.329785 
L 113.184793 295.275113 
L 116.464132 295.207073 
L 119.743471 295.124018 
L 123.02281 295.02527 
L 126.302149 294.909321 
L 129.581488 294.776321 
L 132.860826 294.629103 
L 136.140165 294.468535 
L 139.419504 294.296719 
L 142.698843 294.125112 
L 145.978182 293.95298 
L 149.257521 293.78804 
L 152.53686 293.640311 
L 155.816198 293.513565 
L 159.095537 293.455556 
L 162.374876 293.407368 
L 165.654215 293.415359 
L 168.933554 293.463489 
L 172.212893 293.514996 
L 175.492231 293.551748 
L 178.77157 293.519314 
L 182.050909 293.50518 
L 185.330248 293.500194 
L 188.609587 293.451891 
L 191.888926 293.387394 
L 195.168264 293.319636 
L 198.447603 293.243541 
L 201.726942 293.131158 
L 205.006281 293.075786 
L 208.28562 292.984819 
L 211.564959 292.889493 
L 214.844298 292.785917 
L 218.123636 292.682663 
L 221.402975 292.580925 
L 224.682314 292.446422 
L 227.961653 292.35139 
L 231.240992 292.234895 
L 234.520331 292.114694 
L 237.799669 291.992644 
L 241.079008 291.864821 
L 244.358347 291.738514 
L 247.637686 291.586868 
L 250.917025 291.413628 
L 254.196364 291.326899 
L 257.475702 291.186888 
L 260.755041 291.046499 
L 264.03438 290.894474 
L 267.313719 290.746264 
L 270.593058 290.604069 
L 273.872397 290.413706 
L 277.151736 290.214594 
L 280.431074 290.123621 
L 283.710413 289.964164 
L 286.989752 289.798704 
L 290.269091 289.6355 
L 293.54843 289.457061 
L 296.827769 289.282366 
L 300.107107 289.117429 
L 303.386446 288.896556 
L 306.665785 288.668614 
L 309.945124 288.474862 
L 313.224463 288.379611 
L 316.503802 288.192546 
L 319.78314 287.999919 
L 323.062479 287.809405 
L 326.341818 287.614672 
L 329.621157 287.40578 
L 332.900496 287.204575 
L 336.179835 287.012713 
L 339.459174 286.799636 
L 342.738512 286.537528 
L 346.017851 286.252785 
L 349.29719 286.035713 
L 352.576529 285.942556 
L 355.855868 285.724737 
L 359.135207 285.500047 
L 362.414545 285.278982 
L 365.693884 285.057031 
L 368.973223 284.827109 
L 372.252562 284.583005 
L 375.531901 284.343042 
L 378.81124 284.108853 
L 382.090579 283.889002 
L 385.369917 283.62224 
L 388.649256 283.263871 
L 391.928595 282.966071 
L 395.207934 282.713649 
L 398.487273 282.626089 
" clip-path="url(#pe9a11dbaa3)" style="fill: none; stroke: #d62728; stroke-width: 1.5; stroke-linecap: square"/>
   </g>
   <g id="line2d_19">
    <path d="M 73.832727 295.487995 
L 77.112066 295.487679 
L 80.391405 295.486525 
L 83.670744 295.484069 
L 86.950083 295.479688 
L 90.229421 295.472542 
L 93.50876 295.461662 
L 96.788099 295.445958 
L 100.067438 295.424499 
L 103.346777 295.396842 
L 106.626116 295.362728 
L 109.905455 295.322645 
L 113.184793 295.27916 
L 116.464132 295.234173 
L 119.743471 295.190948 
L 123.02281 295.154796 
L 126.302149 295.12898 
L 129.581488 295.121094 
L 132.860826 295.130122 
L 136.140165 295.142854 
L 139.419504 295.150161 
L 142.698843 295.148762 
L 145.978182 295.140697 
L 149.257521 295.127358 
L 152.53686 295.110876 
L 155.816198 295.091856 
L 159.095537 295.068252 
L 162.374876 295.047514 
L 165.654215 295.022327 
L 168.933554 294.995747 
L 172.212893 294.96828 
L 175.492231 294.930953 
L 178.77157 294.909072 
L 182.050909 294.877152 
L 185.330248 294.844439 
L 188.609587 294.81084 
L 191.888926 294.776821 
L 195.168264 294.740311 
L 198.447603 294.70214 
L 201.726942 294.664593 
L 205.006281 294.62507 
L 208.28562 294.585406 
L 211.564959 294.533345 
L 214.844298 294.501953 
L 218.123636 294.457898 
L 221.402975 294.413482 
L 224.682314 294.367755 
L 227.961653 294.321816 
L 231.240992 294.275781 
L 234.520331 294.225972 
L 237.799669 294.17637 
L 241.079008 294.12499 
L 244.358347 294.073476 
L 247.637686 294.020964 
L 250.917025 293.967636 
L 254.196364 293.913902 
L 257.475702 293.860557 
L 260.755041 293.801795 
L 264.03438 293.744766 
L 267.313719 293.685633 
L 270.593058 293.624874 
L 273.872397 293.565698 
L 277.151736 293.502736 
L 280.431074 293.440887 
L 283.710413 293.378108 
L 286.989752 293.315823 
L 290.269091 293.22385 
L 293.54843 293.182153 
L 296.827769 293.113756 
L 300.107107 293.045017 
L 303.386446 292.974354 
L 306.665785 292.904908 
L 309.945124 292.832559 
L 313.224463 292.759981 
L 316.503802 292.68708 
L 319.78314 292.613566 
L 323.062479 292.54121 
L 326.341818 292.447174 
L 329.621157 292.384501 
L 332.900496 292.306432 
L 336.179835 292.226836 
L 339.459174 292.145605 
L 342.738512 292.063195 
L 346.017851 291.980239 
L 349.29719 291.898023 
L 352.576529 291.81196 
L 355.855868 291.727233 
L 359.135207 291.641986 
L 362.414545 291.555799 
L 365.693884 291.468473 
L 368.973223 291.383758 
L 372.252562 291.236667 
L 375.531901 291.196894 
L 378.81124 291.105164 
L 382.090579 291.011914 
L 385.369917 290.91465 
L 388.649256 290.818257 
L 391.928595 290.721325 
L 395.207934 290.627146 
L 398.487273 290.527672 
" clip-path="url(#pe9a11dbaa3)" style="fill: none; stroke: #9467bd; stroke-width: 1.5; stroke-linecap: square"/>
   </g>
   <g id="line2d_20">
    <path d="M 73.832727 295.487994 
L 77.112066 295.487664 
L 80.391405 295.486486 
L 83.670744 295.483963 
L 86.950083 295.479431 
L 90.229421 295.472177 
L 93.50876 295.461889 
L 96.788099 295.448593 
L 100.067438 295.43313 
L 103.346777 295.416842 
L 106.626116 295.402678 
L 109.905455 295.392397 
L 113.184793 295.390107 
L 116.464132 295.394332 
L 119.743471 295.397555 
L 123.02281 295.395947 
L 126.302149 295.394336 
L 129.581488 295.389094 
L 132.860826 295.381517 
L 136.140165 295.375088 
L 139.419504 295.366604 
L 142.698843 295.357598 
L 145.978182 295.345631 
L 149.257521 295.337161 
L 152.53686 295.325918 
L 155.816198 295.314536 
L 159.095537 295.299197 
L 162.374876 295.289426 
L 165.654215 295.276013 
L 168.933554 295.262534 
L 172.212893 295.24427 
L 175.492231 295.233235 
L 178.77157 295.217862 
L 182.050909 295.201834 
L 185.330248 295.184616 
L 188.609587 295.169022 
L 191.888926 295.151659 
L 195.168264 295.133708 
L 198.447603 295.115069 
L 201.726942 295.097164 
L 205.006281 295.072519 
L 208.28562 295.057822 
L 211.564959 295.037714 
L 214.844298 295.016648 
L 218.123636 294.995325 
L 221.402975 294.974079 
L 224.682314 294.950295 
L 227.961653 294.920636 
L 231.240992 294.906004 
L 234.520331 294.882416 
L 237.799669 294.858147 
L 241.079008 294.833258 
L 244.358347 294.807782 
L 247.637686 294.783552 
L 250.917025 294.753676 
L 254.196364 294.719254 
L 257.475702 294.703463 
L 260.755041 294.675906 
L 264.03438 294.648231 
L 267.313719 294.619366 
L 270.593058 294.590484 
L 273.872397 294.560331 
L 277.151736 294.532006 
L 280.431074 294.501627 
L 283.710413 294.459622 
L 286.989752 294.421705 
L 290.269091 294.407282 
L 293.54843 294.37466 
L 296.827769 294.342211 
L 300.107107 294.308792 
L 303.386446 294.274626 
L 306.665785 294.239981 
L 309.945124 294.204955 
L 313.224463 294.171661 
L 316.503802 294.136587 
L 319.78314 294.090488 
L 323.062479 294.043835 
L 326.341818 294.025665 
L 329.621157 293.988322 
L 332.900496 293.949706 
L 336.179835 293.912191 
L 339.459174 293.873043 
L 342.738512 293.832787 
L 346.017851 293.791981 
L 349.29719 293.751609 
L 352.576529 293.709893 
L 355.855868 293.670676 
L 359.135207 293.630359 
L 362.414545 293.587227 
L 365.693884 293.527501 
L 368.973223 293.49979 
L 372.252562 293.457082 
L 375.531901 293.41205 
L 378.81124 293.367798 
L 382.090579 293.322938 
L 385.369917 293.276209 
L 388.649256 293.229586 
L 391.928595 293.183254 
L 395.207934 293.134321 
L 398.487273 293.086856 
" clip-path="url(#pe9a11dbaa3)" style="fill: none; stroke: #8c564b; stroke-width: 1.5; stroke-linecap: square"/>
   </g>
   <g id="patch_3">
    <path d="M 57.6 307.584 
L 57.6 41.472 
" style="fill: none; stroke: #000000; stroke-width: 0.8; stroke-linejoin: miter; stroke-linecap: square"/>
   </g>
   <g id="patch_4">
    <path d="M 414.72 307.584 
L 414.72 41.472 
" style="fill: none; stroke: #000000; stroke-width: 0.8; stroke-linejoin: miter; stroke-linecap: square"/>
   </g>
   <g id="patch_5">
    <path d="M 57.6 307.584 
L 414.72 307.584 
" style="fill: none; stroke: #000000; stroke-width: 0.8; stroke-linejoin: miter; stroke-linecap: square"/>
   </g>
   <g id="patch_6">
    <path d="M 57.6 41.472 
L 414.72 41.472 
" style="fill: none; stroke: #000000; stroke-width: 0.8; stroke-linejoin: miter; stroke-linecap: square"/>
   </g>
   <g id="legend_1">
    <g id="patch_7">
     <path d="M 67.4 178.358177 
L 207.700394 178.358177 
Q 210.500394 178.358177 210.500394 175.558177 
L 210.500394 51.272 
Q 210.500394 48.472 207.700394 48.472 
L 67.4 48.472 
Q 64.6 48.472 64.6 51.272 
L 64.6 175.558177 
Q 64.6 178.358177 67.4 178.358177 
z
" style="fill: #ffffff; opacity: 0.8; stroke: #cccccc; stroke-linejoin: miter"/>
    </g>
    <g id="line2d_21">
     <path d="M 70.2 59.632772 
L 84.2 59.632772 
L 98.2 59.632772 
" style="fill: none; stroke: #1f77b4; stroke-width: 1.5; stroke-linecap: square"/>
    </g>
    <g id="text_18">
     <!-- B = 0.00G/cm -->
     <g transform="translate(109.4 64.532772)scale(0.14 -0.14)">
      <defs>
       <path id="CMR17-42" d="M 333 4352 
L 333 4185 
C 774 4185 845 4185 845 3897 
L 845 451 
C 845 166 774 166 333 166 
L 333 0 
L 2534 0 
C 3354 0 3885 578 3885 1155 
C 3885 1726 3360 2214 2675 2259 
C 3290 2380 3718 2790 3718 3276 
C 3718 3808 3194 4352 2368 4352 
L 333 4352 
z
M 1248 2304 
L 1248 3936 
C 1248 4153 1261 4185 1517 4185 
L 2336 4185 
C 2970 4185 3251 3673 3251 3276 
C 3251 2790 2861 2304 2170 2304 
L 1248 2304 
z
M 1517 166 
C 1261 166 1248 198 1248 413 
L 1248 2201 
L 2432 2201 
C 3091 2201 3411 1624 3411 1161 
C 3411 698 3046 166 2349 166 
L 1517 166 
z
" transform="scale(0.015625)"/>
       <path id="CMR17-3d" d="M 4115 2048 
C 4211 2048 4307 2048 4307 2156 
C 4307 2272 4198 2272 4090 2272 
L 512 2272 
C 403 2272 294 2272 294 2156 
C 294 2048 390 2048 486 2048 
L 4115 2048 
z
M 4090 927 
C 4198 927 4307 927 4307 1043 
C 4307 1152 4211 1152 4115 1152 
L 486 1152 
C 390 1152 294 1152 294 1043 
C 294 927 403 927 512 927 
L 4090 927 
z
" transform="scale(0.015625)"/>
       <path id="CMR17-2e" d="M 1062 262 
C 1062 422 934 524 800 524 
C 672 524 538 422 538 262 
C 538 102 666 0 800 0 
C 928 0 1062 102 1062 262 
z
" transform="scale(0.015625)"/>
       <path id="CMR17-47" d="M 3974 1258 
C 3974 1503 3994 1536 4390 1536 
L 4390 1702 
C 4237 1689 3891 1689 3718 1689 
C 3539 1689 3040 1696 2797 1702 
L 2797 1536 
L 2989 1536 
C 3539 1536 3552 1464 3552 1232 
L 3552 806 
C 3552 96 2720 38 2522 38 
C 1862 38 781 496 781 2179 
C 781 3862 1843 4313 2464 4313 
C 3187 4313 3712 3681 3834 2785 
C 3846 2708 3846 2695 3904 2695 
C 3974 2695 3974 2708 3974 2824 
L 3974 4351 
C 3974 4467 3968 4473 3930 4473 
C 3904 4473 3898 4467 3853 4390 
L 3571 3849 
C 3258 4249 2874 4480 2381 4480 
C 1286 4480 294 3507 294 2179 
C 294 858 1267 -128 2394 -128 
C 2912 -128 3418 57 3616 425 
C 3725 161 3904 -20 3936 -20 
C 3968 -20 3974 -13 3974 102 
L 3974 1258 
z
" transform="scale(0.015625)"/>
       <path id="CMR17-2f" d="M 2605 4575 
C 2637 4658 2637 4671 2637 4684 
C 2637 4761 2579 4800 2528 4800 
C 2451 4800 2426 4748 2400 4671 
L 326 -1376 
C 294 -1460 294 -1472 294 -1485 
C 294 -1562 352 -1600 403 -1600 
C 480 -1600 506 -1549 531 -1472 
L 2605 4575 
z
" transform="scale(0.015625)"/>
      </defs>
      <use xlink:href="#CMR17-42" transform="scale(0.996264)"/>
      <use xlink:href="#CMR17-3d" transform="translate(95.264721 0)scale(0.996264)"/>
      <use xlink:href="#CMR17-30" transform="translate(197.055476 0)scale(0.996264)"/>
      <use xlink:href="#CMR17-2e" transform="translate(242.745953 0)scale(0.996264)"/>
      <use xlink:href="#CMR17-30" transform="translate(267.617011 0)scale(0.996264)"/>
      <use xlink:href="#CMR17-30" transform="translate(313.307488 0)scale(0.996264)"/>
      <use xlink:href="#CMR17-47" transform="translate(358.997965 0)scale(0.996264)"/>
      <use xlink:href="#CMR17-2f" transform="translate(431.353311 0)scale(0.996264)"/>
      <use xlink:href="#CMR17-63" transform="translate(477.043788 0)scale(0.996264)"/>
      <use xlink:href="#CMR17-6d" transform="translate(517.529449 0)scale(0.996264)"/>
     </g>
    </g>
    <g id="line2d_22">
     <path d="M 70.2 80.580468 
L 84.2 80.580468 
L 98.2 80.580468 
" style="fill: none; stroke: #ff7f0e; stroke-width: 1.5; stroke-linecap: square"/>
    </g>
    <g id="text_19">
     <!-- B = 3.00G/cm -->
     <g transform="translate(109.4 85.480468)scale(0.14 -0.14)">
      <use xlink:href="#CMR17-42" transform="scale(0.996264)"/>
      <use xlink:href="#CMR17-3d" transform="translate(95.264721 0)scale(0.996264)"/>
      <use xlink:href="#CMR17-33" transform="translate(197.055476 0)scale(0.996264)"/>
      <use xlink:href="#CMR17-2e" transform="translate(242.745953 0)scale(0.996264)"/>
      <use xlink:href="#CMR17-30" transform="translate(267.617011 0)scale(0.996264)"/>
      <use xlink:href="#CMR17-30" transform="translate(313.307488 0)scale(0.996264)"/>
      <use xlink:href="#CMR17-47" transform="translate(358.997965 0)scale(0.996264)"/>
      <use xlink:href="#CMR17-2f" transform="translate(431.353311 0)scale(0.996264)"/>
      <use xlink:href="#CMR17-63" transform="translate(477.043788 0)scale(0.996264)"/>
      <use xlink:href="#CMR17-6d" transform="translate(517.529449 0)scale(0.996264)"/>
     </g>
    </g>
    <g id="line2d_23">
     <path d="M 70.2 101.528164 
L 84.2 101.528164 
L 98.2 101.528164 
" style="fill: none; stroke: #2ca02c; stroke-width: 1.5; stroke-linecap: square"/>
    </g>
    <g id="text_20">
     <!-- B = 6.00G/cm -->
     <g transform="translate(109.4 106.428164)scale(0.14 -0.14)">
      <use xlink:href="#CMR17-42" transform="scale(0.996264)"/>
      <use xlink:href="#CMR17-3d" transform="translate(95.264721 0)scale(0.996264)"/>
      <use xlink:href="#CMR17-36" transform="translate(197.055476 0)scale(0.996264)"/>
      <use xlink:href="#CMR17-2e" transform="translate(242.745953 0)scale(0.996264)"/>
      <use xlink:href="#CMR17-30" transform="translate(267.617011 0)scale(0.996264)"/>
      <use xlink:href="#CMR17-30" transform="translate(313.307488 0)scale(0.996264)"/>
      <use xlink:href="#CMR17-47" transform="translate(358.997965 0)scale(0.996264)"/>
      <use xlink:href="#CMR17-2f" transform="translate(431.353311 0)scale(0.996264)"/>
      <use xlink:href="#CMR17-63" transform="translate(477.043788 0)scale(0.996264)"/>
      <use xlink:href="#CMR17-6d" transform="translate(517.529449 0)scale(0.996264)"/>
     </g>
    </g>
    <g id="line2d_24">
     <path d="M 70.2 122.475861 
L 84.2 122.475861 
L 98.2 122.475861 
" style="fill: none; stroke: #d62728; stroke-width: 1.5; stroke-linecap: square"/>
    </g>
    <g id="text_21">
     <!-- B = 9.00G/cm -->
     <g transform="translate(109.4 127.375861)scale(0.14 -0.14)">
      <defs>
       <path id="CMR17-39" d="M 2253 1871 
C 2253 448 1670 25 1190 25 
C 1043 25 685 43 538 281 
C 704 256 826 345 826 505 
C 826 678 685 736 595 736 
C 538 736 365 710 365 492 
C 365 68 742 -128 1203 -128 
C 1939 -128 2688 665 2688 2090 
C 2688 3857 1971 4224 1485 4224 
C 851 4224 243 3664 243 2800 
C 243 2000 762 1408 1414 1408 
C 1952 1408 2189 1910 2253 2122 
L 2253 1871 
z
M 1427 1510 
C 1254 1510 1011 1542 813 1929 
C 678 2181 678 2477 678 2793 
C 678 3174 678 3438 858 3722 
C 947 3857 1114 4076 1485 4076 
C 2240 4076 2240 2909 2240 2651 
C 2240 2193 2035 1510 1427 1510 
z
" transform="scale(0.015625)"/>
      </defs>
      <use xlink:href="#CMR17-42" transform="scale(0.996264)"/>
      <use xlink:href="#CMR17-3d" transform="translate(95.264721 0)scale(0.996264)"/>
      <use xlink:href="#CMR17-39" transform="translate(197.055476 0)scale(0.996264)"/>
      <use xlink:href="#CMR17-2e" transform="translate(242.745953 0)scale(0.996264)"/>
      <use xlink:href="#CMR17-30" transform="translate(267.617011 0)scale(0.996264)"/>
      <use xlink:href="#CMR17-30" transform="translate(313.307488 0)scale(0.996264)"/>
      <use xlink:href="#CMR17-47" transform="translate(358.997965 0)scale(0.996264)"/>
      <use xlink:href="#CMR17-2f" transform="translate(431.353311 0)scale(0.996264)"/>
      <use xlink:href="#CMR17-63" transform="translate(477.043788 0)scale(0.996264)"/>
      <use xlink:href="#CMR17-6d" transform="translate(517.529449 0)scale(0.996264)"/>
     </g>
    </g>
    <g id="line2d_25">
     <path d="M 70.2 143.423557 
L 84.2 143.423557 
L 98.2 143.423557 
" style="fill: none; stroke: #9467bd; stroke-width: 1.5; stroke-linecap: square"/>
    </g>
    <g id="text_22">
     <!-- B = 12.00G/cm -->
     <g transform="translate(109.4 148.323557)scale(0.14 -0.14)">
      <use xlink:href="#CMR17-42" transform="scale(0.996264)"/>
      <use xlink:href="#CMR17-3d" transform="translate(95.264721 0)scale(0.996264)"/>
      <use xlink:href="#CMR17-31" transform="translate(197.055476 0)scale(0.996264)"/>
      <use xlink:href="#CMR17-32" transform="translate(242.745953 0)scale(0.996264)"/>
      <use xlink:href="#CMR17-2e" transform="translate(288.43643 0)scale(0.996264)"/>
      <use xlink:href="#CMR17-30" transform="translate(313.307488 0)scale(0.996264)"/>
      <use xlink:href="#CMR17-30" transform="translate(358.997965 0)scale(0.996264)"/>
      <use xlink:href="#CMR17-47" transform="translate(404.688443 0)scale(0.996264)"/>
      <use xlink:href="#CMR17-2f" transform="translate(477.043788 0)scale(0.996264)"/>
      <use xlink:href="#CMR17-63" transform="translate(522.734266 0)scale(0.996264)"/>
      <use xlink:href="#CMR17-6d" transform="translate(563.219926 0)scale(0.996264)"/>
     </g>
    </g>
    <g id="line2d_26">
     <path d="M 70.2 164.371253 
L 84.2 164.371253 
L 98.2 164.371253 
" style="fill: none; stroke: #8c564b; stroke-width: 1.5; stroke-linecap: square"/>
    </g>
    <g id="text_23">
     <!-- B = 15.00G/cm -->
     <g transform="translate(109.4 169.271253)scale(0.14 -0.14)">
      <use xlink:href="#CMR17-42" transform="scale(0.996264)"/>
      <use xlink:href="#CMR17-3d" transform="translate(95.264721 0)scale(0.996264)"/>
      <use xlink:href="#CMR17-31" transform="translate(197.055476 0)scale(0.996264)"/>
      <use xlink:href="#CMR17-35" transform="translate(242.745953 0)scale(0.996264)"/>
      <use xlink:href="#CMR17-2e" transform="translate(288.43643 0)scale(0.996264)"/>
      <use xlink:href="#CMR17-30" transform="translate(313.307488 0)scale(0.996264)"/>
      <use xlink:href="#CMR17-30" transform="translate(358.997965 0)scale(0.996264)"/>
      <use xlink:href="#CMR17-47" transform="translate(404.688443 0)scale(0.996264)"/>
      <use xlink:href="#CMR17-2f" transform="translate(477.043788 0)scale(0.996264)"/>
      <use xlink:href="#CMR17-63" transform="translate(522.734266 0)scale(0.996264)"/>
      <use xlink:href="#CMR17-6d" transform="translate(563.219926 0)scale(0.996264)"/>
     </g>
    </g>
   </g>
  </g>
 </g>
 <defs>
  <clipPath id="pe9a11dbaa3">
   <rect x="57.6" y="41.472" width="357.12" height="266.112"/>
  </clipPath>
 </defs>
</svg>
