<?xml version="1.0" encoding="utf-8" standalone="no"?>
<!DOCTYPE svg PUBLIC "-//W3C//DTD SVG 1.1//EN"
  "http://www.w3.org/Graphics/SVG/1.1/DTD/svg11.dtd">
<svg xmlns:xlink="http://www.w3.org/1999/xlink" width="460.8pt" height="345.6pt" viewBox="0 0 460.8 345.6" xmlns="http://www.w3.org/2000/svg" version="1.1">
 <metadata>
  <rdf:RDF xmlns:dc="http://purl.org/dc/elements/1.1/" xmlns:cc="http://creativecommons.org/ns#" xmlns:rdf="http://www.w3.org/1999/02/22-rdf-syntax-ns#">
   <cc:Work>
    <dc:type rdf:resource="http://purl.org/dc/dcmitype/StillImage"/>
    <dc:date>2023-02-28T14:25:02.825102</dc:date>
    <dc:format>image/svg+xml</dc:format>
    <dc:creator>
     <cc:Agent>
      <dc:title>Matplotlib v3.5.2, https://matplotlib.org/</dc:title>
     </cc:Agent>
    </dc:creator>
   </cc:Work>
  </rdf:RDF>
 </metadata>
 <defs>
  <style type="text/css">*{stroke-linejoin: round; stroke-linecap: butt}</style>
 </defs>
 <g id="figure_1">
  <g id="patch_1">
   <path d="M 0 345.6 
L 460.8 345.6 
L 460.8 0 
L 0 0 
z
" style="fill: #ffffff"/>
  </g>
  <g id="axes_1">
   <g id="patch_2">
    <path d="M 57.6 307.584 
L 414.72 307.584 
L 414.72 41.472 
L 57.6 41.472 
z
" style="fill: #ffffff"/>
   </g>
   <g id="matplotlib.axis_1">
    <g id="xtick_1">
     <g id="line2d_1">
      <defs>
       <path id="mdb5384a57c" d="M 0 0 
L 0 3.5 
" style="stroke: #000000; stroke-width: 0.8"/>
      </defs>
      <g>
       <use xlink:href="#mdb5384a57c" x="57.6" y="307.584" style="stroke: #000000; stroke-width: 0.8"/>
      </g>
     </g>
     <g id="text_1">
      <!-- $\mathdefault{−1.00}$ -->
      <g transform="translate(40.036347 324.269876)scale(0.14 -0.14)">
       <defs>
        <path id="CMSY10-0" d="M 4218 1472 
C 4326 1472 4442 1472 4442 1600 
C 4442 1728 4326 1728 4218 1728 
L 755 1728 
C 646 1728 531 1728 531 1600 
C 531 1472 646 1472 755 1472 
L 4218 1472 
z
" transform="scale(0.015625)"/>
        <path id="CMR17-31" d="M 1702 4083 
C 1702 4217 1696 4224 1606 4224 
C 1357 3927 979 3833 621 3820 
C 602 3820 570 3820 563 3808 
C 557 3795 557 3782 557 3648 
C 755 3648 1088 3686 1344 3839 
L 1344 467 
C 1344 243 1331 166 781 166 
L 589 166 
L 589 0 
C 896 6 1216 12 1523 12 
C 1830 12 2150 6 2458 0 
L 2458 166 
L 2266 166 
C 1715 166 1702 236 1702 467 
L 1702 4083 
z
" transform="scale(0.015625)"/>
        <path id="CMMI12-3a" d="M 1178 307 
C 1178 492 1024 620 870 620 
C 685 620 557 467 557 313 
C 557 128 710 0 864 0 
C 1050 0 1178 153 1178 307 
z
" transform="scale(0.015625)"/>
        <path id="CMR17-30" d="M 2688 2038 
C 2688 2430 2682 3099 2413 3613 
C 2176 4063 1798 4224 1466 4224 
C 1158 4224 768 4082 525 3620 
C 269 3137 243 2539 243 2038 
C 243 1671 250 1112 448 623 
C 723 -39 1216 -128 1466 -128 
C 1760 -128 2208 -7 2470 604 
C 2662 1048 2688 1568 2688 2038 
z
M 1466 -26 
C 1056 -26 813 328 723 816 
C 653 1196 653 1749 653 2109 
C 653 2604 653 3015 736 3407 
C 858 3954 1216 4121 1466 4121 
C 1728 4121 2067 3947 2189 3420 
C 2272 3054 2278 2623 2278 2109 
C 2278 1691 2278 1176 2202 797 
C 2067 96 1690 -26 1466 -26 
z
" transform="scale(0.015625)"/>
       </defs>
       <use xlink:href="#CMSY10-0" transform="scale(0.996264)"/>
       <use xlink:href="#CMR17-31" transform="translate(77.487468 0)scale(0.996264)"/>
       <use xlink:href="#CMMI12-3a" transform="translate(123.177945 0)scale(0.996264)"/>
       <use xlink:href="#CMR17-30" transform="translate(150.275122 0)scale(0.996264)"/>
       <use xlink:href="#CMR17-30" transform="translate(195.965599 0)scale(0.996264)"/>
      </g>
     </g>
    </g>
    <g id="xtick_2">
     <g id="line2d_2">
      <g>
       <use xlink:href="#mdb5384a57c" x="102.24" y="307.584" style="stroke: #000000; stroke-width: 0.8"/>
      </g>
     </g>
     <g id="text_2">
      <!-- $\mathdefault{−0.75}$ -->
      <g transform="translate(84.676347 324.269876)scale(0.14 -0.14)">
       <defs>
        <path id="CMR17-37" d="M 2886 3955 
L 2886 4096 
L 1382 4096 
C 634 4096 621 4166 595 4288 
L 480 4288 
L 294 3104 
L 410 3104 
C 429 3226 474 3552 550 3673 
C 589 3724 1062 3724 1171 3724 
L 2579 3724 
L 1869 2670 
C 1395 1961 1069 1003 1069 166 
C 1069 89 1069 -128 1299 -128 
C 1530 -128 1530 89 1530 172 
L 1530 466 
C 1530 1514 1709 2204 2003 2644 
L 2886 3955 
z
" transform="scale(0.015625)"/>
        <path id="CMR17-35" d="M 730 3750 
C 794 3724 1056 3641 1325 3641 
C 1920 3641 2246 3961 2432 4140 
C 2432 4191 2432 4224 2394 4224 
C 2387 4224 2374 4224 2323 4198 
C 2099 4102 1837 4032 1517 4032 
C 1325 4032 1037 4055 723 4191 
C 653 4224 640 4224 634 4224 
C 602 4224 595 4217 595 4090 
L 595 2231 
C 595 2113 595 2080 659 2080 
C 691 2080 704 2093 736 2139 
C 941 2435 1222 2560 1542 2560 
C 1766 2560 2246 2415 2246 1293 
C 2246 1087 2246 716 2054 422 
C 1894 159 1645 25 1370 25 
C 947 25 518 319 403 812 
C 429 806 480 793 506 793 
C 589 793 749 838 749 1036 
C 749 1209 627 1280 506 1280 
C 358 1280 262 1190 262 1011 
C 262 454 704 -128 1382 -128 
C 2042 -128 2669 441 2669 1267 
C 2669 2054 2170 2662 1549 2662 
C 1222 2662 947 2540 730 2304 
L 730 3750 
z
" transform="scale(0.015625)"/>
       </defs>
       <use xlink:href="#CMSY10-0" transform="scale(0.996264)"/>
       <use xlink:href="#CMR17-30" transform="translate(77.487468 0)scale(0.996264)"/>
       <use xlink:href="#CMMI12-3a" transform="translate(123.177945 0)scale(0.996264)"/>
       <use xlink:href="#CMR17-37" transform="translate(150.275122 0)scale(0.996264)"/>
       <use xlink:href="#CMR17-35" transform="translate(195.965599 0)scale(0.996264)"/>
      </g>
     </g>
    </g>
    <g id="xtick_3">
     <g id="line2d_3">
      <g>
       <use xlink:href="#mdb5384a57c" x="146.88" y="307.584" style="stroke: #000000; stroke-width: 0.8"/>
      </g>
     </g>
     <g id="text_3">
      <!-- $\mathdefault{−0.50}$ -->
      <g transform="translate(129.316347 324.269876)scale(0.14 -0.14)">
       <use xlink:href="#CMSY10-0" transform="scale(0.996264)"/>
       <use xlink:href="#CMR17-30" transform="translate(77.487468 0)scale(0.996264)"/>
       <use xlink:href="#CMMI12-3a" transform="translate(123.177945 0)scale(0.996264)"/>
       <use xlink:href="#CMR17-35" transform="translate(150.275122 0)scale(0.996264)"/>
       <use xlink:href="#CMR17-30" transform="translate(195.965599 0)scale(0.996264)"/>
      </g>
     </g>
    </g>
    <g id="xtick_4">
     <g id="line2d_4">
      <g>
       <use xlink:href="#mdb5384a57c" x="191.52" y="307.584" style="stroke: #000000; stroke-width: 0.8"/>
      </g>
     </g>
     <g id="text_4">
      <!-- $\mathdefault{−0.25}$ -->
      <g transform="translate(173.956347 324.269876)scale(0.14 -0.14)">
       <defs>
        <path id="CMR17-32" d="M 2669 990 
L 2554 990 
C 2490 537 2438 460 2413 422 
C 2381 371 1920 371 1830 371 
L 602 371 
C 832 620 1280 1073 1824 1596 
C 2214 1966 2669 2400 2669 3033 
C 2669 3788 2067 4224 1395 4224 
C 691 4224 262 3603 262 3027 
C 262 2777 448 2745 525 2745 
C 589 2745 781 2783 781 3007 
C 781 3206 614 3264 525 3264 
C 486 3264 448 3257 422 3244 
C 544 3788 915 4057 1306 4057 
C 1862 4057 2227 3616 2227 3033 
C 2227 2477 1901 1998 1536 1583 
L 262 147 
L 262 0 
L 2515 0 
L 2669 990 
z
" transform="scale(0.015625)"/>
       </defs>
       <use xlink:href="#CMSY10-0" transform="scale(0.996264)"/>
       <use xlink:href="#CMR17-30" transform="translate(77.487468 0)scale(0.996264)"/>
       <use xlink:href="#CMMI12-3a" transform="translate(123.177945 0)scale(0.996264)"/>
       <use xlink:href="#CMR17-32" transform="translate(150.275122 0)scale(0.996264)"/>
       <use xlink:href="#CMR17-35" transform="translate(195.965599 0)scale(0.996264)"/>
      </g>
     </g>
    </g>
    <g id="xtick_5">
     <g id="line2d_5">
      <g>
       <use xlink:href="#mdb5384a57c" x="236.16" y="307.584" style="stroke: #000000; stroke-width: 0.8"/>
      </g>
     </g>
     <g id="text_5">
      <!-- $\mathdefault{0.00}$ -->
      <g transform="translate(224.020465 324.269876)scale(0.14 -0.14)">
       <use xlink:href="#CMR17-30" transform="scale(0.996264)"/>
       <use xlink:href="#CMMI12-3a" transform="translate(45.690477 0)scale(0.996264)"/>
       <use xlink:href="#CMR17-30" transform="translate(72.787654 0)scale(0.996264)"/>
       <use xlink:href="#CMR17-30" transform="translate(118.478131 0)scale(0.996264)"/>
      </g>
     </g>
    </g>
    <g id="xtick_6">
     <g id="line2d_6">
      <g>
       <use xlink:href="#mdb5384a57c" x="280.8" y="307.584" style="stroke: #000000; stroke-width: 0.8"/>
      </g>
     </g>
     <g id="text_6">
      <!-- $\mathdefault{0.25}$ -->
      <g transform="translate(268.660465 324.269876)scale(0.14 -0.14)">
       <use xlink:href="#CMR17-30" transform="scale(0.996264)"/>
       <use xlink:href="#CMMI12-3a" transform="translate(45.690477 0)scale(0.996264)"/>
       <use xlink:href="#CMR17-32" transform="translate(72.787654 0)scale(0.996264)"/>
       <use xlink:href="#CMR17-35" transform="translate(118.478131 0)scale(0.996264)"/>
      </g>
     </g>
    </g>
    <g id="xtick_7">
     <g id="line2d_7">
      <g>
       <use xlink:href="#mdb5384a57c" x="325.44" y="307.584" style="stroke: #000000; stroke-width: 0.8"/>
      </g>
     </g>
     <g id="text_7">
      <!-- $\mathdefault{0.50}$ -->
      <g transform="translate(313.300465 324.269876)scale(0.14 -0.14)">
       <use xlink:href="#CMR17-30" transform="scale(0.996264)"/>
       <use xlink:href="#CMMI12-3a" transform="translate(45.690477 0)scale(0.996264)"/>
       <use xlink:href="#CMR17-35" transform="translate(72.787654 0)scale(0.996264)"/>
       <use xlink:href="#CMR17-30" transform="translate(118.478131 0)scale(0.996264)"/>
      </g>
     </g>
    </g>
    <g id="xtick_8">
     <g id="line2d_8">
      <g>
       <use xlink:href="#mdb5384a57c" x="370.08" y="307.584" style="stroke: #000000; stroke-width: 0.8"/>
      </g>
     </g>
     <g id="text_8">
      <!-- $\mathdefault{0.75}$ -->
      <g transform="translate(357.940465 324.269876)scale(0.14 -0.14)">
       <use xlink:href="#CMR17-30" transform="scale(0.996264)"/>
       <use xlink:href="#CMMI12-3a" transform="translate(45.690477 0)scale(0.996264)"/>
       <use xlink:href="#CMR17-37" transform="translate(72.787654 0)scale(0.996264)"/>
       <use xlink:href="#CMR17-35" transform="translate(118.478131 0)scale(0.996264)"/>
      </g>
     </g>
    </g>
    <g id="xtick_9">
     <g id="line2d_9">
      <g>
       <use xlink:href="#mdb5384a57c" x="414.72" y="307.584" style="stroke: #000000; stroke-width: 0.8"/>
      </g>
     </g>
     <g id="text_9">
      <!-- $\mathdefault{1.00}$ -->
      <g transform="translate(402.580465 324.269876)scale(0.14 -0.14)">
       <use xlink:href="#CMR17-31" transform="scale(0.996264)"/>
       <use xlink:href="#CMMI12-3a" transform="translate(45.690477 0)scale(0.996264)"/>
       <use xlink:href="#CMR17-30" transform="translate(72.787654 0)scale(0.996264)"/>
       <use xlink:href="#CMR17-30" transform="translate(118.478131 0)scale(0.996264)"/>
      </g>
     </g>
    </g>
    <g id="text_10">
     <!-- $x$ (cm) -->
     <g transform="translate(215.967115 341.442677)scale(0.14 -0.14)">
      <defs>
       <path id="CMMI12-78" d="M 3034 2624 
C 2829 2585 2752 2431 2752 2310 
C 2752 2156 2874 2105 2963 2105 
C 3155 2105 3290 2271 3290 2444 
C 3290 2694 2982 2816 2714 2816 
C 2323 2816 2106 2451 2048 2329 
C 1901 2790 1504 2816 1389 2816 
C 736 2816 390 1993 390 1849 
C 390 1823 416 1790 461 1790 
C 512 1790 525 1829 538 1855 
C 755 2572 1184 2687 1370 2687 
C 1658 2687 1715 2438 1715 2284 
C 1715 2143 1677 1993 1600 1678 
L 1382 778 
C 1286 390 1101 64 762 64 
C 730 64 570 64 435 126 
C 666 166 717 358 717 435 
C 717 563 621 640 499 640 
C 346 640 179 505 179 300 
C 179 57 480 -64 755 -64 
C 1062 -64 1280 153 1414 415 
C 1517 64 1837 -64 2074 -64 
C 2726 -64 3072 751 3072 896 
C 3072 929 3046 955 3008 955 
C 2950 955 2944 922 2925 870 
C 2752 300 2381 64 2093 64 
C 1869 64 1747 204 1747 467 
C 1747 607 1773 712 1875 1146 
L 2099 2039 
C 2195 2425 2413 2687 2707 2687 
C 2720 2687 2899 2687 3034 2624 
z
" transform="scale(0.015625)"/>
       <path id="CMR17-28" d="M 1958 -1562 
C 1958 -1556 1958 -1543 1939 -1524 
C 1645 -1223 858 -403 858 1596 
C 858 3595 1632 4408 1946 4729 
C 1946 4735 1958 4748 1958 4767 
C 1958 4787 1939 4800 1914 4800 
C 1843 4800 1299 4325 986 3620 
C 666 2909 576 2218 576 1603 
C 576 1141 621 360 1005 -467 
C 1312 -1133 1837 -1600 1914 -1600 
C 1946 -1600 1958 -1588 1958 -1562 
z
" transform="scale(0.015625)"/>
       <path id="CMR17-63" d="M 2234 2240 
C 2112 2240 1933 2240 1933 2015 
C 1933 1836 2080 1785 2163 1785 
C 2208 1785 2394 1804 2394 2028 
C 2394 2476 1958 2816 1466 2816 
C 787 2816 211 2201 211 1379 
C 211 521 813 -64 1466 -64 
C 2259 -64 2458 676 2458 747 
C 2458 773 2451 792 2406 792 
C 2362 792 2355 786 2330 702 
C 2163 180 1798 51 1523 51 
C 1114 51 621 431 621 1385 
C 621 2358 1094 2700 1472 2700 
C 1722 2700 2093 2582 2234 2240 
z
" transform="scale(0.015625)"/>
       <path id="CMR17-6d" d="M 4326 1954 
C 4326 2276 4269 2816 3507 2816 
C 3072 2816 2771 2520 2656 2173 
L 2650 2173 
C 2573 2700 2195 2816 1837 2816 
C 1331 2816 1069 2424 973 2166 
L 966 2166 
L 966 2816 
L 211 2745 
L 211 2578 
C 589 2578 646 2540 646 2231 
L 646 443 
C 646 198 621 166 211 166 
L 211 0 
C 365 12 646 12 813 12 
C 979 12 1267 12 1421 0 
L 1421 166 
C 1011 166 986 192 986 443 
L 986 1678 
C 986 2269 1344 2713 1792 2713 
C 2266 2713 2317 2289 2317 1980 
L 2317 443 
C 2317 198 2291 166 1882 166 
L 1882 0 
C 2035 12 2317 12 2483 12 
C 2650 12 2938 12 3091 0 
L 3091 166 
C 2682 166 2656 192 2656 443 
L 2656 1678 
C 2656 2269 3014 2713 3462 2713 
C 3936 2713 3987 2289 3987 1980 
L 3987 443 
C 3987 198 3962 166 3552 166 
L 3552 0 
C 3706 12 3987 12 4154 12 
C 4320 12 4608 12 4762 0 
L 4762 166 
C 4352 166 4326 192 4326 443 
L 4326 1954 
z
" transform="scale(0.015625)"/>
       <path id="CMR17-29" d="M 1683 1596 
C 1683 2057 1638 2839 1254 3665 
C 947 4332 422 4800 346 4800 
C 326 4800 301 4793 301 4761 
C 301 4748 307 4742 314 4729 
C 621 4408 1402 3595 1402 1603 
C 1402 -396 627 -1210 314 -1530 
C 307 -1543 301 -1549 301 -1562 
C 301 -1594 326 -1600 346 -1600 
C 416 -1600 960 -1127 1274 -422 
C 1594 289 1683 981 1683 1596 
z
" transform="scale(0.015625)"/>
      </defs>
      <use xlink:href="#CMMI12-78" transform="scale(0.996264)"/>
      <use xlink:href="#CMR17-28" transform="translate(85.510026 0)scale(0.996264)"/>
      <use xlink:href="#CMR17-63" transform="translate(120.790794 0)scale(0.996264)"/>
      <use xlink:href="#CMR17-6d" transform="translate(161.276454 0)scale(0.996264)"/>
      <use xlink:href="#CMR17-29" transform="translate(238.196044 0)scale(0.996264)"/>
     </g>
    </g>
   </g>
   <g id="matplotlib.axis_2">
    <g id="ytick_1">
     <g id="line2d_10">
      <defs>
       <path id="m20a31cb236" d="M 0 0 
L -3.5 0 
" style="stroke: #000000; stroke-width: 0.8"/>
      </defs>
      <g>
       <use xlink:href="#m20a31cb236" x="57.6" y="307.584" style="stroke: #000000; stroke-width: 0.8"/>
      </g>
     </g>
     <g id="text_11">
      <!-- $\mathdefault{0.0}$ -->
      <g transform="translate(33.149418 312.426938)scale(0.14 -0.14)">
       <use xlink:href="#CMR17-30" transform="scale(0.996264)"/>
       <use xlink:href="#CMMI12-3a" transform="translate(45.690477 0)scale(0.996264)"/>
       <use xlink:href="#CMR17-30" transform="translate(72.787654 0)scale(0.996264)"/>
      </g>
     </g>
    </g>
    <g id="ytick_2">
     <g id="line2d_11">
      <g>
       <use xlink:href="#m20a31cb236" x="57.6" y="274.32" style="stroke: #000000; stroke-width: 0.8"/>
      </g>
     </g>
     <g id="text_12">
      <!-- $\mathdefault{2.5}$ -->
      <g transform="translate(33.149418 279.162938)scale(0.14 -0.14)">
       <use xlink:href="#CMR17-32" transform="scale(0.996264)"/>
       <use xlink:href="#CMMI12-3a" transform="translate(45.690477 0)scale(0.996264)"/>
       <use xlink:href="#CMR17-35" transform="translate(72.787654 0)scale(0.996264)"/>
      </g>
     </g>
    </g>
    <g id="ytick_3">
     <g id="line2d_12">
      <g>
       <use xlink:href="#m20a31cb236" x="57.6" y="241.056" style="stroke: #000000; stroke-width: 0.8"/>
      </g>
     </g>
     <g id="text_13">
      <!-- $\mathdefault{5.0}$ -->
      <g transform="translate(33.149418 245.898938)scale(0.14 -0.14)">
       <use xlink:href="#CMR17-35" transform="scale(0.996264)"/>
       <use xlink:href="#CMMI12-3a" transform="translate(45.690477 0)scale(0.996264)"/>
       <use xlink:href="#CMR17-30" transform="translate(72.787654 0)scale(0.996264)"/>
      </g>
     </g>
    </g>
    <g id="ytick_4">
     <g id="line2d_13">
      <g>
       <use xlink:href="#m20a31cb236" x="57.6" y="207.792" style="stroke: #000000; stroke-width: 0.8"/>
      </g>
     </g>
     <g id="text_14">
      <!-- $\mathdefault{7.5}$ -->
      <g transform="translate(33.149418 212.634938)scale(0.14 -0.14)">
       <use xlink:href="#CMR17-37" transform="scale(0.996264)"/>
       <use xlink:href="#CMMI12-3a" transform="translate(45.690477 0)scale(0.996264)"/>
       <use xlink:href="#CMR17-35" transform="translate(72.787654 0)scale(0.996264)"/>
      </g>
     </g>
    </g>
    <g id="ytick_5">
     <g id="line2d_14">
      <g>
       <use xlink:href="#m20a31cb236" x="57.6" y="174.528" style="stroke: #000000; stroke-width: 0.8"/>
      </g>
     </g>
     <g id="text_15">
      <!-- $\mathdefault{10.0}$ -->
      <g transform="translate(26.320929 179.370938)scale(0.14 -0.14)">
       <use xlink:href="#CMR17-31" transform="scale(0.996264)"/>
       <use xlink:href="#CMR17-30" transform="translate(45.690477 0)scale(0.996264)"/>
       <use xlink:href="#CMMI12-3a" transform="translate(91.380954 0)scale(0.996264)"/>
       <use xlink:href="#CMR17-30" transform="translate(118.478131 0)scale(0.996264)"/>
      </g>
     </g>
    </g>
    <g id="ytick_6">
     <g id="line2d_15">
      <g>
       <use xlink:href="#m20a31cb236" x="57.6" y="141.264" style="stroke: #000000; stroke-width: 0.8"/>
      </g>
     </g>
     <g id="text_16">
      <!-- $\mathdefault{12.5}$ -->
      <g transform="translate(26.320929 146.106938)scale(0.14 -0.14)">
       <use xlink:href="#CMR17-31" transform="scale(0.996264)"/>
       <use xlink:href="#CMR17-32" transform="translate(45.690477 0)scale(0.996264)"/>
       <use xlink:href="#CMMI12-3a" transform="translate(91.380954 0)scale(0.996264)"/>
       <use xlink:href="#CMR17-35" transform="translate(118.478131 0)scale(0.996264)"/>
      </g>
     </g>
    </g>
    <g id="ytick_7">
     <g id="line2d_16">
      <g>
       <use xlink:href="#m20a31cb236" x="57.6" y="108" style="stroke: #000000; stroke-width: 0.8"/>
      </g>
     </g>
     <g id="text_17">
      <!-- $\mathdefault{15.0}$ -->
      <g transform="translate(26.320929 112.842938)scale(0.14 -0.14)">
       <use xlink:href="#CMR17-31" transform="scale(0.996264)"/>
       <use xlink:href="#CMR17-35" transform="translate(45.690477 0)scale(0.996264)"/>
       <use xlink:href="#CMMI12-3a" transform="translate(91.380954 0)scale(0.996264)"/>
       <use xlink:href="#CMR17-30" transform="translate(118.478131 0)scale(0.996264)"/>
      </g>
     </g>
    </g>
    <g id="ytick_8">
     <g id="line2d_17">
      <g>
       <use xlink:href="#m20a31cb236" x="57.6" y="74.736" style="stroke: #000000; stroke-width: 0.8"/>
      </g>
     </g>
     <g id="text_18">
      <!-- $\mathdefault{17.5}$ -->
      <g transform="translate(26.320929 79.578938)scale(0.14 -0.14)">
       <use xlink:href="#CMR17-31" transform="scale(0.996264)"/>
       <use xlink:href="#CMR17-37" transform="translate(45.690477 0)scale(0.996264)"/>
       <use xlink:href="#CMMI12-3a" transform="translate(91.380954 0)scale(0.996264)"/>
       <use xlink:href="#CMR17-35" transform="translate(118.478131 0)scale(0.996264)"/>
      </g>
     </g>
    </g>
    <g id="ytick_9">
     <g id="line2d_18">
      <g>
       <use xlink:href="#m20a31cb236" x="57.6" y="41.472" style="stroke: #000000; stroke-width: 0.8"/>
      </g>
     </g>
     <g id="text_19">
      <!-- $\mathdefault{20.0}$ -->
      <g transform="translate(26.320929 46.314938)scale(0.14 -0.14)">
       <use xlink:href="#CMR17-32" transform="scale(0.996264)"/>
       <use xlink:href="#CMR17-30" transform="translate(45.690477 0)scale(0.996264)"/>
       <use xlink:href="#CMMI12-3a" transform="translate(91.380954 0)scale(0.996264)"/>
       <use xlink:href="#CMR17-30" transform="translate(118.478131 0)scale(0.996264)"/>
      </g>
     </g>
    </g>
    <g id="text_20">
     <!-- Capture velocity $v_c$ (m/s) -->
     <g transform="translate(18.834005 251.418387)rotate(-90)scale(0.14 -0.14)">
      <defs>
       <path id="CMR17-43" d="M 3974 4351 
C 3974 4467 3968 4473 3930 4473 
C 3904 4473 3898 4467 3853 4390 
L 3571 3849 
C 3258 4249 2874 4480 2381 4480 
C 1286 4480 294 3507 294 2179 
C 294 837 1286 -128 2387 -128 
C 3366 -128 3974 741 3974 1482 
C 3974 1547 3974 1573 3917 1573 
C 3866 1573 3866 1553 3859 1495 
C 3808 592 3168 38 2477 38 
C 1824 38 781 502 781 2179 
C 781 3862 1843 4313 2464 4313 
C 3187 4313 3712 3681 3834 2785 
C 3846 2707 3846 2695 3904 2695 
C 3974 2695 3974 2707 3974 2824 
L 3974 4351 
z
" transform="scale(0.015625)"/>
       <path id="CMR17-61" d="M 2304 1656 
C 2304 2048 2304 2275 2035 2534 
C 1798 2751 1523 2816 1306 2816 
C 800 2816 435 2408 435 1977 
C 435 1740 627 1728 666 1728 
C 749 1728 896 1779 896 1958 
C 896 2118 774 2188 666 2188 
C 640 2188 608 2182 589 2176 
C 723 2594 1069 2713 1293 2713 
C 1613 2713 1965 2421 1965 1875 
L 1965 1632 
C 1587 1619 1133 1568 774 1373 
C 371 1147 256 822 256 576 
C 256 77 832 -64 1171 -64 
C 1523 -64 1850 135 1990 505 
C 2003 219 2182 -39 2464 -39 
C 2598 -39 2938 51 2938 563 
L 2938 926 
L 2822 926 
L 2822 557 
C 2822 161 2650 109 2566 109 
C 2304 109 2304 446 2304 732 
L 2304 1656 
z
M 1965 887 
C 1965 323 1568 38 1216 38 
C 896 38 646 278 646 576 
C 646 771 730 1114 1101 1322 
C 1408 1497 1760 1523 1965 1536 
L 1965 887 
z
" transform="scale(0.015625)"/>
       <path id="CMR17-70" d="M 1408 -1114 
C 998 -1114 973 -1088 973 -834 
L 973 380 
C 1158 109 1427 -64 1766 -64 
C 2406 -64 3053 503 3053 1382 
C 3053 2196 2496 2816 1837 2816 
C 1453 2816 1139 2603 960 2345 
L 960 2816 
L 198 2745 
L 198 2577 
C 576 2577 634 2539 634 2228 
L 634 -834 
C 634 -1081 608 -1114 198 -1114 
L 198 -1280 
C 352 -1268 634 -1268 800 -1268 
C 966 -1268 1254 -1268 1408 -1280 
L 1408 -1114 
z
M 973 2015 
C 973 2106 973 2241 1222 2481 
C 1254 2506 1472 2700 1792 2700 
C 2259 2700 2643 2112 2643 1376 
C 2643 639 2234 38 1728 38 
C 1498 38 1248 148 1056 451 
C 973 594 973 632 973 736 
L 973 2015 
z
" transform="scale(0.015625)"/>
       <path id="CMR17-74" d="M 966 2585 
L 1862 2585 
L 1862 2752 
L 966 2752 
L 966 3968 
L 851 3968 
C 838 3292 614 2700 70 2687 
L 70 2585 
L 627 2585 
L 627 778 
C 627 655 627 -64 1370 -64 
C 1747 -64 1965 308 1965 784 
L 1965 1151 
L 1850 1151 
L 1850 790 
C 1850 347 1677 51 1408 51 
C 1222 51 966 179 966 765 
L 966 2585 
z
" transform="scale(0.015625)"/>
       <path id="CMR17-75" d="M 1882 2745 
L 1882 2579 
C 2259 2579 2317 2540 2317 2229 
L 2317 1053 
C 2317 510 2029 38 1555 38 
C 1030 38 986 355 986 691 
L 986 2816 
L 211 2745 
L 211 2579 
C 467 2579 640 2579 646 2320 
L 646 1079 
C 646 646 646 368 813 187 
C 896 103 1056 -64 1517 -64 
C 2061 -64 2272 400 2323 536 
L 2330 536 
L 2330 -64 
L 3091 -13 
L 3091 154 
C 2714 154 2656 193 2656 503 
L 2656 2816 
L 1882 2745 
z
" transform="scale(0.015625)"/>
       <path id="CMR17-72" d="M 960 1517 
C 960 2134 1222 2713 1702 2713 
C 1747 2713 1792 2707 1837 2687 
C 1837 2687 1696 2642 1696 2475 
C 1696 2321 1818 2257 1914 2257 
C 1990 2257 2131 2302 2131 2482 
C 2131 2687 1926 2816 1709 2816 
C 1222 2816 1011 2340 947 2115 
L 941 2115 
L 941 2816 
L 198 2745 
L 198 2578 
C 576 2578 634 2540 634 2231 
L 634 443 
C 634 198 608 166 198 166 
L 198 0 
C 352 12 646 12 813 12 
C 998 12 1325 12 1498 0 
L 1498 166 
C 1037 166 960 166 960 455 
L 960 1517 
z
" transform="scale(0.015625)"/>
       <path id="CMR17-65" d="M 2438 1503 
C 2464 1529 2464 1542 2464 1606 
C 2464 2251 2118 2816 1389 2816 
C 710 2816 173 2175 173 1394 
C 173 554 781 -64 1459 -64 
C 2176 -64 2458 619 2458 755 
C 2458 800 2419 800 2406 800 
C 2362 800 2355 787 2330 709 
C 2189 270 1837 51 1504 51 
C 1229 51 954 206 781 490 
C 582 819 582 1200 582 1503 
L 2438 1503 
z
M 589 1600 
C 634 2511 1126 2713 1382 2713 
C 1818 2713 2112 2308 2118 1600 
L 589 1600 
z
" transform="scale(0.015625)"/>
       <path id="CMR17-76" d="M 2502 2173 
C 2560 2315 2662 2572 3034 2585 
L 3034 2752 
C 2912 2745 2752 2739 2630 2739 
C 2496 2739 2285 2739 2157 2752 
L 2157 2585 
C 2317 2572 2406 2495 2406 2328 
C 2406 2270 2406 2257 2368 2167 
L 1664 379 
L 902 2308 
C 864 2392 864 2405 864 2431 
C 864 2585 1075 2585 1171 2585 
L 1171 2752 
C 1018 2739 736 2739 576 2739 
C 403 2739 205 2739 64 2752 
L 64 2585 
C 307 2585 442 2585 518 2386 
L 1446 44 
C 1485 -52 1491 -64 1549 -64 
C 1606 -64 1613 -52 1651 44 
L 2502 2173 
z
" transform="scale(0.015625)"/>
       <path id="CMR17-6c" d="M 979 4416 
L 218 4345 
L 218 4179 
C 595 4179 653 4141 653 3835 
L 653 439 
C 653 198 627 166 218 166 
L 218 0 
C 371 12 653 12 813 12 
C 979 12 1261 12 1414 0 
L 1414 166 
C 1005 166 979 191 979 439 
L 979 4416 
z
" transform="scale(0.015625)"/>
       <path id="CMR17-6f" d="M 2758 1356 
C 2758 2176 2163 2816 1466 2816 
C 768 2816 173 2176 173 1356 
C 173 550 768 -64 1466 -64 
C 2163 -64 2758 550 2758 1356 
z
M 1466 51 
C 1165 51 909 230 762 480 
C 602 768 582 1126 582 1408 
C 582 1676 595 2009 762 2297 
C 890 2508 1139 2713 1466 2713 
C 1754 2713 1997 2553 2150 2329 
C 2349 2028 2349 1606 2349 1408 
C 2349 1158 2336 774 2163 467 
C 1984 172 1709 51 1466 51 
z
" transform="scale(0.015625)"/>
       <path id="CMR17-69" d="M 992 3961 
C 992 4102 877 4224 730 4224 
C 589 4224 467 4108 467 3961 
C 467 3820 582 3699 730 3699 
C 870 3699 992 3814 992 3961 
z
M 243 2745 
L 243 2579 
C 602 2579 653 2540 653 2231 
L 653 443 
C 653 198 627 166 218 166 
L 218 0 
C 371 12 646 12 806 12 
C 960 12 1222 12 1370 0 
L 1370 166 
C 992 166 979 205 979 436 
L 979 2816 
L 243 2745 
z
" transform="scale(0.015625)"/>
       <path id="CMR17-79" d="M 2496 2183 
C 2656 2579 2944 2585 3034 2585 
L 3034 2752 
C 2912 2745 2752 2739 2630 2739 
C 2496 2739 2285 2739 2157 2752 
L 2157 2585 
C 2400 2566 2406 2384 2406 2332 
C 2406 2268 2394 2235 2362 2158 
L 1664 409 
L 902 2300 
C 870 2378 870 2423 870 2430 
C 870 2572 1018 2585 1171 2585 
L 1171 2752 
C 1018 2739 742 2739 582 2739 
C 410 2739 205 2739 64 2752 
L 64 2585 
C 410 2585 448 2553 531 2345 
L 1485 -31 
C 1197 -795 1030 -1242 627 -1242 
C 557 -1242 397 -1223 282 -1106 
C 429 -1093 493 -1002 493 -892 
C 493 -782 416 -685 288 -685 
C 147 -685 77 -782 77 -899 
C 77 -1158 339 -1344 627 -1344 
C 998 -1344 1229 -983 1357 -659 
L 2496 2183 
z
" transform="scale(0.015625)"/>
       <path id="CMMI12-76" d="M 2925 2388 
C 2925 2790 2720 2816 2669 2816 
C 2515 2816 2374 2662 2374 2534 
C 2374 2458 2419 2413 2445 2388 
C 2509 2330 2675 2158 2675 1826 
C 2675 1558 2291 64 1523 64 
C 1133 64 1056 389 1056 625 
C 1056 945 1203 1392 1376 1851 
C 1478 2113 1504 2177 1504 2305 
C 1504 2573 1312 2816 998 2816 
C 410 2816 173 1890 173 1838 
C 173 1813 198 1781 243 1781 
C 301 1781 307 1807 333 1896 
C 486 2445 736 2687 979 2687 
C 1037 2687 1146 2687 1146 2477 
C 1146 2311 1075 2126 979 1883 
C 672 1066 672 868 672 715 
C 672 574 691 313 890 134 
C 1120 -64 1440 -64 1498 -64 
C 2560 -64 2925 2024 2925 2388 
z
" transform="scale(0.015625)"/>
       <path id="CMMI12-63" d="M 2502 2432 
C 2381 2432 2323 2432 2234 2355 
C 2195 2323 2125 2227 2125 2124 
C 2125 1996 2221 1919 2342 1919 
C 2496 1919 2669 2047 2669 2303 
C 2669 2591 2374 2816 1933 2816 
C 1094 2816 256 1932 256 1011 
C 256 446 602 -64 1254 -64 
C 2125 -64 2675 622 2675 706 
C 2675 745 2637 777 2611 777 
C 2592 777 2586 771 2528 712 
C 2118 161 1510 64 1267 64 
C 826 64 685 453 685 777 
C 685 1004 794 1634 1024 2073 
C 1190 2374 1536 2687 1939 2687 
C 2022 2687 2374 2676 2502 2432 
z
" transform="scale(0.015625)"/>
       <path id="CMR17-2f" d="M 2605 4575 
C 2637 4658 2637 4671 2637 4684 
C 2637 4761 2579 4800 2528 4800 
C 2451 4800 2426 4748 2400 4671 
L 326 -1376 
C 294 -1460 294 -1472 294 -1485 
C 294 -1562 352 -1600 403 -1600 
C 480 -1600 506 -1549 531 -1472 
L 2605 4575 
z
" transform="scale(0.015625)"/>
       <path id="CMR17-73" d="M 1978 2688 
C 1978 2803 1971 2809 1933 2809 
C 1907 2809 1901 2803 1824 2707 
C 1805 2681 1747 2617 1728 2592 
C 1523 2809 1235 2816 1126 2816 
C 416 2816 160 2444 160 2073 
C 160 1497 813 1363 998 1324 
C 1402 1241 1542 1216 1677 1100 
C 1760 1024 1901 883 1901 652 
C 1901 384 1747 38 1158 38 
C 602 38 403 460 288 1024 
C 269 1113 269 1120 218 1120 
C 166 1120 160 1113 160 985 
L 160 64 
C 160 -52 166 -58 205 -58 
C 237 -58 243 -52 275 0 
C 314 57 410 211 448 275 
C 576 102 800 -64 1158 -64 
C 1792 -64 2131 281 2131 780 
C 2131 1107 1958 1280 1875 1356 
C 1683 1555 1459 1600 1190 1651 
C 838 1728 390 1817 390 2208 
C 390 2374 480 2726 1126 2726 
C 1811 2726 1850 2086 1862 1881 
C 1869 1849 1901 1843 1920 1843 
C 1978 1843 1978 1862 1978 1971 
L 1978 2688 
z
" transform="scale(0.015625)"/>
      </defs>
      <use xlink:href="#CMR17-43" transform="scale(0.996264)"/>
      <use xlink:href="#CMR17-61" transform="translate(66.509881 0)scale(0.996264)"/>
      <use xlink:href="#CMR17-70" transform="translate(112.200358 0)scale(0.996264)"/>
      <use xlink:href="#CMR17-74" transform="translate(163.095727 0)scale(0.996264)"/>
      <use xlink:href="#CMR17-75" transform="translate(198.376495 0)scale(0.996264)"/>
      <use xlink:href="#CMR17-72" transform="translate(249.271865 0)scale(0.996264)"/>
      <use xlink:href="#CMR17-65" transform="translate(284.552633 0)scale(0.996264)"/>
      <use xlink:href="#CMR17-76" transform="translate(355.11426 0)scale(0.996264)"/>
      <use xlink:href="#CMR17-65" transform="translate(400.804722 0)scale(0.996264)"/>
      <use xlink:href="#CMR17-6c" transform="translate(441.290382 0)scale(0.996264)"/>
      <use xlink:href="#CMR17-6f" transform="translate(466.16144 0)scale(0.996264)"/>
      <use xlink:href="#CMR17-63" transform="translate(514.454356 0)scale(0.996264)"/>
      <use xlink:href="#CMR17-69" transform="translate(554.940017 0)scale(0.996264)"/>
      <use xlink:href="#CMR17-74" transform="translate(579.811075 0)scale(0.996264)"/>
      <use xlink:href="#CMR17-79" transform="translate(612.489389 0)scale(0.996264)"/>
      <use xlink:href="#CMMI12-76" transform="translate(690.858271 0)scale(0.996264)"/>
      <use xlink:href="#CMMI12-63" transform="translate(738.018852 -14.943915)scale(0.697382)"/>
      <use xlink:href="#CMR17-28" transform="translate(797.981082 0)scale(0.996264)"/>
      <use xlink:href="#CMR17-6d" transform="translate(833.261849 0)scale(0.996264)"/>
      <use xlink:href="#CMR17-2f" transform="translate(910.181439 0)scale(0.996264)"/>
      <use xlink:href="#CMR17-73" transform="translate(955.871916 0)scale(0.996264)"/>
      <use xlink:href="#CMR17-29" transform="translate(991.673254 0)scale(0.996264)"/>
     </g>
    </g>
   </g>
   <g id="line2d_19">
    <path d="M 414.72 306.25344 
L 398.941244 279.651076 
L 390.559371 265.083804 
L 380.28084 247.214686 
L 372.178849 233.659703 
L 369.090484 228.740353 
L 365.801675 223.731387 
L 362.313748 218.700729 
L 358.628797 213.707817 
L 354.749686 208.803599 
L 350.680042 204.030535 
L 346.424265 199.422597 
L 341.987518 195.005268 
L 337.375735 190.795543 
L 332.595614 186.801929 
L 327.654623 183.024446 
L 322.560998 179.454622 
L 317.32374 176.075501 
L 311.952621 172.861636 
L 306.458118 169.779415 
L 300.845077 166.822098 
L 295.11598 163.993965 
L 289.27548 161.286605 
L 283.328017 158.691991 
L 277.277819 156.202481 
L 271.128897 153.810821 
L 258.549864 149.293957 
L 245.61874 145.09107 
L 232.359928 141.158002 
L 218.794406 137.456768 
L 204.939732 133.955552 
L 190.810335 130.629273 
L 176.420119 127.463383 
L 161.78092 124.444846 
L 146.903541 121.560964 
L 131.798124 118.799989 
L 108.732986 114.865619 
L 85.205148 111.151296 
L 61.240474 107.62941 
L 36.861478 104.277167 
L 12.087329 101.07659 
L -1 99.463451 
L -1 99.463451 
" clip-path="url(#pffe663cd26)" style="fill: none; stroke: #1f77b4; stroke-width: 1.5; stroke-linecap: square"/>
   </g>
   <g id="line2d_20">
    <path d="M 414.72 306.25344 
L 414.406312 301.194008 
L 413.699434 296.485279 
L 412.624719 292.059315 
L 411.202936 287.861174 
L 409.451782 283.843375 
L 407.383565 279.975306 
L 405.008093 276.232282 
L 402.333905 272.590846 
L 399.368266 269.028766 
L 396.117174 265.525037 
L 392.585354 262.059881 
L 388.776262 258.614744 
L 384.692129 255.17438 
L 380.332515 251.730513 
L 375.695556 248.275256 
L 368.21472 243.051341 
L 360.094059 237.747505 
L 351.320618 232.324655 
L 341.878774 226.738702 
L 328.217922 218.951499 
L 309.333348 208.510515 
L 283.764251 194.711084 
L 209.395093 154.855449 
L 132.779694 113.038162 
L 63.913642 74.833918 
L 44.761913 64.640552 
L 34.889664 59.551385 
L 24.819698 54.502375 
L 14.552339 49.522995 
L -1 42.381837 
L -1 42.381837 
" clip-path="url(#pffe663cd26)" style="fill: none; stroke: #ff7f0e; stroke-width: 1.5; stroke-linecap: square"/>
   </g>
   <g id="line2d_21">
    <path d="M 414.72 306.25344 
L 414.386999 304.78539 
L 413.818561 303.327825 
L 413.016292 301.874363 
L 411.980183 300.420394 
L 410.354762 298.594487 
L 408.358865 296.748923 
L 405.98675 294.871538 
L 403.230573 292.948953 
L 399.402049 290.561549 
L 394.983881 288.059658 
L 389.012771 284.932372 
L 381.074678 281.054198 
L 368.048417 274.999616 
L 352.061318 267.522252 
L 341.780128 262.487045 
L 332.195462 257.574969 
L 321.54711 251.852836 
L 312.138588 246.522042 
L 304.482463 241.943091 
L 296.240976 236.746859 
L 287.329981 230.803106 
L 277.646888 223.960574 
L 267.076124 216.076221 
L 259.487668 210.241342 
L 251.392185 203.74558 
L 242.72171 196.449324 
L 233.415975 188.307971 
L 207.046274 164.821859 
L 201.19991 159.792384 
L 195.153575 154.743062 
L 188.904301 149.724727 
L 182.449604 144.794152 
L 175.792693 140.051636 
L 168.95022 135.636789 
L 161.937061 131.615755 
L 154.770677 128.054552 
L 147.471335 125.021215 
L 140.062101 122.585798 
L 132.568845 120.820375 
L 125.020237 119.799035 
L 117.447752 119.597891 
L 109.885664 120.29507 
L 102.37105 121.970721 
L 94.94379 124.707009 
L 87.661655 128.473337 
L 80.563383 132.876666 
L 60.306229 146.459208 
L 53.867662 150.295195 
L 47.565228 153.543845 
L 41.383616 156.159985 
L 35.30562 158.164955 
L 29.312135 159.646606 
L 23.382162 160.759306 
L 11.633528 162.650464 
L 0.015194 164.164809 
L -1 164.274025 
L -1 164.274025 
" clip-path="url(#pffe663cd26)" style="fill: none; stroke: #2ca02c; stroke-width: 1.5; stroke-linecap: square"/>
   </g>
   <g id="line2d_22">
    <path d="M 414.72 306.25344 
L 414.151621 305.388117 
L 413.303535 304.517596 
L 412.011413 303.524971 
L 410.150327 302.398666 
L 407.575259 301.124822 
L 404.111627 299.678871 
L 399.544484 298.018755 
L 392.662928 295.781469 
L 381.870184 292.537287 
L 358.254803 285.482784 
L 347.729091 282.070494 
L 339.028367 279.019167 
L 331.797365 276.279461 
L 323.829605 273.011709 
L 316.544082 269.7467 
L 310.209824 266.636761 
L 305.10602 263.918166 
L 299.646654 260.783085 
L 293.775198 257.141175 
L 287.423757 252.868884 
L 282.881194 249.56714 
L 278.057055 245.824006 
L 272.912669 241.560847 
L 267.401432 236.688185 
L 261.468809 231.105698 
L 255.052332 224.702226 
L 248.081602 217.355762 
L 244.363872 213.279044 
L 236.387467 203.991926 
L 227.623835 193.881791 
L 222.939021 188.826791 
L 218.056212 183.928483 
L 212.983506 179.299361 
L 207.733082 175.047921 
L 202.321194 171.278666 
L 196.768176 168.092102 
L 191.098439 165.584742 
L 185.340472 163.849101 
L 179.526844 162.973701 
L 173.694197 163.043068 
L 167.883257 164.137734 
L 162.138823 166.334234 
L 156.512229 169.712518 
L 151.064434 174.158982 
L 140.716895 183.846635 
L 135.797738 188.135707 
L 131.029117 191.669783 
L 126.391929 194.34718 
L 121.863313 196.215969 
L 117.416651 197.47397 
L 113.021563 198.468754 
L 104.31928 200.601317 
L 100.025569 201.465479 
L 91.531681 202.847692 
L 83.135186 203.90107 
L 74.812546 204.736101 
L 62.438345 205.699541 
L 50.165281 206.423458 
L 33.919238 207.127393 
L 13.745598 207.737938 
L -1 208.072396 
L -1 208.072396 
" clip-path="url(#pffe663cd26)" style="fill: none; stroke: #d62728; stroke-width: 1.5; stroke-linecap: square"/>
   </g>
   <g id="line2d_23">
    <path d="M 414.72 306.25344 
L 413.789777 305.615746 
L 412.282541 304.874507 
L 410.005082 304.015147 
L 406.531045 302.958308 
L 401.690402 301.730538 
L 394.514721 300.156592 
L 379.956736 297.247413 
L 360.801581 293.349158 
L 348.927888 290.70847 
L 340.287922 288.584569 
L 332.207773 286.370407 
L 325.02603 284.186029 
L 318.105878 281.863591 
L 311.602962 279.435392 
L 305.693939 276.972642 
L 300.574456 274.600141 
L 295.033865 271.751307 
L 290.542014 269.206768 
L 285.720486 266.2013 
L 282.295071 263.863394 
L 278.671197 261.183391 
L 274.815717 258.081878 
L 270.688575 254.465757 
L 266.242812 250.228247 
L 261.434724 245.307862 
L 256.195361 239.46004 
L 250.414299 232.309305 
L 243.995968 223.807804 
L 236.861096 214.245633 
L 233.004642 209.24986 
L 228.946712 204.250842 
L 224.684726 199.405718 
L 220.235342 194.980783 
L 215.620206 191.149447 
L 210.865443 188.059164 
L 206.002449 185.84343 
L 201.067889 184.621783 
L 196.103698 184.499801 
L 191.15708 185.569105 
L 186.280536 187.907872 
L 181.544091 191.780925 
L 176.985444 196.662233 
L 172.609866 201.695436 
L 168.413729 206.264902 
L 164.384507 209.995731 
L 160.500778 212.75375 
L 156.732219 214.645518 
L 149.382289 217.360869 
L 145.770307 218.537038 
L 142.201939 219.515266 
L 138.670211 220.335403 
L 131.69399 221.629287 
L 124.806716 222.611433 
L 117.989326 223.37821 
L 107.863532 224.251158 
L 97.829536 224.887013 
L 84.552874 225.494801 
L 64.782966 226.119179 
L 41.871913 226.593223 
L 12.571966 226.975418 
L -1 227.097461 
L -1 227.097461 
" clip-path="url(#pffe663cd26)" style="fill: none; stroke: #9467bd; stroke-width: 1.5; stroke-linecap: square"/>
   </g>
   <g id="line2d_24">
    <path d="M 414.72 306.25344 
L 413.086064 305.668572 
L 410.334559 304.942316 
L 405.97685 304.042729 
L 399.148611 302.876283 
L 388.115843 301.246813 
L 362.17131 297.461802 
L 348.625161 295.241617 
L 337.921683 293.274453 
L 330.034444 291.619423 
L 322.58992 289.831231 
L 315.829177 287.991134 
L 309.192454 285.968857 
L 303.739906 284.102171 
L 298.829646 282.222706 
L 294.606638 280.411687 
L 290.060075 278.220643 
L 286.394684 276.253165 
L 282.469283 273.936418 
L 278.229885 271.152288 
L 275.205216 268.954859 
L 271.994142 266.396501 
L 268.561372 263.373732 
L 264.861341 259.758019 
L 260.838201 255.395784 
L 256.434133 250.19216 
L 254.067059 247.218569 
L 251.565833 243.864648 
L 248.914023 240.077718 
L 243.10436 231.233096 
L 236.552393 221.219165 
L 232.981286 216.149826 
L 229.209069 211.335087 
L 225.243142 207.075268 
L 221.121554 203.639981 
L 216.880044 201.150899 
L 212.558339 199.719946 
L 208.201093 199.455385 
L 203.85789 200.461805 
L 199.583327 202.842781 
L 195.44642 206.880456 
L 184.129342 220.882075 
L 180.702586 224.097618 
L 177.400063 226.452103 
L 174.173913 228.35422 
L 171.012897 229.910656 
L 167.908789 231.162402 
L 164.85093 232.179924 
L 161.830546 233.020881 
L 155.876535 234.339708 
L 150.013598 235.327609 
L 144.220995 236.087107 
L 135.631194 236.927618 
L 127.128553 237.527505 
L 115.884559 238.108283 
L 101.938331 238.616827 
L 82.553134 239.083559 
L 57.781447 239.44202 
L 16.700211 239.778661 
L -1 239.870993 
L -1 239.870993 
" clip-path="url(#pffe663cd26)" style="fill: none; stroke: #8c564b; stroke-width: 1.5; stroke-linecap: square"/>
   </g>
   <g id="line2d_25">
    <path d="M 414.72 306.25344 
L 411.909528 305.666517 
L 407.110872 304.911319 
L 399.05806 303.89006 
L 383.197879 302.142139 
L 359.270994 299.461572 
L 346.363137 297.800711 
L 335.744717 296.218774 
L 326.461385 294.627697 
L 318.738034 293.097798 
L 311.337983 291.401574 
L 305.187883 289.776142 
L 299.948733 288.188661 
L 295.061226 286.505335 
L 290.643987 284.783671 
L 286.840497 283.120159 
L 282.741264 281.09163 
L 279.429751 279.242269 
L 275.871661 277.020735 
L 272.013351 274.293995 
L 269.245057 272.098189 
L 266.285989 269.489257 
L 263.095161 266.33649 
L 259.620989 262.477371 
L 255.808755 257.767295 
L 253.7494 254.973028 
L 251.564921 251.781259 
L 246.757993 244.105903 
L 238.25052 229.974821 
L 235.023826 224.994141 
L 231.598668 220.274961 
L 227.997362 216.208743 
L 224.25105 213.096457 
L 220.39959 211.142834 
L 216.491558 210.456368 
L 212.583437 211.077908 
L 208.732062 213.233762 
L 204.99783 216.708328 
L 201.423702 221.060154 
L 194.819018 230.077717 
L 191.764758 233.394112 
L 188.826028 235.872158 
L 185.976109 237.774661 
L 183.195037 239.247887 
L 180.466895 240.410777 
L 177.779822 241.354945 
L 172.501678 242.816971 
L 167.326171 243.888634 
L 162.226072 244.687465 
L 154.678636 245.545336 
L 147.217055 246.157241 
L 137.363944 246.744334 
L 125.157866 247.244458 
L 108.205202 247.684203 
L 84.146565 248.056967 
L 50.650419 248.347468 
L -1 248.560757 
L -1 248.560757 
" clip-path="url(#pffe663cd26)" style="fill: none; stroke: #e377c2; stroke-width: 1.5; stroke-linecap: square"/>
   </g>
   <g id="patch_3">
    <path d="M 57.6 307.584 
L 57.6 41.472 
" style="fill: none; stroke: #000000; stroke-width: 0.8; stroke-linejoin: miter; stroke-linecap: square"/>
   </g>
   <g id="patch_4">
    <path d="M 414.72 307.584 
L 414.72 41.472 
" style="fill: none; stroke: #000000; stroke-width: 0.8; stroke-linejoin: miter; stroke-linecap: square"/>
   </g>
   <g id="patch_5">
    <path d="M 57.6 307.584 
L 414.72 307.584 
" style="fill: none; stroke: #000000; stroke-width: 0.8; stroke-linejoin: miter; stroke-linecap: square"/>
   </g>
   <g id="patch_6">
    <path d="M 57.6 41.472 
L 414.72 41.472 
" style="fill: none; stroke: #000000; stroke-width: 0.8; stroke-linejoin: miter; stroke-linecap: square"/>
   </g>
   <g id="legend_1">
    <g id="patch_7">
     <path d="M 264.619606 199.305873 
L 404.92 199.305873 
Q 407.72 199.305873 407.72 196.505873 
L 407.72 51.272 
Q 407.72 48.472 404.92 48.472 
L 264.619606 48.472 
Q 261.819606 48.472 261.819606 51.272 
L 261.819606 196.505873 
Q 261.819606 199.305873 264.619606 199.305873 
z
" style="fill: #ffffff; opacity: 0.8; stroke: #cccccc; stroke-linejoin: miter"/>
    </g>
    <g id="line2d_26">
     <path d="M 267.419606 59.632772 
L 281.419606 59.632772 
L 295.419606 59.632772 
" style="fill: none; stroke: #1f77b4; stroke-width: 1.5; stroke-linecap: square"/>
    </g>
    <g id="text_21">
     <!-- B = 0.00G/cm -->
     <g transform="translate(306.619606 64.532772)scale(0.14 -0.14)">
      <defs>
       <path id="CMR17-42" d="M 333 4352 
L 333 4185 
C 774 4185 845 4185 845 3897 
L 845 451 
C 845 166 774 166 333 166 
L 333 0 
L 2534 0 
C 3354 0 3885 578 3885 1155 
C 3885 1726 3360 2214 2675 2259 
C 3290 2380 3718 2790 3718 3276 
C 3718 3808 3194 4352 2368 4352 
L 333 4352 
z
M 1248 2304 
L 1248 3936 
C 1248 4153 1261 4185 1517 4185 
L 2336 4185 
C 2970 4185 3251 3673 3251 3276 
C 3251 2790 2861 2304 2170 2304 
L 1248 2304 
z
M 1517 166 
C 1261 166 1248 198 1248 413 
L 1248 2201 
L 2432 2201 
C 3091 2201 3411 1624 3411 1161 
C 3411 698 3046 166 2349 166 
L 1517 166 
z
" transform="scale(0.015625)"/>
       <path id="CMR17-3d" d="M 4115 2048 
C 4211 2048 4307 2048 4307 2156 
C 4307 2272 4198 2272 4090 2272 
L 512 2272 
C 403 2272 294 2272 294 2156 
C 294 2048 390 2048 486 2048 
L 4115 2048 
z
M 4090 927 
C 4198 927 4307 927 4307 1043 
C 4307 1152 4211 1152 4115 1152 
L 486 1152 
C 390 1152 294 1152 294 1043 
C 294 927 403 927 512 927 
L 4090 927 
z
" transform="scale(0.015625)"/>
       <path id="CMR17-2e" d="M 1062 262 
C 1062 422 934 524 800 524 
C 672 524 538 422 538 262 
C 538 102 666 0 800 0 
C 928 0 1062 102 1062 262 
z
" transform="scale(0.015625)"/>
       <path id="CMR17-47" d="M 3974 1258 
C 3974 1503 3994 1536 4390 1536 
L 4390 1702 
C 4237 1689 3891 1689 3718 1689 
C 3539 1689 3040 1696 2797 1702 
L 2797 1536 
L 2989 1536 
C 3539 1536 3552 1464 3552 1232 
L 3552 806 
C 3552 96 2720 38 2522 38 
C 1862 38 781 496 781 2179 
C 781 3862 1843 4313 2464 4313 
C 3187 4313 3712 3681 3834 2785 
C 3846 2708 3846 2695 3904 2695 
C 3974 2695 3974 2708 3974 2824 
L 3974 4351 
C 3974 4467 3968 4473 3930 4473 
C 3904 4473 3898 4467 3853 4390 
L 3571 3849 
C 3258 4249 2874 4480 2381 4480 
C 1286 4480 294 3507 294 2179 
C 294 858 1267 -128 2394 -128 
C 2912 -128 3418 57 3616 425 
C 3725 161 3904 -20 3936 -20 
C 3968 -20 3974 -13 3974 102 
L 3974 1258 
z
" transform="scale(0.015625)"/>
      </defs>
      <use xlink:href="#CMR17-42" transform="scale(0.996264)"/>
      <use xlink:href="#CMR17-3d" transform="translate(95.264721 0)scale(0.996264)"/>
      <use xlink:href="#CMR17-30" transform="translate(197.055476 0)scale(0.996264)"/>
      <use xlink:href="#CMR17-2e" transform="translate(242.745953 0)scale(0.996264)"/>
      <use xlink:href="#CMR17-30" transform="translate(267.617011 0)scale(0.996264)"/>
      <use xlink:href="#CMR17-30" transform="translate(313.307488 0)scale(0.996264)"/>
      <use xlink:href="#CMR17-47" transform="translate(358.997965 0)scale(0.996264)"/>
      <use xlink:href="#CMR17-2f" transform="translate(431.353311 0)scale(0.996264)"/>
      <use xlink:href="#CMR17-63" transform="translate(477.043788 0)scale(0.996264)"/>
      <use xlink:href="#CMR17-6d" transform="translate(517.529449 0)scale(0.996264)"/>
     </g>
    </g>
    <g id="line2d_27">
     <path d="M 267.419606 80.580468 
L 281.419606 80.580468 
L 295.419606 80.580468 
" style="fill: none; stroke: #ff7f0e; stroke-width: 1.5; stroke-linecap: square"/>
    </g>
    <g id="text_22">
     <!-- B = 10.00G/cm -->
     <g transform="translate(306.619606 85.480468)scale(0.14 -0.14)">
      <use xlink:href="#CMR17-42" transform="scale(0.996264)"/>
      <use xlink:href="#CMR17-3d" transform="translate(95.264721 0)scale(0.996264)"/>
      <use xlink:href="#CMR17-31" transform="translate(197.055476 0)scale(0.996264)"/>
      <use xlink:href="#CMR17-30" transform="translate(242.745953 0)scale(0.996264)"/>
      <use xlink:href="#CMR17-2e" transform="translate(288.43643 0)scale(0.996264)"/>
      <use xlink:href="#CMR17-30" transform="translate(313.307488 0)scale(0.996264)"/>
      <use xlink:href="#CMR17-30" transform="translate(358.997965 0)scale(0.996264)"/>
      <use xlink:href="#CMR17-47" transform="translate(404.688443 0)scale(0.996264)"/>
      <use xlink:href="#CMR17-2f" transform="translate(477.043788 0)scale(0.996264)"/>
      <use xlink:href="#CMR17-63" transform="translate(522.734266 0)scale(0.996264)"/>
      <use xlink:href="#CMR17-6d" transform="translate(563.219926 0)scale(0.996264)"/>
     </g>
    </g>
    <g id="line2d_28">
     <path d="M 267.419606 101.528164 
L 281.419606 101.528164 
L 295.419606 101.528164 
" style="fill: none; stroke: #2ca02c; stroke-width: 1.5; stroke-linecap: square"/>
    </g>
    <g id="text_23">
     <!-- B = 20.00G/cm -->
     <g transform="translate(306.619606 106.428164)scale(0.14 -0.14)">
      <use xlink:href="#CMR17-42" transform="scale(0.996264)"/>
      <use xlink:href="#CMR17-3d" transform="translate(95.264721 0)scale(0.996264)"/>
      <use xlink:href="#CMR17-32" transform="translate(197.055476 0)scale(0.996264)"/>
      <use xlink:href="#CMR17-30" transform="translate(242.745953 0)scale(0.996264)"/>
      <use xlink:href="#CMR17-2e" transform="translate(288.43643 0)scale(0.996264)"/>
      <use xlink:href="#CMR17-30" transform="translate(313.307488 0)scale(0.996264)"/>
      <use xlink:href="#CMR17-30" transform="translate(358.997965 0)scale(0.996264)"/>
      <use xlink:href="#CMR17-47" transform="translate(404.688443 0)scale(0.996264)"/>
      <use xlink:href="#CMR17-2f" transform="translate(477.043788 0)scale(0.996264)"/>
      <use xlink:href="#CMR17-63" transform="translate(522.734266 0)scale(0.996264)"/>
      <use xlink:href="#CMR17-6d" transform="translate(563.219926 0)scale(0.996264)"/>
     </g>
    </g>
    <g id="line2d_29">
     <path d="M 267.419606 122.475861 
L 281.419606 122.475861 
L 295.419606 122.475861 
" style="fill: none; stroke: #d62728; stroke-width: 1.5; stroke-linecap: square"/>
    </g>
    <g id="text_24">
     <!-- B = 30.00G/cm -->
     <g transform="translate(306.619606 127.375861)scale(0.14 -0.14)">
      <defs>
       <path id="CMR17-33" d="M 1414 2176 
C 1984 2176 2234 1673 2234 1094 
C 2234 322 1824 25 1453 25 
C 1114 25 563 193 390 691 
C 422 678 454 678 486 678 
C 640 678 755 780 755 947 
C 755 1132 614 1216 486 1216 
C 378 1216 211 1164 211 927 
C 211 335 787 -128 1466 -128 
C 2176 -128 2720 432 2720 1087 
C 2720 1718 2208 2176 1600 2246 
C 2086 2347 2554 2776 2554 3353 
C 2554 3856 2048 4224 1472 4224 
C 890 4224 378 3862 378 3347 
C 378 3123 544 3084 627 3084 
C 762 3084 877 3167 877 3334 
C 877 3500 762 3584 627 3584 
C 602 3584 570 3584 544 3571 
C 730 3999 1235 4076 1459 4076 
C 1683 4076 2106 3966 2106 3347 
C 2106 3167 2080 2851 1862 2574 
C 1670 2329 1453 2316 1242 2297 
C 1210 2297 1062 2284 1037 2284 
C 992 2278 966 2272 966 2227 
C 966 2182 973 2176 1101 2176 
L 1414 2176 
z
" transform="scale(0.015625)"/>
      </defs>
      <use xlink:href="#CMR17-42" transform="scale(0.996264)"/>
      <use xlink:href="#CMR17-3d" transform="translate(95.264721 0)scale(0.996264)"/>
      <use xlink:href="#CMR17-33" transform="translate(197.055476 0)scale(0.996264)"/>
      <use xlink:href="#CMR17-30" transform="translate(242.745953 0)scale(0.996264)"/>
      <use xlink:href="#CMR17-2e" transform="translate(288.43643 0)scale(0.996264)"/>
      <use xlink:href="#CMR17-30" transform="translate(313.307488 0)scale(0.996264)"/>
      <use xlink:href="#CMR17-30" transform="translate(358.997965 0)scale(0.996264)"/>
      <use xlink:href="#CMR17-47" transform="translate(404.688443 0)scale(0.996264)"/>
      <use xlink:href="#CMR17-2f" transform="translate(477.043788 0)scale(0.996264)"/>
      <use xlink:href="#CMR17-63" transform="translate(522.734266 0)scale(0.996264)"/>
      <use xlink:href="#CMR17-6d" transform="translate(563.219926 0)scale(0.996264)"/>
     </g>
    </g>
    <g id="line2d_30">
     <path d="M 267.419606 143.423557 
L 281.419606 143.423557 
L 295.419606 143.423557 
" style="fill: none; stroke: #9467bd; stroke-width: 1.5; stroke-linecap: square"/>
    </g>
    <g id="text_25">
     <!-- B = 40.00G/cm -->
     <g transform="translate(306.619606 148.323557)scale(0.14 -0.14)">
      <defs>
       <path id="CMR17-34" d="M 2150 4147 
C 2150 4281 2144 4288 2029 4288 
L 128 1254 
L 128 1088 
L 1779 1088 
L 1779 460 
C 1779 230 1766 166 1318 166 
L 1197 166 
L 1197 0 
C 1402 12 1747 12 1965 12 
C 2182 12 2528 12 2733 0 
L 2733 166 
L 2611 166 
C 2163 166 2150 230 2150 460 
L 2150 1088 
L 2803 1088 
L 2803 1254 
L 2150 1254 
L 2150 4147 
z
M 1798 3723 
L 1798 1254 
L 256 1254 
L 1798 3723 
z
" transform="scale(0.015625)"/>
      </defs>
      <use xlink:href="#CMR17-42" transform="scale(0.996264)"/>
      <use xlink:href="#CMR17-3d" transform="translate(95.264721 0)scale(0.996264)"/>
      <use xlink:href="#CMR17-34" transform="translate(197.055476 0)scale(0.996264)"/>
      <use xlink:href="#CMR17-30" transform="translate(242.745953 0)scale(0.996264)"/>
      <use xlink:href="#CMR17-2e" transform="translate(288.43643 0)scale(0.996264)"/>
      <use xlink:href="#CMR17-30" transform="translate(313.307488 0)scale(0.996264)"/>
      <use xlink:href="#CMR17-30" transform="translate(358.997965 0)scale(0.996264)"/>
      <use xlink:href="#CMR17-47" transform="translate(404.688443 0)scale(0.996264)"/>
      <use xlink:href="#CMR17-2f" transform="translate(477.043788 0)scale(0.996264)"/>
      <use xlink:href="#CMR17-63" transform="translate(522.734266 0)scale(0.996264)"/>
      <use xlink:href="#CMR17-6d" transform="translate(563.219926 0)scale(0.996264)"/>
     </g>
    </g>
    <g id="line2d_31">
     <path d="M 267.419606 164.371253 
L 281.419606 164.371253 
L 295.419606 164.371253 
" style="fill: none; stroke: #8c564b; stroke-width: 1.5; stroke-linecap: square"/>
    </g>
    <g id="text_26">
     <!-- B = 50.00G/cm -->
     <g transform="translate(306.619606 169.271253)scale(0.14 -0.14)">
      <use xlink:href="#CMR17-42" transform="scale(0.996264)"/>
      <use xlink:href="#CMR17-3d" transform="translate(95.264721 0)scale(0.996264)"/>
      <use xlink:href="#CMR17-35" transform="translate(197.055476 0)scale(0.996264)"/>
      <use xlink:href="#CMR17-30" transform="translate(242.745953 0)scale(0.996264)"/>
      <use xlink:href="#CMR17-2e" transform="translate(288.43643 0)scale(0.996264)"/>
      <use xlink:href="#CMR17-30" transform="translate(313.307488 0)scale(0.996264)"/>
      <use xlink:href="#CMR17-30" transform="translate(358.997965 0)scale(0.996264)"/>
      <use xlink:href="#CMR17-47" transform="translate(404.688443 0)scale(0.996264)"/>
      <use xlink:href="#CMR17-2f" transform="translate(477.043788 0)scale(0.996264)"/>
      <use xlink:href="#CMR17-63" transform="translate(522.734266 0)scale(0.996264)"/>
      <use xlink:href="#CMR17-6d" transform="translate(563.219926 0)scale(0.996264)"/>
     </g>
    </g>
    <g id="line2d_32">
     <path d="M 267.419606 185.318949 
L 281.419606 185.318949 
L 295.419606 185.318949 
" style="fill: none; stroke: #e377c2; stroke-width: 1.5; stroke-linecap: square"/>
    </g>
    <g id="text_27">
     <!-- B = 60.00G/cm -->
     <g transform="translate(306.619606 190.218949)scale(0.14 -0.14)">
      <defs>
       <path id="CMR17-36" d="M 678 2198 
C 678 3712 1395 4076 1811 4076 
C 1946 4076 2272 4049 2400 3782 
C 2298 3782 2106 3782 2106 3558 
C 2106 3385 2246 3328 2336 3328 
C 2394 3328 2566 3353 2566 3571 
C 2566 3987 2246 4224 1805 4224 
C 1043 4224 243 3411 243 2011 
C 243 257 966 -128 1478 -128 
C 2099 -128 2688 431 2688 1295 
C 2688 2101 2170 2688 1517 2688 
C 1126 2688 838 2430 678 1979 
L 678 2198 
z
M 1478 25 
C 691 25 691 1212 691 1450 
C 691 1914 909 2585 1504 2585 
C 1613 2585 1926 2585 2138 2140 
C 2253 1889 2253 1624 2253 1302 
C 2253 954 2253 696 2118 438 
C 1978 173 1773 25 1478 25 
z
" transform="scale(0.015625)"/>
      </defs>
      <use xlink:href="#CMR17-42" transform="scale(0.996264)"/>
      <use xlink:href="#CMR17-3d" transform="translate(95.264721 0)scale(0.996264)"/>
      <use xlink:href="#CMR17-36" transform="translate(197.055476 0)scale(0.996264)"/>
      <use xlink:href="#CMR17-30" transform="translate(242.745953 0)scale(0.996264)"/>
      <use xlink:href="#CMR17-2e" transform="translate(288.43643 0)scale(0.996264)"/>
      <use xlink:href="#CMR17-30" transform="translate(313.307488 0)scale(0.996264)"/>
      <use xlink:href="#CMR17-30" transform="translate(358.997965 0)scale(0.996264)"/>
      <use xlink:href="#CMR17-47" transform="translate(404.688443 0)scale(0.996264)"/>
      <use xlink:href="#CMR17-2f" transform="translate(477.043788 0)scale(0.996264)"/>
      <use xlink:href="#CMR17-63" transform="translate(522.734266 0)scale(0.996264)"/>
      <use xlink:href="#CMR17-6d" transform="translate(563.219926 0)scale(0.996264)"/>
     </g>
    </g>
   </g>
  </g>
 </g>
 <defs>
  <clipPath id="pffe663cd26">
   <rect x="57.6" y="41.472" width="357.12" height="266.112"/>
  </clipPath>
 </defs>
</svg>
